<svg xmlns="http://www.w3.org/2000/svg" xmlns:xlink="http://www.w3.org/1999/xlink" viewBox="0 0 862.75 615.99"><defs><style>.cls-1{mask:url(#mask);}.cls-2,.cls-91{mix-blend-mode:multiply;}.cls-2{fill:url(#linear-gradient);}.cls-3{isolation:isolate;}.cls-16,.cls-17,.cls-18,.cls-29,.cls-4{fill:#faaf40;}.cls-5{fill:#e76920;}.cls-6{fill:#8bc540;}.cls-7{fill:#8a5d3b;}.cls-10,.cls-11,.cls-12,.cls-13,.cls-14,.cls-15,.cls-16,.cls-17,.cls-18,.cls-7,.cls-8,.cls-9{stroke:#e76920;}.cls-10,.cls-11,.cls-12,.cls-13,.cls-14,.cls-15,.cls-16,.cls-17,.cls-18,.cls-24,.cls-25,.cls-26,.cls-27,.cls-28,.cls-29,.cls-30,.cls-31,.cls-32,.cls-33,.cls-34,.cls-62,.cls-65,.cls-66,.cls-67,.cls-68,.cls-69,.cls-7,.cls-70,.cls-71,.cls-72,.cls-73,.cls-74,.cls-75,.cls-76,.cls-77,.cls-78,.cls-79,.cls-8,.cls-80,.cls-81,.cls-82,.cls-83,.cls-84,.cls-85,.cls-86,.cls-9{stroke-miterlimit:10;}.cls-10,.cls-11,.cls-12,.cls-13,.cls-14,.cls-15,.cls-16,.cls-24,.cls-25,.cls-26,.cls-27,.cls-28,.cls-29,.cls-30,.cls-31,.cls-32,.cls-33,.cls-34,.cls-7,.cls-8,.cls-9{stroke-width:3.7px;}.cls-26,.cls-8{fill:#ee4036;}.cls-33,.cls-9{fill:#a87c4f;}.cls-10,.cls-34{fill:#f9ec31;}.cls-11{fill:#be1e2d;}.cls-12,.cls-25{fill:#1b75bb;}.cls-13,.cls-28{fill:#006838;}.cls-14{fill:#fff100;}.cls-15{fill:#754c28;}.cls-17{stroke-width:4.31px;}.cls-18{stroke-width:4.93px;}.cls-19{fill:#fff;}.cls-20{fill:#ff4438;}.cls-21{fill:#8a2f8f;}.cls-22,.cls-30,.cls-31{fill:#f68f3d;}.cls-23{fill:#c5511e;}.cls-24{fill:#5a4a42;}.cls-24,.cls-25,.cls-26,.cls-27,.cls-28,.cls-29,.cls-31,.cls-32,.cls-33,.cls-34{stroke:#c5521e;}.cls-27{fill:#eb008b;}.cls-30{stroke:#c5511e;}.cls-32{fill:#26a9e0;}.cls-35{fill:url(#radial-gradient);}.cls-36{fill:#181013;}.cls-37{fill:#3b1120;}.cls-38{fill:#981c1f;}.cls-39{fill:#7e749e;}.cls-40{fill:url(#linear-gradient-2);}.cls-41{fill:#214080;}.cls-42{fill:#2e62ad;}.cls-43,.cls-62,.cls-65,.cls-66,.cls-67,.cls-68,.cls-69,.cls-70,.cls-71,.cls-72,.cls-73,.cls-74,.cls-75,.cls-76,.cls-77,.cls-78,.cls-79,.cls-80,.cls-81,.cls-82,.cls-83,.cls-84,.cls-85,.cls-86{fill:none;}.cls-44{fill:#42c3ec;}.cls-45{fill:#a6dce3;}.cls-46{fill:#b9b7c4;}.cls-47{fill:#26121a;}.cls-48{fill:url(#linear-gradient-3);}.cls-49{fill:url(#linear-gradient-4);}.cls-50{fill:#6c3d56;}.cls-51{fill:#728f8f;}.cls-52{fill:#5b5141;}.cls-53{fill:#b7def5;}.cls-54{fill:#f4f9fc;}.cls-55{fill:#4c2839;}.cls-56{fill:url(#linear-gradient-5);}.cls-57{fill:url(#linear-gradient-6);}.cls-58{fill:url(#linear-gradient-7);}.cls-59{fill:#e4f4fc;}.cls-60{fill:#911930;}.cls-61{fill:#891844;}.cls-62{stroke:#fff100;stroke-width:0.16px;}.cls-63{fill:#d22d28;}.cls-64{opacity:0.79;}.cls-65{stroke:#f9c8ca;}.cls-65,.cls-66,.cls-67,.cls-68,.cls-69,.cls-70,.cls-71,.cls-72,.cls-73,.cls-74,.cls-75,.cls-76,.cls-77,.cls-78,.cls-79,.cls-80,.cls-81,.cls-82,.cls-83,.cls-84,.cls-85,.cls-86{stroke-width:0.66px;}.cls-66{stroke:#f9c6c8;opacity:0.95;}.cls-67{stroke:#f9c5c7;opacity:0.9;}.cls-68{stroke:#f9c3c5;opacity:0.86;}.cls-69{stroke:#f8c2c4;opacity:0.81;}.cls-70{stroke:#f8c0c2;opacity:0.76;}.cls-71{stroke:#f8bfc1;opacity:0.71;}.cls-72{stroke:#f8bdbf;opacity:0.67;}.cls-73{stroke:#f8bcbe;opacity:0.62;}.cls-74{stroke:#f8babc;opacity:0.57;}.cls-75{stroke:#f8b9bb;opacity:0.52;}.cls-76{stroke:#f7b7b9;opacity:0.48;}.cls-77{stroke:#f7b6b8;opacity:0.43;}.cls-78{stroke:#f7b4b6;opacity:0.38;}.cls-79{stroke:#f7b3b5;opacity:0.33;}.cls-80{stroke:#f7b1b3;opacity:0.29;}.cls-81{stroke:#f7b0b2;opacity:0.24;}.cls-82{stroke:#f7aeb0;opacity:0.19;}.cls-83{stroke:#f6adaf;opacity:0.14;}.cls-84{stroke:#f6abad;opacity:0.1;}.cls-85{stroke:#f6aaac;opacity:0.05;}.cls-86{stroke:#f6a8aa;opacity:0;}.cls-87{fill:#2f70b7;}.cls-88{fill:url(#linear-gradient-8);}.cls-89{fill:url(#radial-gradient-2);}.cls-90{fill:url(#radial-gradient-3);}.cls-91{fill:#a01c44;opacity:0.52;}.cls-92{fill:#e69a6c;}.cls-93{fill:url(#linear-gradient-9);}.cls-94{fill:#7fcdcc;}.cls-95{fill:url(#radial-gradient-4);}.cls-96{fill:#bfe5e9;}.cls-97{fill:#7d89aa;}.cls-98{fill:#c6e6f9;}.cls-99{fill:#9bc6ea;}.cls-100{fill:#68567f;}.cls-101{fill:url(#linear-gradient-10);}.cls-102{fill:url(#linear-gradient-11);}.cls-103{fill:url(#linear-gradient-12);}.cls-104{fill:#5b082c;}.cls-105{mask:url(#mask-2);}.cls-106{opacity:0.77;fill:url(#linear-gradient-13);}.cls-107{fill:url(#linear-gradient-14);}.cls-108{fill:url(#radial-gradient-5);}.cls-109{fill:#113154;}.cls-110{fill:url(#linear-gradient-15);}.cls-111{filter:url(#luminosity-noclip-2);}.cls-112{filter:url(#luminosity-noclip);}</style><filter id="luminosity-noclip" x="639.75" y="-8732" width="226.07" height="32766" filterUnits="userSpaceOnUse" color-interpolation-filters="sRGB"><feFlood flood-color="#fff" result="bg"/><feBlend in="SourceGraphic" in2="bg"/></filter><mask id="mask" x="639.75" y="-8732" width="226.07" height="32766" maskUnits="userSpaceOnUse"><g class="cls-112"/></mask><linearGradient id="linear-gradient" x1="825.7" y1="289.75" x2="695.52" y2="544.92" gradientUnits="userSpaceOnUse"><stop offset="0" stop-color="#fff"/><stop offset="1"/></linearGradient><radialGradient id="radial-gradient" cx="431.11" cy="553.37" r="33.52" gradientUnits="userSpaceOnUse"><stop offset="0.24" stop-color="#7e749e"/><stop offset="0.72" stop-color="#2e2b3b"/></radialGradient><linearGradient id="linear-gradient-2" x1="1365.57" y1="659.39" x2="1372.36" y2="659.39" gradientUnits="userSpaceOnUse"><stop offset="0.47" stop-color="#a04823"/><stop offset="0.65" stop-color="#a04823"/></linearGradient><linearGradient id="linear-gradient-3" x1="556.51" y1="617.14" x2="556.51" y2="727.97" gradientUnits="userSpaceOnUse"><stop offset="0.1" stop-color="#556b6b"/><stop offset="1" stop-color="#b7def5"/></linearGradient><linearGradient id="linear-gradient-4" x1="563.03" y1="724.01" x2="563.03" y2="621.36" gradientUnits="userSpaceOnUse"><stop offset="0.1" stop-color="#728f8f"/><stop offset="1" stop-color="#b7def5"/></linearGradient><linearGradient id="linear-gradient-5" x1="736.93" y1="660.5" x2="749.4" y2="812" xlink:href="#linear-gradient-3"/><linearGradient id="linear-gradient-6" x1="750.73" y1="805.21" x2="743.65" y2="665.44" xlink:href="#linear-gradient-4"/><linearGradient id="linear-gradient-7" x1="729.2" y1="736.45" x2="765.29" y2="736.45" xlink:href="#linear-gradient-4"/><linearGradient id="linear-gradient-8" x1="1350.97" y1="700.77" x2="1388.26" y2="700.77" gradientUnits="userSpaceOnUse"><stop offset="0.45" stop-color="#6f8593"/><stop offset="0.68" stop-color="#b7def5"/></linearGradient><radialGradient id="radial-gradient-2" cx="820.73" cy="309.44" r="379.42" gradientUnits="userSpaceOnUse"><stop offset="0" stop-color="#53c2c0"/><stop offset="0.98" stop-color="#1b8589"/></radialGradient><radialGradient id="radial-gradient-3" cx="804.95" cy="308.73" r="354.4" gradientUnits="userSpaceOnUse"><stop offset="0" stop-color="#21a5b4"/><stop offset="0.98" stop-color="#1b6776"/></radialGradient><linearGradient id="linear-gradient-9" x1="53.33" y1="483.71" x2="157.67" y2="483.71" gradientUnits="userSpaceOnUse"><stop offset="0.42" stop-color="#b7def5"/><stop offset="1" stop-color="#b7def5"/></linearGradient><radialGradient id="radial-gradient-4" cx="821.03" cy="309.4" r="378.91" xlink:href="#radial-gradient-2"/><linearGradient id="linear-gradient-10" x1="783.35" y1="723.83" x2="1032.09" y2="723.83" gradientUnits="userSpaceOnUse"><stop offset="0.32" stop-color="#b7def5"/><stop offset="0.55" stop-color="#6f8593"/></linearGradient><linearGradient id="linear-gradient-11" x1="876.72" y1="667.4" x2="938.14" y2="702.59" gradientUnits="userSpaceOnUse"><stop offset="0.47" stop-color="#d15b28"/><stop offset="0.88" stop-color="#d15b28"/></linearGradient><linearGradient id="linear-gradient-12" x1="859.45" y1="682.15" x2="1025.8" y2="682.15" xlink:href="#linear-gradient-10"/><filter id="luminosity-noclip-2" x="639.75" y="277.47" width="226.07" height="262.44" filterUnits="userSpaceOnUse" color-interpolation-filters="sRGB"><feFlood flood-color="#fff" result="bg"/><feBlend in="SourceGraphic" in2="bg"/></filter><mask id="mask-2" x="114.23" y="43.96" width="226.07" height="262.44" maskUnits="userSpaceOnUse"><g class="cls-111"><g transform="translate(-525.52 -233.52)"><g class="cls-1"><path class="cls-2" d="M766.75,283.83c18.27-8.47,47-18.1,99.06,40.55L761.19,537.65l-121.44,2.26Z"/></g></g></g></mask><linearGradient id="linear-gradient-13" x1="825.7" y1="289.75" x2="695.52" y2="544.92" gradientUnits="userSpaceOnUse"><stop offset="0" stop-color="#f6f8f1"/><stop offset="1" stop-color="#31bac4"/></linearGradient><linearGradient id="linear-gradient-14" x1="169.56" y1="175.01" x2="267.44" y2="175.01" xlink:href="#linear-gradient-9"/><radialGradient id="radial-gradient-5" cx="279.21" cy="75.23" r="354.78" xlink:href="#radial-gradient-3"/><linearGradient id="linear-gradient-15" x1="876.84" y1="668.25" x2="920.54" y2="693.28" gradientUnits="userSpaceOnUse"><stop offset="0" stop-color="#f8a884"/><stop offset="0.88" stop-color="#d15b28"/></linearGradient></defs><g class="cls-3"><g id="Layer_1" data-name="Layer 1"><path class="cls-4" d="M653.74,606.89c0-.47-.1-1-.13-1.63l-.09-1.65-1.61-.34a5.86,5.86,0,0,1,0-11.46l2.87-.63-1.47-2.55a5.85,5.85,0,0,1-.78-2.91,4.93,4.93,0,0,1,0-.55l.31-3.39-3.2,1.17a5.86,5.86,0,1,1-2.08-11.36h2.27l-.05-2.3a5.87,5.87,0,0,1,.83-2.93l1.56-2.61-3-.6a5.89,5.89,0,0,1-4.7-5.75,5.81,5.81,0,0,1,1.93-4.34l1.76-1.6-1.76-1.59a5.86,5.86,0,0,1,2.52-10l2.57-.63-1.14-2.39a5.79,5.79,0,0,1,1-6.47l2-2.16-2.65-1.25a5.86,5.86,0,0,1,2.43-11.17l2,0,.24-1.93a5.76,5.76,0,0,1,1.16-2.82l1-1.31-1-1.32a5.75,5.75,0,0,1-1.22-3.56,5.87,5.87,0,0,1,5.87-5.86h.21l3,.12-.79-2.85a5.79,5.79,0,0,1-.23-1.57,5.89,5.89,0,0,1,3.84-5.5l3.76-1.39-3.22-2.37a5.79,5.79,0,0,1-2.4-4.72,5.88,5.88,0,0,1,5.05-5.8l1.73-.24.12-1.75c.07-1,.13-2,.18-3l0-.64-.31-.55a5.81,5.81,0,0,1,.32-6.28l.37-.51s.15-3.06.22-4.28l.11-2.19-2.19-.08a5.86,5.86,0,0,1-.79-11.62l4.07-.71-2.91-2.94a5.8,5.8,0,0,1-1.7-4.13,5.87,5.87,0,0,1,3.56-5.39l2.28-1-1.28-2.13a5.79,5.79,0,0,1-.85-3,5.87,5.87,0,0,1,2.17-4.56l2.81-2.27L675,416.31a5.87,5.87,0,0,1,4.46-10.85l1.75.72.94-1.64a5.84,5.84,0,0,1,4.07-2.87l.89-.16,1.21-1.76L689.5,398l-1.72-1.24a5.86,5.86,0,0,1,3.42-10.62,5.83,5.83,0,0,1,3,.85l1.85,1.12,1.11-1.85c2.92-4.86,5.55-9.74,9.18-16.49l.85-1.58c2.65-4.91,10.41-10.7,18.62-16.83,11.2-8.35,23.9-17.82,30.09-29.26,5.11-9.43,9.76-10.21,14.47-10.21,1.36,0,2.8.09,4.32.18,1.74.11,3.53.22,5.47.22a36.1,36.1,0,0,0,13.44-2.42c9.5-3.66,33.5-6.59,58.91-9.68,22.93-2.8,46.64-5.69,64.16-9.54a121.45,121.45,0,0,1,25.7-2.41c27.9,0,61.6,6.49,91.34,12.21,7.93,1.53,15.42,3,22.62,4.27,5.46,1,14.18,5.72,21.86,9.9,6.08,3.31,11.32,6.17,14.82,7.17l1.48.43.88-1.27c.4-.58.89-1.44,1.51-2.54,1-1.76,3.62-6.4,4.9-7a5.86,5.86,0,0,1,5.74,5.81l-.06,1.64,1.51.52,2.63.93,1.49.53,1-1.26a5.81,5.81,0,0,1,4.67-2.33,5.89,5.89,0,0,1,5.71,4.58l.66,2.94,2.57-1.57a5.85,5.85,0,0,1,8.91,4.75l.06,1.52,1.46.45c.89.28,1.78.54,2.66.79l.65.19.65-.22a5.79,5.79,0,0,1,5.87,1.22l2,1.83,1.34-2.36a5.88,5.88,0,0,1,5.11-3,16.35,16.35,0,0,0,3.87-.5v.29a2.7,2.7,0,0,0,.79,2,2.66,2.66,0,0,0,1.88.74,6,6,0,0,0,2.67-.86,6.29,6.29,0,0,0,2.44.39h.85l.63,0a5.87,5.87,0,0,0,2.39,2.61l-.5.65,1.8,1.31a3.86,3.86,0,0,0,2.29.69,12.64,12.64,0,0,0,4.36-1.16l.31-.12a5.92,5.92,0,0,1-1.16,2l-.74.83.25,1.08c.14.61.26,1.23.36,1.85l.12.77.6.52a5.83,5.83,0,0,1,1.38,7.1l-.57,1.11.68,1.05a5.89,5.89,0,0,1,.91,2.55l.43,3.95,3.08-2.51a5.74,5.74,0,0,1,3.7-1.32,5.86,5.86,0,0,1,1.44,11.54l-2.38.6,1.5,3.83,1,.29a5.89,5.89,0,0,1,4.28,5.64,5.06,5.06,0,0,1,0,.68l-.22,1.93,1.91.42a5.85,5.85,0,0,1,2.56,10.17l-1.35,1.16.88,1.54c1,1.74,2,3.41,3.14,5l.63.9h1.1a5.9,5.9,0,0,1,5.76,5.86V403l-.09,2.75,2.69-.57a5.69,5.69,0,0,1,1.22-.13,5.87,5.87,0,0,1,5.87,5.86,5.71,5.71,0,0,1-.39,2.07l-.3.8.33.79a20.84,20.84,0,0,1,.89,2.7l.35,1.27,1.29.27a5.86,5.86,0,0,1,1.3,11l-1.31.62.08,1.44c.13,2.4.26,4.72.57,6.78l.2,1.21,1,.59a5.84,5.84,0,0,1,2,8.74l-.64.85.28,1c.27,1,.55,2,.84,3l.25.91.85.42a5.89,5.89,0,0,1,3.07,3.93l.43,1.9,1.93-.24c.24,0,.47,0,.72,0a5.87,5.87,0,0,1,5.86,5.86,5.79,5.79,0,0,1-1,3.28l-1.7,2.52,2.94.77a5.86,5.86,0,0,1,3.27,9.08l-1.08,1.5,1.33,1.29c3.68,3.61,7.25,6.83,9,8.43-4.62,9.87-9.76,20.28-11.11,22.13-7,3.36-122.57,58.89-128.91,61.93l-262,48Z" transform="translate(-525.52 -233.52)"/><path class="cls-5" d="M942.4,286.09v4.31c27.69,0,61.29,6.47,90.93,12.18,7.94,1.53,15.43,3,22.65,4.27,5.12.92,14,5.77,21.21,9.68,6.19,3.37,11.53,6.28,15.25,7.34l3,.85,1.76-2.53c.46-.66,1-1.56,1.61-2.7a42.76,42.76,0,0,1,3.72-5.82,3.72,3.72,0,0,1,2.9,3.51h0v.13l0,3.1,2.93,1c.89.31,1.76.61,2.61.92l3,1.06,1.91-2.51a3.67,3.67,0,0,1,3-1.48,3.72,3.72,0,0,1,3.61,2.89l1.32,5.89,5.14-3.16a3.69,3.69,0,0,1,5.63,3l.12,3,2.9.91,2.72.81,1.31.37,1.28-.45a3.67,3.67,0,0,1,3.72.77l4,3.68,2.67-4.74a3.72,3.72,0,0,1,3.23-1.89,16.44,16.44,0,0,0,2.23-.16,4.77,4.77,0,0,0,4.31,2.64,7,7,0,0,0,2.84-.69,9.39,9.39,0,0,0,2.27.23h.24a6.84,6.84,0,0,0,.65.76l-.58.75,3.6,2.61a6,6,0,0,0,3.55,1.1l.69,0,.23,1c.13.55.24,1.13.33,1.7L1177,342l1.19,1a3.71,3.71,0,0,1,1.29,2.8,3.61,3.61,0,0,1-.42,1.69l-1.14,2.22,1.36,2.1a3.6,3.6,0,0,1,.58,1.6l.85,7.91,6.16-5a3.67,3.67,0,0,1,2.34-.84,3.71,3.71,0,0,1,.91,7.3l-4.76,1.2,1.8,4.56.21.54.78,2,2.07.59a3.65,3.65,0,0,1,2.67,4l-.44,3.87,3.81.83a3.72,3.72,0,0,1,2.91,3.62,3.67,3.67,0,0,1-1.3,2.81l-2.7,2.32,1.76,3.09c1,1.79,2.12,3.52,3.26,5.14l1.26,1.78,2.19,0a3.72,3.72,0,0,1,3.64,3.61c0,.06,0,.11,0,.17l-.12,5.45,5.33-1.13a3.44,3.44,0,0,1,.77-.09,3.71,3.71,0,0,1,3.47,5l-.61,1.6.66,1.58a19.84,19.84,0,0,1,.81,2.44l.69,2.54,2.58.54a3.71,3.71,0,0,1,.81,7l-2.6,1.23.15,2.89c.13,2.44.27,4.82.58,7l0,.2.33,2.19,2,1a3.68,3.68,0,0,1,1.28,5.52l-1.28,1.69.56,2.05.84,3,.52,1.82,1.68.86a3.65,3.65,0,0,1,2,2.48l.86,3.79,3.86-.47.46,0a3.72,3.72,0,0,1,3.71,3.71,3.64,3.64,0,0,1-.64,2.07l-3.4,5,5.88,1.55a3.68,3.68,0,0,1,2.07,5.73l-2.16,3,2.65,2.59c3,3,6,5.67,7.93,7.43-4.06,8.61-8.4,17.42-10,19.9-10.72,5.18-119.56,57.45-128.1,61.55L849.41,623.6,655.75,604.92l-.17-3.07-3.22-.69a3.71,3.71,0,0,1,0-7.24l5.75-1.26-2.94-5.1a3.62,3.62,0,0,1-.49-1.84,2.3,2.3,0,0,1,0-.35l.63-6.79-6.41,2.35a3.79,3.79,0,0,1-1.27.23,3.71,3.71,0,0,1,0-7.42H652l0-4.34v-.14a3.75,3.75,0,0,1,.52-1.8l3.11-5.23-6-1.2a3.71,3.71,0,0,1-3-3.63,3.65,3.65,0,0,1,1.22-2.74l3.52-3.2-3.52-3.19a3.69,3.69,0,0,1,1.59-6.33l5.14-1.27-2.28-4.78a3.56,3.56,0,0,1-.37-1.59,3.71,3.71,0,0,1,1-2.5l4-4.32L651.58,525a3.7,3.7,0,0,1,1.45-7.06h.15l3.84,0,.47-3.81a3.79,3.79,0,0,1,.74-1.78l2-2.62-2-2.63a3.7,3.7,0,0,1,2.86-6l.21,0,5.9.22-1.58-5.69a3.87,3.87,0,0,1-.14-1,3.73,3.73,0,0,1,2.43-3.48l7.51-2.77L669,483.72a3.69,3.69,0,0,1,1.67-6.64l3.48-.49.23-3.5c.07-1,.13-2,.19-3l.07-1.27-.63-1.11a3.68,3.68,0,0,1,.21-4l.73-1,.06-1.26c.06-1.21.12-2.42.19-3.65l.23-4.38-4.38-.16a3.7,3.7,0,0,1-.5-7.34l8.14-1.42-5.82-5.86a3.71,3.71,0,0,1,1.18-6l4.56-1.95L676,426.44a3.61,3.61,0,0,1-.54-1.91,3.72,3.72,0,0,1,1.38-2.88l5.62-4.56-6.68-2.77a3.71,3.71,0,0,1,1.42-7.14,3.76,3.76,0,0,1,1.4.28l3.5,1.43L684,405.6a3.7,3.7,0,0,1,2.57-1.81l1.78-.31,1-1.49.7-1,2.43-3.48L689,395a3.67,3.67,0,0,1-1.55-3,3.7,3.7,0,0,1,5.62-3.17l3.7,2.25,2.23-3.71c2.94-4.9,5.57-9.79,9.21-16.55l.87-1.61c2.42-4.49,10-10.14,18-16.12,11.38-8.49,24.28-18.11,30.69-30,4.56-8.42,8.24-9.08,12.58-9.08,1.29,0,2.7.08,4.19.17,1.77.11,3.59.23,5.6.23a38.37,38.37,0,0,0,14.22-2.56c9.24-3.57,33.12-6.48,58.39-9.56,23-2.8,46.74-5.7,64.37-9.58a119.6,119.6,0,0,1,25.23-2.36v-4.31m0,0a123.26,123.26,0,0,0-26.16,2.46c-37.4,8.23-105.14,12.28-123.38,19.32a34,34,0,0,1-12.67,2.27c-3.58,0-6.8-.4-9.79-.4-6,0-11.1,1.62-16.37,11.35-10.65,19.67-42.18,34-48.7,46.09-4,7.43-6.87,12.78-10,18A7.89,7.89,0,0,0,691.2,384a8,8,0,0,0-4.68,14.52l-.72,1a8,8,0,0,0-5.56,3.93,8,8,0,0,0-6.1,14.83,8,8,0,0,0-1.82,10.37,8,8,0,0,0-2.54,13,8,8,0,0,0,1.08,15.9q-.09,1.85-.18,3.66a8,8,0,0,0-.45,8.59q-.09,1.52-.18,3a8,8,0,0,0-3.63,14.39,8,8,0,0,0-4.95,9.67l-.3,0a8,8,0,0,0-6.36,12.9,7.89,7.89,0,0,0-1.59,3.87h-.07a8,8,0,0,0-3.4,15.28,8,8,0,0,0-1.32,8.86A8,8,0,0,0,645,551.46a8,8,0,0,0,3.79,13.8,8,8,0,0,0-1.13,4.09v.08h0A8,8,0,1,0,650.39,585c0,.24,0,.49,0,.74a8,8,0,0,0,1.07,4,8,8,0,0,0,0,15.66,30,30,0,0,0,.37,3.5L849.6,628l262.58-48.13s128.07-61.51,129.5-62.23,12.48-24.45,12.48-24.45-4.93-4.27-10.19-9.42a7.91,7.91,0,0,0,1.51-4.66,8,8,0,0,0-6-7.75,8,8,0,0,0-6.65-12.51c-.33,0-.66,0-1,.06a8,8,0,0,0-4.2-5.37c-.28-1-.56-2-.83-3a8,8,0,0,0-2.75-12l0-.19c-.28-1.94-.42-4.19-.55-6.58a8,8,0,0,0-1.78-15.09,23.33,23.33,0,0,0-1-3,8,8,0,0,0-7.5-10.85,7.7,7.7,0,0,0-1.67.18c0-.06,0-.12,0-.18a8,8,0,0,0-7.88-8q-1.59-2.26-3-4.78a8,8,0,0,0-3.51-13.92,7,7,0,0,0,.06-.92,8,8,0,0,0-5.84-7.71c-.07-.19-.15-.38-.22-.56a8,8,0,1,0-7-14,7.91,7.91,0,0,0-1.24-3.49,8,8,0,0,0-1.89-9.72c-.11-.66-.24-1.33-.39-2a8,8,0,0,0,2-5.31c0-.6-.31-.82-.8-.82-1.44,0-4.46,1.82-6.34,1.82a1.68,1.68,0,0,1-1-.28c1-1.35-3-2.17-3-4,0-.82-.84-.95-1.88-.95-.49,0-1,0-1.54,0a2.65,2.65,0,0,1-2.1-.59c.17-.22.2-.3.13-.3-.3,0-2.21,1.35-3.14,1.35-.31,0-.51-.15-.51-.54,0-2.09-.36-2.64-1.19-2.64s-2.5.7-4.84.7a8,8,0,0,0-7,4.09,8,8,0,0,0-5.41-2.12,7.85,7.85,0,0,0-2.63.45l-2.61-.78a8,8,0,0,0-12.19-6.5,8,8,0,0,0-14.21-3.08l-2.64-.93v-.08a8,8,0,0,0-8-8c-2.73,0-6.61,8.37-8.06,10.46-7.7-2.2-26.81-15.32-36.89-17.13-34.85-6.25-78.93-16.51-114.34-16.51Z" transform="translate(-525.52 -233.52)"/><path class="cls-6" d="M996.41,338.63a3.12,3.12,0,0,1,2.33.38l-2.64-7c3.58-.23,7.11-4.14,8.29-9.48s-.41-10.32-3.57-12l5.34-5.32a3.13,3.13,0,0,1-2.29-.59c-1.09-.88-1.44-1.72-3.51-1.23a3.94,3.94,0,0,1-3.34-.65c-.44-.27.77,5.26,1.21,7.22-3.62.16-7.2,4.09-8.39,9.49s.44,10.42,3.67,12c-1.23,1.61-4.65,6.15-4.14,6.08a4,4,0,0,1,3.32.75C994.37,339.62,995.05,339,996.41,338.63Z" transform="translate(-525.52 -233.52)"/><polygon class="cls-7" points="230.53 117.84 211.17 129.1 218.25 141.85 235.73 129.85 230.53 117.84"/><polygon class="cls-8" points="244.7 125.97 235.73 129.85 238.56 155.33 248.53 149.67 244.7 125.97"/><polygon class="cls-9" points="358.36 125.97 321.69 141.85 325.47 149.67 361.48 135.44 358.36 125.97"/><polygon class="cls-10" points="422.37 64.14 425.01 95.83 436.56 92.99 432.56 60.87 422.37 64.14"/><polygon class="cls-8" points="609.27 71.23 596.65 74.64 599.35 87.58 620.66 82.09 615.98 71.23 609.27 71.23"/><polygon class="cls-11" points="556.64 55.6 523.19 55.6 523.83 65.89 558.67 65.89 556.64 55.6"/><polygon class="cls-11" points="585.71 57.13 571.4 61.16 576.54 77.46 590.27 73.67 585.71 57.13"/><rect class="cls-12" x="401.19" y="71.43" width="9.99" height="17.84"/><polygon class="cls-13" points="182.49 219.03 164.41 223.59 164.41 239.22 185.76 233.06 182.49 219.03"/><circle class="cls-14" cx="446.51" cy="55.39" r="6.76"/><circle class="cls-15" cx="561.01" cy="72.54" r="8.62"/><circle class="cls-13" cx="345.19" cy="85.18" r="8.15"/><circle class="cls-16" cx="311.73" cy="47.86" r="8.03"/><path class="cls-17" d="M1215.08,373.61S1219,361.68,1202.5,357s-16.93,2.41-16.93,2.41" transform="translate(-525.52 -233.52)"/><path class="cls-17" d="M1181.69,338.84s13.38,5.19,14.61,16.55" transform="translate(-525.52 -233.52)"/><path class="cls-17" d="M1103.58,274.19s20,4.54,20,16.51" transform="translate(-525.52 -233.52)"/><path class="cls-18" d="M947.29,289.86s-20.61-12.2-27.8-7.48S914.37,302,914.37,302s-23.3-13.23-31.14-8.36" transform="translate(-525.52 -233.52)"/><path class="cls-18" d="M856.18,359.48s1.49-18.12-16.26-17.17-16.17,9-16.17,9-13.13-32.92-33.81-17.67-7.12,17.67-7.12,17.67" transform="translate(-525.52 -233.52)"/><path class="cls-18" d="M1054.61,282s-7.52-16.55-22.56-7.08-9.72,15.78-9.72,15.78-27.51-22.36-38.14,1,2.39,18.91,2.39,18.91" transform="translate(-525.52 -233.52)"/><polygon class="cls-19" points="494.74 74.52 489.59 85.05 491.23 86.68 496.38 76.15 494.74 74.52"/><polygon class="cls-19" points="497.02 76.8 491.87 87.33 493.5 88.95 498.66 78.42 497.02 76.8"/><polygon class="cls-19" points="501.99 81.75 496.84 92.28 498.48 93.91 503.63 83.38 501.99 81.75"/><polygon class="cls-19" points="478.55 74.04 479 74.49 479.84 72.79 478.55 74.04"/><polygon class="cls-19" points="489.77 69.56 484.62 80.1 486.25 81.72 491.4 71.19 489.77 69.56"/><polygon class="cls-19" points="487.49 67.29 482.34 77.82 483.98 79.45 489.12 68.92 487.49 67.29"/><polygon class="cls-19" points="505.91 85.65 504.27 84.02 499.14 94.53 503.75 90.06 505.91 85.65"/><polygon class="cls-20" points="486.52 66.32 479.84 72.79 479 74.49 482.34 77.82 487.49 67.29 486.52 66.32"/><polygon class="cls-20" points="491.4 71.19 486.25 81.72 489.59 85.05 494.74 74.52 491.4 71.19"/><polygon class="cls-20" points="498.66 78.42 493.5 88.95 496.84 92.28 501.99 81.75 498.66 78.42"/><polygon class="cls-20" points="507.09 86.83 505.91 85.65 503.75 90.06 507.09 86.83"/><polygon class="cls-21" points="503.63 83.38 498.48 93.91 499.12 94.55 499.14 94.53 504.27 84.02 503.63 83.38"/><polygon class="cls-21" points="496.38 76.15 491.23 86.68 491.87 87.33 497.02 76.8 496.38 76.15"/><polygon class="cls-21" points="489.12 68.92 483.98 79.45 484.62 80.1 489.77 69.56 489.12 68.92"/><polyline class="cls-20" points="482.79 69.9 480.95 59.41 478.08 59.55 478.1 62.28 475.06 62.43 475.32 65.41 472.37 65.3 472.55 68.37 482.79 69.9"/><polyline class="cls-20" points="503.05 90.77 513.42 92.85 513.22 95.74 510.51 95.66 510.3 98.72 507.34 98.39 507.38 101.37 504.34 101.11 503.05 90.77"/><path class="cls-22" d="M922.07,632.27c-3.88,0-78.45-.8-154.44-5.11-58.36-3.31-157.84-11.23-168.38-27.13a3.69,3.69,0,0,1-.42-3.73c8.66-21,8.48-28.47,8.37-33.42-.08-3.26-.11-4.89,2.87-9.21,3.38-4.89,15.71-15.29,27.64-25.36,2.81-2.37,5.63-4.75,8.37-7.08l1.44-1.23-1.26-1.41a8.06,8.06,0,0,1,3.06-12.9l.81-.31.27-.83a8.13,8.13,0,0,1,5.81-5.34l3.56-.84L657,496a8.08,8.08,0,0,1,5.23-14.24,8.21,8.21,0,0,1,1.23.1l1.21.19.64-1a8,8,0,0,1,6.85-3.81h.26l2.94.17-.9-2.61a8,8,0,0,1-.45-2.63,8.1,8.1,0,0,1,8.08-8.09,7.82,7.82,0,0,1,1.28.12l1.27.2.63-1.13,4.24-7.54,1-1.75-1.83-.84A8.08,8.08,0,0,1,694.36,438l2.51.77s-.14-2.92-.14-3a8.09,8.09,0,0,1,8.08-8.08H705l2.4.07-.54-2.34a7.92,7.92,0,0,1-.23-1.84,8.08,8.08,0,0,1,13.48-6l.89.81,1.1-.5c2.09-.94,4.42-1.92,7.35-3.08l2.23-.9-1.44-1.93a8.07,8.07,0,0,1,6.48-12.9,8.11,8.11,0,0,1,7.74,5.78l.75,2.53,2.12-1.57a8,8,0,0,1,4.8-1.59,8.17,8.17,0,0,1,2.1.29l.56.15.54-.19c.83-.3,1.73-.58,2.75-.85l1.28-.36.07-1.33a8.07,8.07,0,0,1,15.9-1.49l.77,3.13,2.31-2.23a8.07,8.07,0,0,1,10.69-.47l2.12,1.72.81-2.61a8.09,8.09,0,0,1,15.81,2.39v1.85h1.85a8.07,8.07,0,0,1,3.95,1l1.88,1.06.76-2a8.07,8.07,0,0,1,15.18.19l.57,1.65,1.68-.48.2-.05.4-.11c1.83-.56,3.75-1.24,5.87-2.1l1.07-.44.07-1.15a8.06,8.06,0,0,1,12.26-6.33l1,.59,3.12-1.92-1.41-1.64a8.08,8.08,0,1,1,12.79-9.84l3.82,5.53-.46-6.83c0-.15,0-.29,0-.43a8.09,8.09,0,0,1,8.08-8.09,8.26,8.26,0,0,1,1.94.25l1,.25.74-.74a113.23,113.23,0,0,0,13.47-16.06l.93-1.38-1.27-1.07A8.08,8.08,0,0,1,907,341.23l3.69,2.44-.85-4.34a7.58,7.58,0,0,1-.16-1.56,8.08,8.08,0,0,1,16.14-.42l.22,4.23,3-3a8,8,0,0,1,5.78-2.45h1.85v-1.85a8.09,8.09,0,0,1,8.09-8.08c.22,0,.43,0,.65,0l2,.16v-2.1A8.08,8.08,0,0,1,962,319.71l.65.93,1.12-.15,1.27-.16.21-.08a8,8,0,0,1,2.76-.5,8.24,8.24,0,0,1,1.44.14l.21,0h.22c1.91-.11,4-.16,6.16-.16h2.48l.57-.67a8,8,0,0,1,11.54-.82l2,1.77,1-2.49a8.07,8.07,0,0,1,15.61,2.9c0,.1,0,.17,0,.24l0,1.66,4.28.56.65-.68a8.06,8.06,0,0,1,13,1.79l.45.83,5.8.81.58-1.24a8.1,8.1,0,0,1,7.32-4.69,8,8,0,0,1,6.45,3.24l1.48,2,1.48-2a8.06,8.06,0,0,1,14.51,4.33l.11,1.7,1.7,0,2.21,0c1.39,0,2.74,0,4-.1l.7,0,.5-.49a8.06,8.06,0,0,1,9.91-1.06l2.26,1.41.54-2.61a8.08,8.08,0,1,1,13.89,7.06l-2.13,2.34,3.09.71a8.07,8.07,0,0,1,4.94,12.3l-.78,1.2,1,1.06a50.49,50.49,0,0,0,5.23,5l2.11,1.74.83-2.61a8.08,8.08,0,1,1,12.72,8.79l-1.93,1.54,2.18,1.54.38.26.51.09a8.09,8.09,0,0,1,4.78,2.31l1.31,1.32,1.31-1.32a8.09,8.09,0,0,1,13.81,5.71,7.94,7.94,0,0,1-.37,2.42l-.5,1.58,1.53.67a7.05,7.05,0,0,1,.82.42l.92.53.93-.54a8.07,8.07,0,0,1,10.91,11.23l-1.81,2.94,3.45-.12.23,0a8.09,8.09,0,0,1,7.87,6l.79,2.91,2.24-2a8.07,8.07,0,0,1,12,10.61l-1.41,2,2.33.8a8,8,0,0,1,4.48,3.74l.88,1.57,1.6-.83a8.08,8.08,0,0,1,10.72,11.19l-1,1.81,1.91.82a8.11,8.11,0,0,1,4.76,9.06l-.13.62.29.57a60.35,60.35,0,0,1,2.91,6.88l.12.33.23.26a8.11,8.11,0,0,1,2,5.27,8,8,0,0,1-.11,1.2l0,.35.08.34c.69,3,1.18,5.84,1.66,8.6,1.62,9.4,3,17.55,11,24.15l-.33,92.84ZM665.91,497a8.27,8.27,0,0,1-1.84.68l-3.56.84,2.79,2.37a8.52,8.52,0,0,1,.81.79l1.46,1.65,1.37-1.73a16.81,16.81,0,0,0,1.41-2l3.26-5.53Z" transform="translate(-525.52 -233.52)"/><path class="cls-23" d="M1001.15,314.24a6.24,6.24,0,0,1,6.23,6.16c0,.08,0,.16,0,.24l-.1,3.35,3.32.43,1.7.22,1.86.25,1.29-1.36a6.22,6.22,0,0,1,10,1.38l.89,1.66,1.86.26,3.52.49,2.71.38,1.15-2.48a6.22,6.22,0,0,1,10.63-1.12l3,3.93,3-3.93a6.21,6.21,0,0,1,11.18,3.34l.22,3.39,3.4.07,2.26,0c1.42,0,2.79,0,4.09-.1l1.4-.06,1-1a6.21,6.21,0,0,1,7.64-.82l4.52,2.83,1.07-5.22A6.23,6.23,0,1,1,1099.6,332l-4.25,4.68,6.16,1.41a6.22,6.22,0,0,1,3.81,9.49l-1.57,2.38,1.92,2.13a51.1,51.1,0,0,0,5.42,5.2l4.22,3.49,1.67-5.21a6.23,6.23,0,1,1,9.8,6.77l-3.91,3.11,4.11,2.83.1.07.11.07.75.53.92.1a6.26,6.26,0,0,1,3.68,1.79l2.62,2.63,2.62-2.63a6.24,6.24,0,0,1,10.37,6.26l-1,3.17,3,1.33a6.53,6.53,0,0,1,.63.33l1.85,1.07,1.86-1.07a6.11,6.11,0,0,1,3.11-.85,6.25,6.25,0,0,1,6.23,6.24,6.16,6.16,0,0,1-.93,3.25l-3.64,5.9,6.93-.26h.28a6.23,6.23,0,0,1,6,4.61l1.57,5.83,4.48-4.05a6.23,6.23,0,0,1,9.28,8.18l-2.83,4,4.67,1.59a6.27,6.27,0,0,1,3.46,2.88l1.74,3.16,3.2-1.67a6.22,6.22,0,0,1,9.09,5.53,6.16,6.16,0,0,1-.83,3.1l-2.08,3.62,3.84,1.63a6.23,6.23,0,0,1,3.79,5.74,6.54,6.54,0,0,1-.12,1.25l-.26,1.25.57,1.14a56.78,56.78,0,0,1,2.83,6.67l.23.65.45.53a6.19,6.19,0,0,1,1.52,4.05,7.14,7.14,0,0,1-.08.94l-.11.69.16.68c.67,2.94,1.16,5.77,1.63,8.5,1.58,9.11,3.07,17.74,11,24.69l-.33,90.41L921.94,630.42c-5.36-.06-79.1-.84-154.22-5.1-45.53-2.59-82.62-5.92-110.27-9.91-44.05-6.36-54.41-13-56.66-16.4a1.85,1.85,0,0,1-.25-2c8.81-21.35,8.63-29.07,8.51-34.17-.07-3.13-.1-4.3,2.55-8.12,3.23-4.68,15.47-15,27.3-25,2.81-2.38,5.64-4.76,8.38-7.1l2.88-2.45-2.53-2.83a6.2,6.2,0,0,1,2.37-9.93l1.61-.64.55-1.65a6.25,6.25,0,0,1,4.48-4.12l3.07-.73,2.39,2a5.91,5.91,0,0,1,.63.61l2.93,3.3,2.73-3.47a18.21,18.21,0,0,0,1.55-2.22l6.52-11.06-11.4,5.9a6.8,6.8,0,0,1-1.41.52l-3.08.72-2.39-2a6.23,6.23,0,0,1,4-11,5.86,5.86,0,0,1,.95.08l2.41.37,1.29-2.06a6.2,6.2,0,0,1,5.27-2.94h.36l5.5.3-1.8-5.2a6.21,6.21,0,0,1,5.88-8.27,6.36,6.36,0,0,1,1,.09l2.55.41,1.26-2.25c1.41-2.54,2.83-5.06,4.23-7.54l2-3.51-3.67-1.67a6.23,6.23,0,0,1,2.58-11.9,6.34,6.34,0,0,1,1.83.27l5,1.53-.23-5.23c0-.08,0-.16,0-.25v-.05a6.24,6.24,0,0,1,6.16-6.2H705l4.79.13-1.09-4.67a6,6,0,0,1-.18-1.42,6.24,6.24,0,0,1,6.24-6.23,6.16,6.16,0,0,1,4.15,1.6l1.79,1.61,2.2-1c2.07-.93,4.38-1.9,7.27-3l4.48-1.79L731.75,411a6.22,6.22,0,0,1,5-9.95,6.27,6.27,0,0,1,6,4.45l1.5,5.07,4.24-3.14a6.14,6.14,0,0,1,3.7-1.23,6.64,6.64,0,0,1,1.62.22l1.11.3,1.09-.38c.78-.28,1.64-.54,2.62-.81l2.57-.71.14-2.66A6.22,6.22,0,0,1,773.56,401l1.54,6.25,4.63-4.46a6.2,6.2,0,0,1,8.23-.36l4.25,3.44,1.62-5.22A6.23,6.23,0,0,1,806,402.45v3.7h3.7a6.14,6.14,0,0,1,3,.8l3.76,2.12,1.52-4a6.22,6.22,0,0,1,11.7.15l1.15,3.3,3.36-1,.15,0,.47-.13c1.9-.57,3.87-1.28,6-2.16l2.14-.87.16-2.3a6.2,6.2,0,0,1,9.44-4.88l1.94,1.18,1.94-1.19.12-.08.2-.12,3.66-2.27-2.8-3.28a6.12,6.12,0,0,1-1.5-4,6.23,6.23,0,0,1,11.36-3.54l7.64,11.07-.91-13.42v-.12c0-.11,0-.21,0-.31a6.17,6.17,0,0,1,7.73-6l2,.5,1.48-1.49a114.08,114.08,0,0,0,13.7-16.33l1.86-2.76-2.56-2.14a6.23,6.23,0,0,1,7.42-10l7.37,4.88L911.6,339a6.36,6.36,0,0,1-.12-1.21,6.23,6.23,0,0,1,12.45-.32l.43,8.46,5.91-6.07a6.18,6.18,0,0,1,4.46-1.89h3.7v-3.7a6.24,6.24,0,0,1,6.24-6.23l.5,0,4,.32v-4.15h0a6.23,6.23,0,0,1,11.35-3.44l1.29,1.85,2.25-.3,1-.13.42-.05.41-.15a6.12,6.12,0,0,1,2.13-.39,6.41,6.41,0,0,1,1.11.11l.43.08.43,0c1.88-.1,3.92-.15,6.06-.15h1.59l1.75,0,1.12-1.34a6.2,6.2,0,0,1,8.9-.63l4,3.55,1.92-5a6.2,6.2,0,0,1,5.81-4m0-3.7a9.91,9.91,0,0,0-9.26,6.36,9.9,9.9,0,0,0-14.19,1h-1.63q-3.24,0-6.26.16a10.31,10.31,0,0,0-1.77-.17,9.86,9.86,0,0,0-3.4.62l-1.09.13a9.93,9.93,0,0,0-18.09,5.67s0,0,0,0c-.27,0-.53,0-.8,0a9.93,9.93,0,0,0-9.94,9.93,9.86,9.86,0,0,0-7.11,3,9.93,9.93,0,0,0-19.84.51,10.08,10.08,0,0,0,.19,1.92,9.93,9.93,0,0,0-11.83,15.91,110.87,110.87,0,0,1-13.25,15.79A9.87,9.87,0,0,0,870.57,381c0,.23,0,.45,0,.68a9.93,9.93,0,1,0-15.71,12.09l-.32.19a9.91,9.91,0,0,0-15.06,7.78c-1.94.79-3.85,1.49-5.71,2.05-.19.06-.38.1-.57.15a9.92,9.92,0,0,0-18.65-.23,9.9,9.9,0,0,0-4.86-1.28,9.94,9.94,0,0,0-19.43-2.94,9.92,9.92,0,0,0-13.13.57,9.92,9.92,0,0,0-19.54,1.83c-1,.27-1.93.56-2.88.89a9.84,9.84,0,0,0-8.48,1.6,9.93,9.93,0,1,0-17.47,8.76c-2.6,1-5.08,2.06-7.42,3.11a9.91,9.91,0,0,0-16.29,9.65h-.27a9.94,9.94,0,0,0-9.93,9.93c0,.15,0,.29,0,.43a9.93,9.93,0,0,0-7,18.53c-1.4,2.48-2.83,5-4.24,7.55a10.07,10.07,0,0,0-1.57-.14,9.92,9.92,0,0,0-9.38,13.18c-.18,0-.36,0-.55,0a9.92,9.92,0,0,0-8.42,4.68,9.42,9.42,0,0,0-1.51-.13,9.93,9.93,0,0,0-6.42,17.5,10,10,0,0,0-7.15,6.56,9.91,9.91,0,0,0-3.76,15.85c-14.74,12.57-32,26.55-36.33,32.79-7.91,11.45,3.26,7.37-11.43,43s325.09,38.52,325.09,38.52L1233,585l.35-95.3c-10.37-8.09-9.61-18.87-12.7-32.28a9.17,9.17,0,0,0,.13-1.49,9.88,9.88,0,0,0-2.41-6.47,62.2,62.2,0,0,0-3-7.08,10.1,10.1,0,0,0,.2-2,9.92,9.92,0,0,0-6-9.14,9.93,9.93,0,0,0-13.18-13.76,10,10,0,0,0-5.5-4.6,9.92,9.92,0,0,0-14.79-13,9.93,9.93,0,0,0-9.58-7.35l-.37,0a9.92,9.92,0,0,0-13.42-13.8c-.32-.18-.66-.36-1-.51a10.07,10.07,0,0,0,.45-3,9.93,9.93,0,0,0-17-7,9.9,9.9,0,0,0-5.87-2.85l-.21-.14a9.93,9.93,0,1,0-15.63-10.8,47.29,47.29,0,0,1-5-4.83,9.92,9.92,0,0,0-6.08-15.12,9.93,9.93,0,1,0-17.07-8.68,9.92,9.92,0,0,0-12.19,1.31c-1.25.06-2.56.09-3.91.09l-2.18,0a9.92,9.92,0,0,0-17.84-5.32,9.9,9.9,0,0,0-16.93,1.78l-3.52-.49a9.91,9.91,0,0,0-15.93-2.2l-1.7-.22c0-.09,0-.19,0-.28a9.92,9.92,0,0,0-9.93-9.93ZM665.49,500.47a11.33,11.33,0,0,0-1-1,9.89,9.89,0,0,0,2.26-.84,16.15,16.15,0,0,1-1.27,1.81Z" transform="translate(-525.52 -233.52)"/><polygon class="cls-19" points="684.54 223.1 673.51 219.12 672.07 220.92 683.09 224.9 684.54 223.1"/><polygon class="cls-19" points="682.52 225.61 671.49 221.63 670.05 223.43 681.08 227.41 682.52 225.61"/><polygon class="cls-19" points="678.13 231.09 667.11 227.11 665.67 228.91 676.69 232.89 678.13 231.09"/><polygon class="cls-19" points="683.26 206.94 682.86 207.45 684.64 208.09 683.26 206.94"/><polygon class="cls-19" points="688.92 217.62 677.9 213.64 676.46 215.44 687.48 219.42 688.92 217.62"/><polygon class="cls-19" points="690.93 215.1 679.91 211.13 678.47 212.93 689.5 216.9 690.93 215.1"/><polygon class="cls-19" points="674.68 235.4 676.12 233.6 665.13 229.64 670.06 233.73 674.68 235.4"/><polygon class="cls-20" points="691.79 214.03 684.64 208.09 682.86 207.45 679.91 211.13 690.93 215.1 691.79 214.03"/><polygon class="cls-20" points="687.48 219.42 676.46 215.44 673.51 219.12 684.54 223.1 687.48 219.42"/><polygon class="cls-20" points="681.08 227.41 670.05 223.43 667.11 227.11 678.13 231.09 681.08 227.41"/><polygon class="cls-20" points="673.64 236.7 674.68 235.4 670.06 233.73 673.64 236.7"/><polygon class="cls-21" points="676.69 232.89 665.67 228.91 665.1 229.62 665.13 229.64 676.12 233.6 676.69 232.89"/><polygon class="cls-21" points="683.09 224.9 672.07 220.92 671.49 221.63 682.52 225.61 683.09 224.9"/><polygon class="cls-21" points="689.5 216.9 678.47 212.93 677.9 213.64 688.92 217.62 689.5 216.9"/><polyline class="cls-20" points="687.84 210.71 698.07 207.75 697.61 204.91 694.9 205.22 694.42 202.21 691.49 202.81 691.27 199.85 688.24 200.37 687.84 210.71"/><polyline class="cls-20" points="669.28 233.12 668.34 243.65 665.45 243.76 665.23 241.06 662.16 241.18 662.18 238.21 659.22 238.57 659.14 235.52 669.28 233.12"/><polygon class="cls-24" points="579.19 101.94 560.68 108.79 564.46 117.84 588.14 112.67 579.19 101.94"/><polygon class="cls-25" points="660.01 160.14 651.99 166.91 661.43 189.14 670.47 181.32 660.01 160.14"/><polygon class="cls-26" points="405.22 176.88 392.8 176.57 390.11 193.26 402.75 193.26 405.22 176.88"/><polygon class="cls-27" points="617.03 163.3 598.42 163.3 597.74 173.88 619.07 173.88 617.03 163.3"/><polygon class="cls-26" points="248.53 236.57 233.37 237.27 230.63 258.32 243.32 258.32 248.53 236.57"/><circle class="cls-28" cx="353.33" cy="209.14" r="8.15"/><circle class="cls-29" cx="532.64" cy="137.59" r="8.36"/><path class="cls-30" d="M823.75,430.16S814.93,421,809,428.9c0,0-9.1-14.67-20.92-3.24,0,0-16.24-7.53-13.72,12.18" transform="translate(-525.52 -233.52)"/><polygon class="cls-19" points="610.83 131.37 618.64 128.21 618.52 126.55 610.72 129.71 610.83 131.37"/><polygon class="cls-19" points="610.67 129.05 618.48 125.89 618.36 124.24 610.55 127.39 610.67 129.05"/><polygon class="cls-19" points="610.32 124 618.12 120.84 618.01 119.19 610.2 122.34 610.32 124"/><polygon class="cls-19" points="619.42 139.44 619.39 138.97 618.13 139.48 619.42 139.44"/><polygon class="cls-19" points="611.19 136.42 618.99 133.26 618.88 131.6 611.07 134.76 611.19 136.42"/><polygon class="cls-19" points="611.35 138.74 619.16 135.58 619.04 133.92 611.23 137.08 611.35 138.74"/><polygon class="cls-19" points="610.04 120.03 610.15 121.68 617.94 118.53 613.31 118.7 610.04 120.03"/><polygon class="cls-6" points="611.42 139.73 618.13 139.48 619.39 138.97 619.16 135.58 611.35 138.74 611.42 139.73"/><polygon class="cls-6" points="611.07 134.76 618.88 131.6 618.64 128.21 610.83 131.37 611.07 134.76"/><polygon class="cls-6" points="610.55 127.39 618.36 124.24 618.12 120.84 610.32 124 610.55 127.39"/><polygon class="cls-6" points="609.96 118.82 610.04 120.03 613.31 118.7 609.96 118.82"/><polygon class="cls-21" points="610.2 122.34 618.01 119.19 617.96 118.53 617.94 118.53 610.15 121.68 610.2 122.34"/><polygon class="cls-21" points="610.72 129.71 618.52 126.55 618.48 125.89 610.67 129.05 610.72 129.71"/><polygon class="cls-21" points="611.23 137.08 619.04 133.92 618.99 133.26 611.19 136.42 611.23 137.08"/><polyline class="cls-6" points="615.15 139.61 611.17 146.11 612.8 147.42 614.09 145.95 615.81 147.34 617.08 145.61 618.64 147.1 620 145.36 615.15 139.61"/><polyline class="cls-6" points="614.02 118.66 609.36 112.55 610.85 111.1 612.29 112.44 613.86 110.91 615.3 112.51 616.7 110.9 618.23 112.5 614.02 118.66"/><path class="cls-30" d="M1162.15,394.26c-4-6.93-9.8-11.15-15.72-11.24,0,0,5.81-10.17-9.5-15.21s-16.27,3.78-16.27,3.78" transform="translate(-525.52 -233.52)"/><path class="cls-30" d="M1055.12,350s.94-11.76-11.62-8.61-7.57,10-7.57,10,5.22-19.43-14.69-17.55-17.66,17.55-17.66,17.55-18.83-9.65-28.17,8.13" transform="translate(-525.52 -233.52)"/><path class="cls-30" d="M899.3,418.19s-11.63-15.72-30.84-2.51" transform="translate(-525.52 -233.52)"/><path class="cls-31" d="M1046.05,425.39s4.93-12.71-3.2-15-19.47,8.7-13.17,13.91c0,0-16.94-20.21-26.1-10s0,19.76,0,19.76" transform="translate(-525.52 -233.52)"/><path class="cls-30" d="M1062.11,431.25s-12.75-12.58-27.87-4.48" transform="translate(-525.52 -233.52)"/><path class="cls-18" d="M1074.72,289.21s-12.75-12.58-27.86-4.48" transform="translate(-525.52 -233.52)"/><path class="cls-30" d="M851,466.9s.4-13.21-13.73-6.79-6.13,8.7-6.13,8.7" transform="translate(-525.52 -233.52)"/><polyline class="cls-32" points="361.48 250.6 361.48 240.63 345.19 239.52 345.19 251.65"/><polyline class="cls-31" points="512.04 149.67 512.04 135.44 492.3 137.82 491.57 149.67"/><polyline class="cls-33" points="485.2 165.24 490.57 158.14 505.3 162.18 496.82 175.66"/><polyline class="cls-34" points="467.89 175.87 456.44 154.61 467.89 146.77 482.06 164.34"/><polyline class="cls-26" points="643.02 196.06 643.76 180.78 629.44 180.78 626.33 196.06"/><polyline class="cls-28" points="219.69 261 203.13 267.15 214.89 285.57 233.37 280.18"/><polygon class="cls-35" points="421.49 557.81 411.89 523.86 439.79 520.56 446.93 554.61 421.49 557.81"/><path class="cls-36" d="M972.53,790.49c-.52,6.11-6.71,10.58-13.82,10s-12.44-6.06-11.92-12.18,6.71-10.58,13.82-10S973.06,784.37,972.53,790.49Z" transform="translate(-525.52 -233.52)"/><polygon class="cls-37" points="17.44 433.39 12.77 418.98 8.74 384.8 13.99 363.19 17.44 359.94 29.39 363.19 30.54 388.27 17.44 433.39"/><path class="cls-37" d="M683.84,714.88c2.61,5.71,12.18,29.67,12.18,29.67-1.11-9.9-2.57-21.32,8.84-23.76l51.64-107H696.14L673.41,662Z" transform="translate(-525.52 -233.52)"/><path class="cls-38" d="M1360,642.92c-22.62,4-38.43,3.58-38.43,3.58l24.05,35c4-.58,9.45-1.55,14.33-2.46A83,83,0,0,0,1360,642.92Z" transform="translate(-525.52 -233.52)"/><path class="cls-39" d="M1366.67,677.72a105.27,105.27,0,0,0-1.1-35.85c1.3-.26,2.61-.53,3.94-.82-.31-.87-.64-1.75-1-2.61-28.1,5.74-56.25,5.74-56.25,5.74l32.18,40a233.87,233.87,0,0,0,25.54-5.26c.13-.59.26-1.22.4-1.88Zm-21,3.73-24.05-35s15.81.43,38.43-3.58a83,83,0,0,1,0,36.07C1361.81,678.65,1351.18,680.65,1345.65,681.45Z" transform="translate(-525.52 -233.52)"/><path class="cls-40" d="M1369.51,641.05c-1.33.29-2.64.56-3.94.82a105.27,105.27,0,0,1,1.1,35.85l3.69-.72C1372.14,668.31,1374.15,654.07,1369.51,641.05Z" transform="translate(-525.52 -233.52)"/><path class="cls-41" d="M1305.83,582.06l12.69,62.23q6-.37,11.57-.76a290.38,290.38,0,0,0,38.4-5.09C1351.36,618.81,1331,598,1305.83,582.06Z" transform="translate(-525.52 -233.52)"/><path class="cls-42" d="M1368.49,638.44c-3.76-10.75-37.84-56.24-65.82-71.89l3.16,15.51C1331,598,1351.36,618.81,1368.49,638.44Z" transform="translate(-525.52 -233.52)"/><path class="cls-43" d="M1158.45,295.19c.18.16.37.3.56.46C1158.82,295.5,1158.63,295.35,1158.45,295.19Z" transform="translate(-525.52 -233.52)"/><path class="cls-44" d="M1159,295.65c.33.26.65.54,1,.81Z" transform="translate(-525.52 -233.52)"/><path class="cls-45" d="M1022.44,240.29c-63.54-10.16-146-10.84-236.34,11.6C840.57,253.4,943.91,249.92,1022.44,240.29Z" transform="translate(-525.52 -233.52)"/><path class="cls-45" d="M769.87,256.21a40,40,0,0,0-9.32,4.7,68.57,68.57,0,0,0-8.2,6.42,132.18,132.18,0,0,0-14.18,15.26c-4.38,5.41-8.47,11.05-12.38,16.82S718.12,311,714.52,317q-10.8,17.92-20.48,36.5T675.26,391c-6.1,12.58-12,25.27-17.73,38s-11.4,25.54-17,38.34S629.39,493,623.91,505.89,613,531.67,607.29,544.48c9.35-26.41,19.14-52.67,29.7-78.63,5.22-13,10.73-25.9,16.32-38.76s11.5-25.58,17.54-38.24c12.24-25.23,25.26-50.17,40.44-73.85a286,286,0,0,1,25.06-33.95,127.78,127.78,0,0,1,15.13-14.75C757,261.91,763.05,258,769.87,256.21Z" transform="translate(-525.52 -233.52)"/><path class="cls-46" d="M536.56,587.45c-1.62,5.85-5.22,9.95-8.06,9.16s-3.82-6.16-2.21-12,5.23-9.94,8.06-9.16S538.18,581.61,536.56,587.45Z" transform="translate(-525.52 -233.52)"/><path class="cls-36" d="M565.53,751.7c16.07,2.14,50.49-.16,51.4-.51,12-4.61,21.58-39.57,22-82.11.41-45.74-10-82.93-23.23-83.05H567.48Z" transform="translate(-525.52 -233.52)"/><path class="cls-47" d="M590.89,669.08c-.41,45.75-11.48,82.74-24.72,82.62s-23.64-37.3-23.23-83.05,11.48-82.74,24.72-82.62S591.3,623.34,590.89,669.08Z" transform="translate(-525.52 -233.52)"/><path class="cls-48" d="M553.69,673.28c-.36-26.5,4.06-48.4,10.09-51.49-1.38-2.26-2.85-3.49-4.37-3.47-6.75.09-11.88,24.7-11.47,55s6.21,54.72,13,54.63c1.49,0,2.91-1.25,4.2-3.47C559,721.39,554.05,699.68,553.69,673.28Z" transform="translate(-525.52 -233.52)"/><path class="cls-49" d="M572.37,673c-.32-23.45-3.87-43.4-8.59-51.16-6,3.09-10.45,25-10.09,51.49s5.33,48.11,11.41,51.16C569.65,716.64,572.69,696.51,572.37,673Z" transform="translate(-525.52 -233.52)"/><path class="cls-50" d="M572.86,683.7c-.32,20.53-3.42,37.57-7.85,44.6-1.39,2.22-2.92,3.45-4.54,3.47-7.26.09-13.51-24.23-14-54.37,0,2.24,0,4.51,0,6.83.45,30.26,6.71,54.72,14,54.62,1.62,0,3.15-1.24,4.54-3.47,4.91-7.8,8.2-27.93,7.85-51.49Z" transform="translate(-525.52 -233.52)"/><path class="cls-51" d="M558.44,679.53A19.52,19.52,0,0,1,552,672.2a103.54,103.54,0,0,0,.79,15.56c1.78,13.51,5.9,19.73,9.29,14.06,2.21-3.7,3.6-11.62,3.86-20.55-.15-.36-.3-.74-.45-1.12A7.23,7.23,0,0,1,558.44,679.53Z" transform="translate(-525.52 -233.52)"/><path class="cls-51" d="M565.44,680.15c.15.38.3.76.45,1.12l0-1.34A5.11,5.11,0,0,1,565.44,680.15Z" transform="translate(-525.52 -233.52)"/><path class="cls-52" d="M558.6,676.89c-2.58-1.54-4.78-5.41-6.33-10.54-.16,1.88-.27,3.84-.32,5.85a19.52,19.52,0,0,0,6.49,7.33,7.23,7.23,0,0,0,7,.62c-.46-1.19-.9-2.48-1.33-3.87A4.37,4.37,0,0,1,558.6,676.89Z" transform="translate(-525.52 -233.52)"/><path class="cls-52" d="M565.86,674.23a9.83,9.83,0,0,1-1.75,2c.43,1.39.87,2.68,1.33,3.87a5.11,5.11,0,0,0,.48-.22C566,678.06,565.93,676.15,565.86,674.23Z" transform="translate(-525.52 -233.52)"/><path class="cls-53" d="M559.79,654.66q-.33-2.71-.6-5.48c-1.18-.48-2.38.2-3.51,2.2-1.69,3-2.87,8.54-3.41,15,1.55,5.13,3.75,9,6.33,10.54a4.37,4.37,0,0,0,5.51-.61A126.2,126.2,0,0,1,559.79,654.66Z" transform="translate(-525.52 -233.52)"/><path class="cls-53" d="M565.23,666.14c-1.16-9.72-3.53-15.94-6-17q.27,2.76.6,5.48a126.2,126.2,0,0,0,4.32,21.62,9.83,9.83,0,0,0,1.75-2C565.76,671.52,565.55,668.8,565.23,666.14Z" transform="translate(-525.52 -233.52)"/><path class="cls-51" d="M557.64,666.83c-.84,1.47-1.35,4.47-1.45,7.82,1.14-.48,3.21.06,5.39,2.9a41.4,41.4,0,0,0-.28-5.1C560.62,667,559,664.48,557.64,666.83Z" transform="translate(-525.52 -233.52)"/><path class="cls-52" d="M561.58,677.55c-2.18-2.84-4.25-3.38-5.39-2.9,0,.3,0,.6,0,.9,0,.72,0,1.45,0,2.19.79-1.2,1.77-1.63,2.78-1s1.85,2.08,2.43,4c.07-.71.12-1.46.14-2.23C561.57,678.21,561.57,677.88,561.58,677.55Z" transform="translate(-525.52 -233.52)"/><path class="cls-53" d="M556.21,677.74c0,1,.13,2.06.26,3.06.68,5.33,2.3,7.78,3.62,5.52a14.85,14.85,0,0,0,1.33-5.56c-.58-2-1.43-3.45-2.43-4S557,676.54,556.21,677.74Z" transform="translate(-525.52 -233.52)"/><path class="cls-54" d="M559.92,655.52v.12q.75,5.8,1.73,10.72a5.37,5.37,0,0,0,1.92,2.39C563.74,660.31,562,656.44,559.92,655.52Z" transform="translate(-525.52 -233.52)"/><path class="cls-53" d="M554.25,687.24c2,.9,3.73,4.59,3.6,12.59C555.54,698.45,554.2,693.5,554.25,687.24Z" transform="translate(-525.52 -233.52)"/><path class="cls-36" d="M1111.34,764.09c8.68,21.18,32.23,54,56.83,54,18.66,0,50.13-2.62,64-7.09,21.56-13.44,33.42-30.56,40.8-62.62Z" transform="translate(-525.52 -233.52)"/><path class="cls-55" d="M782.05,765.15c.5-9.72.53-19.95,0-30.5C779.19,673,759.43,623.81,738,624.82c-6.81.32-13,5.65-18.13,14.73C723.64,674.19,738.89,722.8,782.05,765.15Z" transform="translate(-525.52 -233.52)"/><path class="cls-47" d="M719.82,639.55c-11.1,19.58-17.51,56.63-15.54,98.75,2.89,61.66,22.65,110.84,44.14,109.83,17.81-.83,31.21-35.88,33.63-83C738.89,722.8,723.64,674.19,719.82,639.55Z" transform="translate(-525.52 -233.52)"/><path class="cls-56" d="M770.06,735.22c2,42.6-8.42,77.7-23.26,78.4s-28.49-33.28-30.49-75.88,8.42-77.71,23.26-78.4S768.06,692.61,770.06,735.22Z" transform="translate(-525.52 -233.52)"/><path class="cls-50" d="M747.55,819.34c-15.91.7-30.55-33.28-32.69-75.88-.06-1.13-.1-2.26-.14-3.38-.19,5.54-.16,11.29.14,17.19,2.14,42.6,16.78,76.58,32.69,75.88,15.49-.67,26.47-34,25.07-75C771.43,792.6,761.26,818.74,747.55,819.34Z" transform="translate(-525.52 -233.52)"/><path class="cls-57" d="M770.08,735.34c1.84,39.12-6.9,71.31-19.52,71.9s-24.32-30.64-26.15-69.76,6.9-71.31,19.52-71.9S768.25,696.22,770.08,735.34Z" transform="translate(-525.52 -233.52)"/><path class="cls-36" d="M748.42,848.13c21.48-1,36.55-51.81,33.66-113.48S759.43,623.81,738,624.82l-.35,0c30-2.77,77.91.2,79.66.78,19.34,6.47,36.18,52.52,38.83,109.07,2.69,57.48-10.22,105.53-29.38,112.6-1.4.52-53.29,4.21-79.87.86Z" transform="translate(-525.52 -233.52)"/><path class="cls-58" d="M765.13,735.61c1.3,27.71-5.66,50.54-15.53,51S730.66,765,729.36,737.29s5.66-50.54,15.53-51S763.83,707.91,765.13,735.61Z" transform="translate(-525.52 -233.52)"/><path class="cls-51" d="M741.43,741.14C736.48,739,732,735,728.1,729.92a124,124,0,0,0,2.17,24.22c4.07,21,12.6,30.56,19.2,21.64,4.32-5.84,6.82-18.22,7-32.14-.31-.55-.62-1.13-.93-1.72A18.29,18.29,0,0,1,741.43,741.14Z" transform="translate(-525.52 -233.52)"/><path class="cls-51" d="M755.55,741.92c.31.59.62,1.17.93,1.72,0-.69,0-1.38,0-2.08C756.19,741.7,755.87,741.8,755.55,741.92Z" transform="translate(-525.52 -233.52)"/><path class="cls-52" d="M741.66,737c-5.25-2.33-9.84-8.29-13.15-16.24-.24,2.94-.39,6-.41,9.13,3.85,5.08,8.38,9,13.33,11.22a18.29,18.29,0,0,0,14.12.78c-1-1.85-1.92-3.84-2.84-6A10.75,10.75,0,0,1,741.66,737Z" transform="translate(-525.52 -233.52)"/><path class="cls-52" d="M756.17,732.69a17.42,17.42,0,0,1-3.46,3.24c.92,2.15,1.87,4.14,2.84,6,.32-.12.64-.22,1-.36C756.49,738.64,756.38,735.67,756.17,732.69Z" transform="translate(-525.52 -233.52)"/><path class="cls-53" d="M743.23,702.36c-.52-2.81-1-5.65-1.41-8.52-2.39-.71-4.8.38-7,3.54-3.3,4.78-5.47,13.37-6.33,23.41,3.31,8,7.9,13.91,13.15,16.24a10.75,10.75,0,0,0,11.05-1.1C749,727.17,745.7,715.89,743.23,702.36Z" transform="translate(-525.52 -233.52)"/><path class="cls-53" d="M754.61,720.09c-2.71-15.11-7.7-24.74-12.79-26.25.43,2.87.89,5.71,1.41,8.52,2.47,13.53,5.75,24.81,9.48,33.57a17.42,17.42,0,0,0,3.46-3.24A123.16,123.16,0,0,0,754.61,720.09Z" transform="translate(-525.52 -233.52)"/><path class="cls-51" d="M739.35,721.39c-1.63,2.3-2.55,7-2.63,12.22,2.28-.77,6.47,0,10.95,4.37a48.07,48.07,0,0,0-.75-7.94C745.36,721.57,742,717.68,739.35,721.39Z" transform="translate(-525.52 -233.52)"/><path class="cls-52" d="M747.67,738c-4.48-4.37-8.67-5.14-10.95-4.37,0,.46,0,.93,0,1.4,0,1.12.07,2.27.16,3.41,1.54-1.88,3.5-2.59,5.57-1.67s3.79,3.2,5,6.24c.1-1.12.17-2.29.19-3.49C747.68,739,747.68,738.49,747.67,738Z" transform="translate(-525.52 -233.52)"/><path class="cls-53" d="M736.87,738.42c.14,1.61.35,3.22.64,4.77,1.57,8.27,4.91,12,7.49,8.49,1.26-1.74,2.11-4.92,2.48-8.69-1.25-3-3-5.34-5-6.24S738.41,736.54,736.87,738.42Z" transform="translate(-525.52 -233.52)"/><path class="cls-59" d="M740.51,698.71c2.2,3.69,0,16.55-7.5,21C730.84,715,735.3,701.06,740.51,698.71Z" transform="translate(-525.52 -233.52)"/><path class="cls-42" d="M999.84,531.52Q992.16,500.23,982,469.6a622.48,622.48,0,0,0-23.54-60.07,431.2,431.2,0,0,0-31-56.64c-11.9-18-25.43-35-41.23-49.78a201.05,201.05,0,0,0-25.28-20.26,172.36,172.36,0,0,0-28.42-15.5,160,160,0,0,0-46.79-11.88c-2.68-.24-5.35-.44-8-.53a25.07,25.07,0,0,0-7.93,1.27,25,25,0,0,1,7.92-.91c2.66.22,5.33.54,8,.9q8,1.07,15.76,2.9a157.54,157.54,0,0,1,30.16,10.43c19.37,8.86,36.79,21.55,52,36.33a283.22,283.22,0,0,1,40,49.55A435.45,435.45,0,0,1,954,411.57a634.28,634.28,0,0,1,23.6,59.52c7,20.19,13,40.72,18.58,61.38q4.05,15.27,7.68,30.66a41.34,41.34,0,0,0,2.37-4.19Q1003.23,545.18,999.84,531.52Z" transform="translate(-525.52 -233.52)"/><path class="cls-60" d="M1017.18,626.47q1.47,7.89,2.86,15.81l2.81,15.83-2.08-15.94q-1.11-8-2.32-15.92-2.4-15.9-5.2-31.75-3.22-17.84-7-35.56a41.34,41.34,0,0,1-2.37,4.19q3.74,15.87,7.07,31.82Q1014.25,610.67,1017.18,626.47Z" transform="translate(-525.52 -233.52)"/><path class="cls-41" d="M792.65,736.35a42.46,42.46,0,0,0,7.18,1.83c37.31,7,98.88,24.11,223.51,14.82l37.95-2.28,244.77-21.5,45.1-17.43c9.92-1.72,20-3.83,28.08-5.91-1.09,12-7.57,15.4-19.34,17.8-9.94,21.5-20,23.13-54.74,27.21s-176.5,17.43-202.77,20-78.81,7.82-122.06,10.27c-2.57-17.35-10.51-21.26-29.08-20.41s-22,10.75-20.65,22.48c-14.41,0-39.21-1.13-80.64-7.57C809.89,769.42,798.65,748.52,792.65,736.35Z" transform="translate(-525.52 -233.52)"/><path class="cls-41" d="M1370,678.88c4.36,1.26,10.26,7.21,10.26,10.88-8.79,2.38-22.5,4.76-29.25,5.94l-2.07-12.23S1359.85,681.57,1370,678.88Z" transform="translate(-525.52 -233.52)"/><path class="cls-42" d="M1056.72,676.71c1,3.78,2,8.25,3.27,13.53,6.6,28.11,8.55,37,1.3,60.48,79.18-5.86,160.71-12.38,244.77-21.5l-11.76-67.75C1252.83,664.3,1137.39,672.07,1056.72,676.71Z" transform="translate(-525.52 -233.52)"/><path class="cls-41" d="M1291.6,645.91l-268.75,12.2s29.79,2.27,33.87,18.6c80.67-4.64,196.11-12.41,237.58-15.24Z" transform="translate(-525.52 -233.52)"/><path class="cls-61" d="M691.86,746.16l4.16-1.61c-4.89-20.46-21.95-123.8,23.17-130.74H696.14L673.41,662l9.29,67.9Z" transform="translate(-525.52 -233.52)"/><path class="cls-62" d="M529.34,582.34c.25-.52.49-1.07.72-1.68Q529.68,581.5,529.34,582.34Z" transform="translate(-525.52 -233.52)"/><path class="cls-61" d="M539.45,667.89l3.51-1s-13.63-56.62.42-73.07L539,589.77,530.84,604v30.62l5.08,23.95Z" transform="translate(-525.52 -233.52)"/><path class="cls-43" d="M709.21,615.22c-9.55,2.64-16.34,11.51-20.63,24.16-.17.55-.36,1.11-.55,1.69a.88.88,0,0,1,0,.15l76.55,12.68c-.11-.24-.22-.5-.34-.74C749.77,622.8,731.18,609.16,709.21,615.22Z" transform="translate(-525.52 -233.52)"/><path class="cls-43" d="M688.58,639.38c-.19.56-.37,1.12-.55,1.69C688.22,640.49,688.41,639.93,688.58,639.38Z" transform="translate(-525.52 -233.52)"/><path class="cls-43" d="M552,611.33c-.08-.35-.17-.68-.25-1C551.78,610.66,551.86,611,552,611.33Z" transform="translate(-525.52 -233.52)"/><path class="cls-63" d="M552,611.33v0h0Z" transform="translate(-525.52 -233.52)"/><path class="cls-44" d="M749,586c-61.75-26.39-142.21-24.77-159.32-24.11-16.46.62-51.31,4.27-58.84,17.18q-.4.78-.78,1.56c-.23.61-.47,1.16-.72,1.68-4.83,12-3.18,26.72-.71,48.77,1.14,10.17,5.62,30.85,10.82,36.78-4.77-21.75-10.82-50-4.5-66.71s13.35-3.42,16.29,7.33c.14.52.3,1.14.47,1.82-1.49-6.91,3.31-11.88,16.13-7.57,13.45,4.52,43,18.4,105.57,20.29,18.54.56,18.67,5.39,15.17,16.33,4.29-12.65,11.08-21.52,20.63-24.16,22-6.06,40.56,7.58,55,37.94.12.24.23.5.34.74h0c-2.68-9.29-3.11-23.65,13.34-8.74S841.05,674.48,885,678.09l22,27.46c12.12.39,25.2.52,39.89.38l2.58-44.46C886.5,660.19,810.74,612.42,749,586Z" transform="translate(-525.52 -233.52)"/><g class="cls-64"><path class="cls-65" d="M530.84,579.1c7.53-12.91,42.38-16.56,58.84-17.18,17.11-.65,97.57-2.28,159.32,24.11s137.5,74.16,200.54,75.44c21.75.55,73.31-3.36,73.31-3.36" transform="translate(-525.52 -233.52)"/><path class="cls-66" d="M530.9,579c7.54-13,42.37-17,58.82-17.64,17.15-.71,98.3-2.66,160,23.91,31.42,13.51,66.4,32.54,101.43,48.3,33.75,15.19,67.54,27,98.46,27.68.87,0,1.79,0,2.74,0,23,.22,70.45-3.21,70.45-3.21" transform="translate(-525.52 -233.52)"/><path class="cls-67" d="M531,578.87c7.53-13.07,42.34-17.35,58.79-18.09,17.19-.77,99-3,160.79,23.71,31.37,13.58,66.21,32.63,101.07,48.58,33.61,15.39,67.24,27.25,98.16,27.94.88,0,1.79,0,2.74,0,22.92.24,70.33-3,70.33-3" transform="translate(-525.52 -233.52)"/><path class="cls-68" d="M531,578.76c7.54-13.16,42.33-17.75,58.77-18.54,17.24-.84,99.78-3.42,161.52,23.5,31.32,13.65,66,32.71,100.71,48.85,33.49,15.61,66.94,27.48,97.88,28.21.87,0,1.78,0,2.73.05,22.86.26,70.21-2.8,70.21-2.8" transform="translate(-525.52 -233.52)"/><path class="cls-69" d="M531.1,578.65c7.53-13.25,42.3-18.15,58.74-19,17.28-.9,100.51-3.79,162.26,23.3,31.27,13.72,65.85,32.8,100.34,49.12,33.36,15.82,66.65,27.72,97.59,28.48.87,0,1.78,0,2.73.05,22.79.28,70.09-2.6,70.09-2.6" transform="translate(-525.52 -233.52)"/><path class="cls-70" d="M531.16,578.54c7.54-13.34,42.28-18.55,58.72-19.45,17.32-1,101.25-4.17,163,23.1,31.22,13.77,65.67,32.87,100,49.39,33.23,16,66.34,27.94,97.29,28.74.87,0,1.78,0,2.72,0,22.74.3,70-2.4,70-2.4" transform="translate(-525.52 -233.52)"/><path class="cls-71" d="M531.23,578.42c7.53-13.42,42.26-18.94,58.69-19.9,17.37-1,102-4.55,163.73,22.9,31.17,13.84,65.48,33,99.62,49.66,33.1,16.23,66,28.18,97,29,.88,0,1.78,0,2.72.06,22.67.31,69.86-2.21,69.86-2.21" transform="translate(-525.52 -233.52)"/><path class="cls-72" d="M531.29,578.31C538.83,564.8,573.53,559,590,558c17.4-1.09,102.71-4.92,164.46,22.7,31.11,13.91,65.29,33,99.25,49.94,33,16.43,65.75,28.4,96.71,29.27.88,0,1.78,0,2.72.06,22.61.34,69.74-2,69.74-2" transform="translate(-525.52 -233.52)"/><path class="cls-73" d="M531.35,578.2c7.54-13.6,42.23-19.74,58.66-20.81,17.44-1.16,103.44-5.31,165.19,22.49,31.07,14,65.12,33.13,98.9,50.21,32.84,16.64,65.44,28.64,96.42,29.54.87,0,1.78,0,2.71.06,22.55.36,69.62-1.8,69.62-1.8" transform="translate(-525.52 -233.52)"/><path class="cls-74" d="M531.42,578.09c7.53-13.68,42.2-20.14,58.63-21.27,17.49-1.22,104.18-5.68,165.93,22.29,31,14,64.93,33.21,98.53,50.48,32.71,16.86,65.15,28.87,96.13,29.81.87,0,1.78.05,2.7.06,22.49.38,69.51-1.6,69.51-1.6" transform="translate(-525.52 -233.52)"/><path class="cls-75" d="M531.48,578c7.54-13.76,42.19-20.53,58.61-21.72,17.53-1.28,104.91-6.06,166.66,22.1,31,14.1,64.75,33.29,98.17,50.75,32.59,17.06,64.85,29.09,95.84,30.07.88,0,1.78.05,2.7.06,22.43.4,69.39-1.4,69.39-1.4" transform="translate(-525.52 -233.52)"/><path class="cls-76" d="M531.55,577.86c7.53-13.85,42.16-20.93,58.58-22.17,17.57-1.35,105.65-6.44,167.4,21.89,30.91,14.16,64.56,33.37,97.81,51,32.45,17.27,64.54,29.33,95.54,30.33.88,0,1.78.06,2.7.07,22.36.42,69.27-1.2,69.27-1.2" transform="translate(-525.52 -233.52)"/><path class="cls-77" d="M531.61,577.75c7.54-13.94,42.15-21.33,58.56-22.63,17.62-1.41,106.39-6.81,168.13,21.69,30.87,14.23,64.38,33.46,97.45,51.29C888.08,645.58,920,657.66,951,658.7c.88,0,1.78.06,2.7.07,22.3.44,69.15-1,69.15-1" transform="translate(-525.52 -233.52)"/><path class="cls-78" d="M531.68,577.64c7.53-14,42.12-21.72,58.53-23.08,17.66-1.48,107.12-7.2,168.87,21.48,30.81,14.3,64.2,33.55,97.08,51.57,32.2,17.68,64,29.79,95,30.86.87,0,1.77.06,2.68.07,22.25.46,69-.79,69-.79" transform="translate(-525.52 -233.52)"/><path class="cls-79" d="M531.74,577.53c7.54-14.12,42.1-22.12,58.51-23.54,17.7-1.54,107.86-7.57,169.61,21.28,30.76,14.36,64,33.63,96.72,51.84,32.07,17.89,63.65,30,94.67,31.13l2.68.08c22.18.48,68.92-.6,68.92-.6" transform="translate(-525.52 -233.52)"/><path class="cls-80" d="M531.81,577.41c7.53-14.19,42.08-22.51,58.48-24,17.75-1.6,108.59-7.95,170.34,21.09,30.71,14.42,63.83,33.71,96.36,52.1,31.94,18.11,63.35,30.26,94.38,31.4l2.68.08c22.12.5,68.8-.4,68.8-.4" transform="translate(-525.52 -233.52)"/><path class="cls-81" d="M531.87,577.3c7.53-14.28,42.06-22.91,58.46-24.44,17.79-1.68,109.33-8.33,171.08,20.88,30.65,14.49,63.64,33.79,96,52.38,31.82,18.31,63.05,30.48,94.09,31.66l2.68.08c22.05.52,68.68-.2,68.68-.2" transform="translate(-525.52 -233.52)"/><path class="cls-82" d="M531.93,577.19c7.54-14.37,42.05-23.31,58.44-24.9,17.83-1.74,110.06-8.7,171.81,20.68,30.61,14.56,63.46,33.88,95.64,52.65,31.68,18.52,62.75,30.72,93.79,31.93l2.67.08c22,.54,68.57,0,68.57,0" transform="translate(-525.52 -233.52)"/><path class="cls-83" d="M532,577.08c7.53-14.46,42-23.71,58.41-25.36,17.88-1.8,110.8-9.08,172.55,20.48,30.55,14.62,63.28,34,95.27,52.93,31.55,18.72,62.45,30.94,93.51,32.19l2.66.08c21.93.56,68.45.21,68.45.21" transform="translate(-525.52 -233.52)"/><path class="cls-84" d="M532.06,577c7.54-14.54,42-24.1,58.39-25.8,17.92-1.87,111.54-9.46,173.28,20.27,30.51,14.69,63.1,34.05,94.91,53.2,31.43,18.93,62.16,31.18,93.22,32.46l2.66.08c21.87.58,68.33.41,68.33.41" transform="translate(-525.52 -233.52)"/><path class="cls-85" d="M532.13,576.85c7.53-14.63,42-24.5,58.36-26.26,18-1.93,112.27-9.84,174,20.08,30.45,14.75,62.91,34.12,94.55,53.46,31.29,19.14,61.85,31.41,92.92,32.73l2.66.08c21.81.6,68.21.61,68.21.61" transform="translate(-525.52 -233.52)"/><path class="cls-86" d="M532.19,576.74c7.54-14.72,42-24.9,58.34-26.71,18-2,113-10.22,174.76,19.87,30.4,14.81,62.72,34.21,94.18,53.74,32,19.89,63.28,32.33,95.28,33.07,21.75.63,68.1.81,68.1.81" transform="translate(-525.52 -233.52)"/></g><path class="cls-87" d="M777.88,645.16c-16.45-14.91-16-.55-13.34,8.74h0a206.12,206.12,0,0,1,9.23,23.72,22.25,22.25,0,0,0,16,14.54c45.11,7.51,75.48,12,117.36,13.39l-22-27.46C841.05,674.48,794.33,660.07,777.88,645.16Z" transform="translate(-525.52 -233.52)"/><path class="cls-63" d="M688,641.22h0a.88.88,0,0,0,0-.15A.88.88,0,0,1,688,641.22Z" transform="translate(-525.52 -233.52)"/><path class="cls-87" d="M688,641.07c.18-.57.36-1.13.55-1.69,3.5-10.94,3.37-15.77-15.17-16.33-62.52-1.89-92.12-15.77-105.57-20.29-12.82-4.31-17.62.66-16.13,7.57.08.32.17.65.25,1v0h0c3.55,14.3,12.07,54.69,15.39,71.93,3.59,18.57,7.33,21.18,18.57,25.58s51.16,19.71,105.93,37.3c-10.08-36.61-12.14-78.42-3.88-104.94h0A.88.88,0,0,0,688,641.07Z" transform="translate(-525.52 -233.52)"/><path class="cls-88" d="M1379.24,705.88c17-5.86,5.63-14.29,1-16.12-8.75,2.19-18,4-29.25,5.94l.19,16.09S1368.78,708.69,1379.24,705.88Z" transform="translate(-525.52 -233.52)"/><path class="cls-89" d="M920.87,404.26l.16.4Z" transform="translate(-525.52 -233.52)"/><path class="cls-90" d="M921.11,404.86l-.08-.2c0,.07.06.14.08.2Z" transform="translate(-525.52 -233.52)"/><path class="cls-44" d="M877.56,258c49.87-9,100-7.43,140.36-2.9,43.41-5.69,97.43,5.27,140.53,40.09-25.19-20.62-54.62-35.69-90.34-45.26a453,453,0,0,0-45.67-9.64c-78.53,9.63-181.87,13.11-236.34,11.6q-8.19,2-16.44,4.32C710.45,273.71,627,494.87,607.09,544.48c-28,3.5-57,10.08-71.9,28.11a37.5,37.5,0,0,0-4.35,6.51c7.53-12.91,42.38-16.56,58.84-17.18,17.11-.66,97.57-2.28,159.32,24.11s137.5,74.16,200.54,75.44L947,705.93c21.29-.22,45.94-1,75.89-2.37,3.91-17.1,2.28-32,0-45.45-70.13,3.36-175.78-34.39-199.89-68.34S917.57,579.16,972,579c44.59-.11,47.73-52.08,31.88-111.49a42.39,42.39,0,0,1-5-5.2,63.82,63.82,0,0,1-8.94-15.06c-.56-1.29-1.11-2.63-1.65-4a443.73,443.73,0,0,0-55.37-101.31L921.3,326.66a446.19,446.19,0,0,0-42.93-46.83c-7.34-6.45-10.06-11.13-10.09-14.49C868.25,261,872.71,258.88,877.56,258Zm13.12,94.29A254.22,254.22,0,0,1,911.28,384a192.65,192.65,0,0,1,9.59,20.29l.16.4c0,.07.06.14.08.2C940,452.5,928.61,486.32,914,498c-3,2.38-6.09,4.61-9.31,6.74q-5.68,3.74-11.82,7c-4.94,2.62-10.08,5-15.38,7.23-92.58-7.49-217.55,7.84-266.38,25.87.37-.83.57-1.35.85-2C719.85,284.76,765.58,262.38,813.5,279.27,849.84,292.09,875.86,332.67,890.68,352.29Z" transform="translate(-525.52 -233.52)"/><path class="cls-91" d="M695.08,542c-14.7,4.65-31.11,14.51-34.69,47.4-4.29,39.31-6.85,67.66-8.31,91.9-.2,3.22-.32,6.21-.44,8.85-.43,10.27-.69,16.47-4,18.73-2.92,2-8.37,1.19-19.47-2.76s-46.07-14.65-49.59-15.73c-7.7-42.29-12.23-75.45-9.31-99.74,3.2-26.65,15.16-41.65,37.86-46.17l-.28,0c-23.17,4.61-35.29,18.88-38.55,46-2.94,24.46,1.62,57.8,9.37,100.32l.06.3.28.08c.38.12,38.08,11.61,49.83,15.8,7.35,2.62,12.26,3.86,15.7,3.86a8,8,0,0,0,4.64-1.21c3.76-2.53,4-8.92,4.48-19.5.11-2.63.24-5.62.43-8.83,1.46-24.23,4-52.56,8.31-91.86,3.52-32.34,20.4-42.39,35.18-47.5Z" transform="translate(-525.52 -233.52)"/><path class="cls-44" d="M988.28,449.11a91.7,91.7,0,0,0,4.11,8.46,66.9,66.9,0,0,0,5,7.89,41.58,41.58,0,0,0,13.49,12.21,33.88,33.88,0,0,0,17.33,4,69.34,69.34,0,0,0,9.09-.93l9.35-1.39c12.47-1.82,25-3.15,37.56-4.3s25.15-1.84,37.74-2.37,25.2-.65,37.8-.56,25.2.46,37.78,1.21c6.28.37,12.57.75,18.85,1.28l9.41.83,4.7.46c1.56.17,3,.27,4.57.3a23.06,23.06,0,0,0,8.78-1.29,11,11,0,0,0,6.23-5.71,18.7,18.7,0,0,0,1.35-8.92,45.68,45.68,0,0,0-1.56-9.23,45.89,45.89,0,0,1,2.44,9.15,19.87,19.87,0,0,1-.73,9.62,12.06,12.06,0,0,1-2.67,4.28,13.92,13.92,0,0,1-4.16,2.9,25.62,25.62,0,0,1-9.64,2.08c-1.62.08-3.28,0-4.84-.06l-4.7-.22-9.4-.35c-6.27-.21-12.54-.43-18.81-.54-12.53-.21-25.07-.4-37.6-.24s-25.06.34-37.57.86-25,1.14-37.53,2-25,2-37.44,3.31l-9.34,1a64.47,64.47,0,0,1-9.68.57,37,37,0,0,1-18.75-5.31,42.62,42.62,0,0,1-13.38-13.78A74.48,74.48,0,0,1,988.28,449.11Z" transform="translate(-525.52 -233.52)"/><path class="cls-42" d="M1160,296.46c-.33-.27-.65-.55-1-.81s-.38-.3-.56-.46c-43.1-34.82-97.12-45.78-140.53-40.09,24.91,2.79,46.13,6.71,61.33,10,26.31,6,38.68,13.88,44.93,18,67.86,44.55,101.16,108.83,119.68,162,6,18.54-1.15,26.47-18.34,25.21-10.81-.79-24.52-1.58-40.43-2-25.39-.76-56.44-.7-90.42,1.46-6.4.4-12.91.89-19.49,1.45q-9.27.8-18.74,1.81l-19.92,2.39c-7.93,1.06-20.84,2.41-32.62-7.8C1019.75,526.94,1016.61,578.91,972,579c-54.45.14-173.17-23.19-149.06,10.75s129.76,71.7,199.89,68.34l28.34-1.15,240.41-11.05,36.31-2.23C1273.06,474.61,1236,359.8,1160,296.46Z" transform="translate(-525.52 -233.52)"/><path class="cls-41" d="M1021.45,538.24c1.8,8,5.63,25,8.64,38.42,2.35,10.43,16.74,16.34,23,15.31,91.36-15.2,177.82-13.63,213.83-13.12,15.2.21,13.88-11.56,12.65-15.69-2.6-8.76-8.47-28.5-12.48-42-2.39-8-10.1-14.69-21.44-15.6-31.23-2.49-103-5.2-202.19,9.49C1019.55,519,1020.38,533.49,1021.45,538.24Z" transform="translate(-525.52 -233.52)"/><path class="cls-44" d="M1265.66,528.19c-81.78-7.16-183.39,1.32-237.8,9.46l-3.06-4.57c54.41-8.14,155.41-18,237.18-10.84Z" transform="translate(-525.52 -233.52)"/><path class="cls-44" d="M1260.24,517.48c-78.25-7.16-175.21,1.75-227.27,9.9l-4.38-4.24c52.06-8.14,149-18,227.23-10.81Z" transform="translate(-525.52 -233.52)"/><path class="cls-44" d="M1267.86,537.32c-81.78-7.17-183.76,3.43-238.17,11.57l-2.93-4.57c54.41-8.14,156.41-17.92,238.19-10.75Z" transform="translate(-525.52 -233.52)"/><path class="cls-44" d="M1271.12,550.35c-81.78-7.17-183.48,1.8-237.89,9.95l-3.54-4.57c54.41-8.15,155.76-18,237.53-10.81Z" transform="translate(-525.52 -233.52)"/><path class="cls-44" d="M1273.72,559.8c-81.78-7.17-182.79,4.42-237.2,12.56l-3.9-5.23c54.41-8.15,155.89-18,237.67-10.8Z" transform="translate(-525.52 -233.52)"/><path class="cls-44" d="M1274.7,571.53c-78.59-6.17-178.71,4.87-230.84,13.68l-4.17-5.21c52.12-8.81,151.76-19.69,230.35-13.52Z" transform="translate(-525.52 -233.52)"/><polygon class="cls-92" points="580.9 454.16 580.9 499.61 740.14 487.89 736.31 443.2 580.9 454.16"/><polygon class="cls-93" points="53.33 462.96 54.55 468.82 157.67 504.46 155.96 496.4 53.33 462.96"/><path class="cls-42" d="M714.94,608.49a45.46,45.46,0,0,1,20.19.9,41.66,41.66,0,0,1,18,10.43,50.26,50.26,0,0,1,11.28,17.25,59.81,59.81,0,0,1,4.27,19.64c-3-6-5.84-11.81-9.1-17.26a72.11,72.11,0,0,0-11.24-14.75,51.45,51.45,0,0,0-15.05-10.27A106.2,106.2,0,0,0,714.94,608.49Z" transform="translate(-525.52 -233.52)"/><path class="cls-44" d="M1030.3,651.91c24-3.29,48-5.61,72-7.63s48.12-3.59,72.2-4.86,48.19-2.21,72.31-2.76,48.27-.73,72.46,0c-24,3.3-48,5.62-72,7.64s-48.12,3.59-72.2,4.85-48.19,2.2-72.31,2.75S1054.49,652.66,1030.3,651.91Z" transform="translate(-525.52 -233.52)"/><path class="cls-46" d="M531.11,645.32c-7.89,4.24-6.1,14.5,5.63,21.91C536.74,667.23,538.19,657.06,531.11,645.32Z" transform="translate(-525.52 -233.52)"/><path class="cls-44" d="M596.72,536.09c3.06,9.22-1.21,18.92-9.54,21.69s-17.56-2.47-20.61-11.68,1.21-18.92,9.54-21.69S593.66,526.88,596.72,536.09Z" transform="translate(-525.52 -233.52)"/><path class="cls-94" d="M594.56,536.81c2.62,7.89-1,16.21-8.17,18.58s-15-2.11-17.66-10,1-16.21,8.17-18.58S591.94,528.92,594.56,536.81Z" transform="translate(-525.52 -233.52)"/><path class="cls-95" d="M594.56,536.81c-2.29-6.91-8.64-11.21-15-10.58a15.09,15.09,0,0,1,12.66,10.58c2.62,7.89-1,16.21-8.17,18.58a12.78,12.78,0,0,1-2.69.57,12.67,12.67,0,0,0,5-.57C593.52,553,597.18,544.7,594.56,536.81Z" transform="translate(-525.52 -233.52)"/><path class="cls-44" d="M607,551.89c8,.19,20.63,5.88,7.93,10.4s-17.45,1.82-19.47,0S591.43,551.53,607,551.89Z" transform="translate(-525.52 -233.52)"/><polygon class="cls-44" points="66.89 319.83 70.38 323.13 73.37 320.44 68.54 318.37 66.89 319.83"/><path class="cls-96" d="M581,528.87c1.73,1.45,1,5.16-1.61,8.29s-6.16,4.48-7.89,3-1-5.17,1.62-8.29S579.24,527.41,581,528.87Z" transform="translate(-525.52 -233.52)"/><path class="cls-45" d="M607.16,544.55c10.8-1.5,21.71-2,32.59-2.51s21.76-.77,32.64-1.1l16.29-.43,4.09-.13c1.4,0,2.78,0,4.15,0l8.19,0c10.88.07,21.71.22,32.54,0q8.11-.1,16.22-.37c5.4-.18,10.8-.36,16.2-.64,10.78-.54,21.54-1.36,32.25-2.52s21.37-2.56,31.92-4.46a318.6,318.6,0,0,0,31.26-7.06,218.76,218.76,0,0,0,29.94-10.61c4.81-2.12,9.52-4.45,14.07-7,2.28-1.29,4.51-2.63,6.7-4,1.09-.7,2.17-1.42,3.24-2.15l1.6-1.11.79-.56.73-.54a35.34,35.34,0,0,0,9-10.81A55.91,55.91,0,0,0,937,474.76a77.92,77.92,0,0,0,2.25-14.9A96.14,96.14,0,0,0,939,444.6a133.56,133.56,0,0,0-6.85-30.18,188.73,188.73,0,0,0-12.76-28.72,265,265,0,0,0-16.75-27c-6.15-8.8-11.93-17.74-18.16-26.45,3.55,4,7,8.17,10.34,12.33s6.66,8.39,10.06,12.51a250.2,250.2,0,0,1,18.81,26.26,190.64,190.64,0,0,1,14.64,28.9,133.6,133.6,0,0,1,8.45,31.48,105.12,105.12,0,0,1,.95,16.47,83.35,83.35,0,0,1-2.11,16.56,65.3,65.3,0,0,1-5.91,16,44.75,44.75,0,0,1-11.2,13.87c-18,13.64-38.94,22.11-60.18,28.15s-43.16,9.37-65,11.32c-10.93,1-21.89,1.54-32.83,1.87-5.48.15-10.95.27-16.42.27s-10.94-.08-16.4-.2c-10.92-.25-21.84-.66-32.7-1.27l-8.12-.42c-1.35-.06-2.69-.12-4-.15l-4.07-.06c-5.46-.11-10.9-.23-16.34-.39l-32.61-1c-5.43-.15-10.86-.27-16.3-.33S612.6,544.31,607.16,544.55Z" transform="translate(-525.52 -233.52)"/><polygon class="cls-97" points="766.09 412.39 780.54 495.71 775.21 517.88 790.31 516.08 810.06 489.82 796.54 428.67 766.09 412.39"/><polygon class="cls-98" points="766.09 412.39 794.31 410.7 821.45 425.87 796.54 428.67 766.09 412.39"/><polygon class="cls-99" points="796.54 428.67 810.06 489.82 833.83 485.26 821.45 425.87 796.54 428.67"/><polygon class="cls-100" points="810.06 489.82 790.31 516.08 806.34 513.85 833.83 485.26 810.06 489.82"/><polygon class="cls-97" points="484.31 425.19 497.82 519.49 488.99 545.32 503.75 544.13 526.78 515.55 515.48 444.65 484.31 425.19"/><polygon class="cls-98" points="484.31 425.19 513.74 423.85 543.17 442.87 515.48 444.65 484.31 425.19"/><polygon class="cls-99" points="515.48 444.65 526.78 515.55 553.32 511.69 543.17 442.87 515.48 444.65"/><polygon class="cls-100" points="526.78 515.55 503.75 544.13 521.35 542.62 553.32 511.69 526.78 515.55"/><path class="cls-41" d="M1023.34,753c-124.63,9.29-186.2-7.82-223.51-14.82-13.17-2.47-14.91-5-20.12-26-3.41-13.75-.2-21.28,10.39-20s39,6.91,84.66,11.6,90.6,2.1,148.09-.27C1028.59,711.75,1032.74,737.57,1023.34,753Z" transform="translate(-525.52 -233.52)"/><path class="cls-101" d="M1028.71,720.59c-47.57,1.79-106.37,3.09-132.11.81s-58-5.86-76.24-8.47-23.91-4.11-29.41-4.72-8.55,2.44-7.33,7.69,3.67,6.72,11.49,8.07S864.72,735.51,906,738.2s88,.91,123.14-2a10.11,10.11,0,0,0,2.9-7.93A11.25,11.25,0,0,0,1028.71,720.59Z" transform="translate(-525.52 -233.52)"/><path class="cls-102" d="M938.49,665c-12.16.24-21.69.33-29,.33-14.14,0-25-.31-29.83-.86a27.9,27.9,0,0,0-3.09-.2c-4.31,0-5.47,1.26-6.58,4.81-1.8,5.74-3.47,12.92-4.69,18.17-.57,2.43-1,4.35-1.37,5.68-.83,3.12-1,5.69,3.51,6.11,17.44,1.35,42.59,2.81,72.38,3.12A321.62,321.62,0,0,0,938.49,665Z" transform="translate(-525.52 -233.52)"/><path class="cls-41" d="M1019.8,662.16c-11.75.55-22.52,1-32.42,1.39,1.09,9.44,2.25,25.27,1.33,38,10.6-.4,20.93-1,30.89-1.7C1022.16,686.38,1022.23,673.46,1019.8,662.16Z" transform="translate(-525.52 -233.52)"/><path class="cls-103" d="M1022.85,658.11c-54.68,2.59-90.84,3.36-113.32,3.36-16.58,0-25.72-.42-29.39-.83a30.74,30.74,0,0,0-3.53-.22c-6.06,0-8.7,2.38-10.31,7.55-2.65,8.47-5,19.85-6.11,24s-1.54,10.17,2.86,10.68c24.8,2.89,55.05,3.53,88.33,3.53,23.18,0,47.49-.75,71.47-2.63A89,89,0,0,0,1022.85,658.11Zm-155.37,41c-4.52-.41-4.34-3-3.51-6.11.35-1.33.8-3.25,1.37-5.68,1.22-5.24,2.89-12.43,4.69-18.17,1.11-3.54,2.27-4.8,6.58-4.8a27.7,27.7,0,0,1,3.09.19c4.81.55,15.69.86,29.83.86,7.27,0,16.8-.08,29-.33a323.93,323.93,0,0,1,1.36,37.15l.36,0C910.27,701.91,885,700.45,867.48,699.09Zm152.12.8c-18.53,1.37-38.27,2.16-58.83,2.34h.36c1-12.44-.11-28-1.18-37.72,16.41-.49,36.19-1.23,59.85-2.33C1022.23,673.47,1022.16,686.39,1019.6,699.89Z" transform="translate(-525.52 -233.52)"/><path class="cls-104" d="M987.38,663.55c-10,.38-19.16.69-27.43.94,1.07,9.7,2.15,25.29,1.18,37.73q14.07-.13,27.58-.64C989.63,688.82,988.47,673,987.38,663.55Z" transform="translate(-525.52 -233.52)"/><g class="cls-105"><path class="cls-106" d="M766.75,283.83c18.27-8.47,47-18.1,99.06,40.55L761.19,537.65l-121.44,2.26Z" transform="translate(-525.52 -233.52)"/></g><polygon class="cls-107" points="179.06 308.56 267.44 41.5 264.6 41.46 169.56 308.48 179.06 308.56"/><polygon class="cls-108" points="179.59 306.81 186.51 306.86 271.38 41.75 267.43 41.46 179.59 306.81"/><path class="cls-109" d="M792.65,736.35a42.83,42.83,0,0,0,7,1.43l7.12,1.07c4.74.74,9.46,1.57,14.19,2.35q14.16,2.43,28.34,4.52c9.46,1.32,18.93,2.59,28.43,3.54s19,1.85,28.53,2.44,19.07,1.13,28.62,1.45,19.1.47,28.66.59c19.13.14,38.28-.2,57.47-.57-19,2.4-38.22,3.81-57.42,4.39-9.61.33-19.22.32-28.83.21s-19.22-.59-28.83-1.2-19.17-1.56-28.72-2.73-19.07-2.6-28.52-4.38-18.86-3.75-28.2-5.92l-14-3.37-7-1.67A43.21,43.21,0,0,1,792.65,736.35Z" transform="translate(-525.52 -233.52)"/><path class="cls-110" d="M873.06,667.28l-7.46,28.55L936,668.13S902,669.45,873.06,667.28Z" transform="translate(-525.52 -233.52)"/></g></g></svg>