<svg xmlns="http://www.w3.org/2000/svg" xmlns:xlink="http://www.w3.org/1999/xlink" viewBox="0 0 116.52 83.19"><defs><style>.cls-1{mask:url(#mask);}.cls-2,.cls-91{mix-blend-mode:multiply;}.cls-2{fill:url(#linear-gradient);}.cls-3{isolation:isolate;}.cls-16,.cls-17,.cls-18,.cls-29,.cls-4{fill:#faaf40;}.cls-5{fill:#e76920;}.cls-6{fill:#8bc540;}.cls-7{fill:#8a5d3b;}.cls-10,.cls-11,.cls-12,.cls-13,.cls-14,.cls-15,.cls-16,.cls-17,.cls-18,.cls-7,.cls-8,.cls-9{stroke:#e76920;}.cls-10,.cls-11,.cls-12,.cls-13,.cls-14,.cls-15,.cls-16,.cls-17,.cls-18,.cls-24,.cls-25,.cls-26,.cls-27,.cls-28,.cls-29,.cls-30,.cls-31,.cls-32,.cls-33,.cls-34,.cls-62,.cls-65,.cls-66,.cls-67,.cls-68,.cls-69,.cls-7,.cls-70,.cls-71,.cls-72,.cls-73,.cls-74,.cls-75,.cls-76,.cls-77,.cls-78,.cls-79,.cls-8,.cls-80,.cls-81,.cls-82,.cls-83,.cls-84,.cls-85,.cls-86,.cls-9{stroke-miterlimit:10;}.cls-10,.cls-11,.cls-12,.cls-13,.cls-14,.cls-15,.cls-16,.cls-24,.cls-25,.cls-26,.cls-27,.cls-28,.cls-29,.cls-30,.cls-31,.cls-32,.cls-33,.cls-34,.cls-7,.cls-8,.cls-9{stroke-width:3.7px;}.cls-26,.cls-8{fill:#ee4036;}.cls-33,.cls-9{fill:#a87c4f;}.cls-10,.cls-34{fill:#f9ec31;}.cls-11{fill:#be1e2d;}.cls-12,.cls-25{fill:#1b75bb;}.cls-13,.cls-28{fill:#006838;}.cls-14{fill:#fff100;}.cls-15{fill:#754c28;}.cls-17{stroke-width:4.31px;}.cls-18{stroke-width:4.93px;}.cls-19{fill:#fff;}.cls-20{fill:#ff4438;}.cls-21{fill:#8a2f8f;}.cls-22,.cls-30,.cls-31{fill:#f68f3d;}.cls-23{fill:#c5511e;}.cls-24{fill:#5a4a42;}.cls-24,.cls-25,.cls-26,.cls-27,.cls-28,.cls-29,.cls-31,.cls-32,.cls-33,.cls-34{stroke:#c5521e;}.cls-27{fill:#eb008b;}.cls-30{stroke:#c5511e;}.cls-32{fill:#26a9e0;}.cls-35{fill:url(#radial-gradient);}.cls-36{fill:#181013;}.cls-37{fill:#3b1120;}.cls-38{fill:#981c1f;}.cls-39{fill:#7e749e;}.cls-40{fill:url(#linear-gradient-2);}.cls-41{fill:#214080;}.cls-42{fill:#2e62ad;}.cls-43,.cls-62,.cls-65,.cls-66,.cls-67,.cls-68,.cls-69,.cls-70,.cls-71,.cls-72,.cls-73,.cls-74,.cls-75,.cls-76,.cls-77,.cls-78,.cls-79,.cls-80,.cls-81,.cls-82,.cls-83,.cls-84,.cls-85,.cls-86{fill:none;}.cls-44{fill:#42c3ec;}.cls-45{fill:#a6dce3;}.cls-46{fill:#b9b7c4;}.cls-47{fill:#26121a;}.cls-48{fill:url(#linear-gradient-3);}.cls-49{fill:url(#linear-gradient-4);}.cls-50{fill:#6c3d56;}.cls-51{fill:#728f8f;}.cls-52{fill:#5b5141;}.cls-53{fill:#b7def5;}.cls-54{fill:#f4f9fc;}.cls-55{fill:#4c2839;}.cls-56{fill:url(#linear-gradient-5);}.cls-57{fill:url(#linear-gradient-6);}.cls-58{fill:url(#linear-gradient-7);}.cls-59{fill:#e4f4fc;}.cls-60{fill:#911930;}.cls-61{fill:#891844;}.cls-62{stroke:#fff100;stroke-width:0.16px;}.cls-63{fill:#d22d28;}.cls-64{opacity:0.79;}.cls-65{stroke:#f9c8ca;}.cls-65,.cls-66,.cls-67,.cls-68,.cls-69,.cls-70,.cls-71,.cls-72,.cls-73,.cls-74,.cls-75,.cls-76,.cls-77,.cls-78,.cls-79,.cls-80,.cls-81,.cls-82,.cls-83,.cls-84,.cls-85,.cls-86{stroke-width:0.66px;}.cls-66{stroke:#f9c6c8;opacity:0.95;}.cls-67{stroke:#f9c5c7;opacity:0.9;}.cls-68{stroke:#f9c3c5;opacity:0.86;}.cls-69{stroke:#f8c2c4;opacity:0.81;}.cls-70{stroke:#f8c0c2;opacity:0.76;}.cls-71{stroke:#f8bfc1;opacity:0.71;}.cls-72{stroke:#f8bdbf;opacity:0.67;}.cls-73{stroke:#f8bcbe;opacity:0.62;}.cls-74{stroke:#f8babc;opacity:0.57;}.cls-75{stroke:#f8b9bb;opacity:0.52;}.cls-76{stroke:#f7b7b9;opacity:0.48;}.cls-77{stroke:#f7b6b8;opacity:0.43;}.cls-78{stroke:#f7b4b6;opacity:0.38;}.cls-79{stroke:#f7b3b5;opacity:0.33;}.cls-80{stroke:#f7b1b3;opacity:0.29;}.cls-81{stroke:#f7b0b2;opacity:0.24;}.cls-82{stroke:#f7aeb0;opacity:0.19;}.cls-83{stroke:#f6adaf;opacity:0.14;}.cls-84{stroke:#f6abad;opacity:0.1;}.cls-85{stroke:#f6aaac;opacity:0.05;}.cls-86{stroke:#f6a8aa;opacity:0;}.cls-87{fill:#2f70b7;}.cls-88{fill:url(#linear-gradient-8);}.cls-89{fill:url(#radial-gradient-2);}.cls-90{fill:url(#radial-gradient-3);}.cls-91{fill:#a01c44;opacity:0.52;}.cls-92{fill:#e69a6c;}.cls-93{fill:url(#linear-gradient-9);}.cls-94{fill:#7fcdcc;}.cls-95{fill:url(#radial-gradient-4);}.cls-96{fill:#bfe5e9;}.cls-97{fill:#7d89aa;}.cls-98{fill:#c6e6f9;}.cls-99{fill:#9bc6ea;}.cls-100{fill:#68567f;}.cls-101{fill:url(#linear-gradient-10);}.cls-102{fill:url(#linear-gradient-11);}.cls-103{fill:url(#linear-gradient-12);}.cls-104{fill:#5b082c;}.cls-105{mask:url(#mask-2);}.cls-106{opacity:0.77;fill:url(#linear-gradient-13);}.cls-107{fill:url(#linear-gradient-14);}.cls-108{fill:url(#radial-gradient-5);}.cls-109{fill:#113154;}.cls-110{fill:url(#linear-gradient-15);}.cls-111{filter:url(#luminosity-noclip-2);}.cls-112{filter:url(#luminosity-noclip);}</style><filter id="luminosity-noclip" x="107.17" y="-8240" width="30.53" height="32766" filterUnits="userSpaceOnUse" color-interpolation-filters="sRGB"><feFlood flood-color="#fff" result="bg"/><feBlend in="SourceGraphic" in2="bg"/></filter><mask id="mask" x="107.17" y="-8240" width="30.53" height="32766" maskUnits="userSpaceOnUse"><g class="cls-112"/></mask><linearGradient id="linear-gradient" x1="132.28" y1="14" x2="114.7" y2="48.46" gradientUnits="userSpaceOnUse"><stop offset="0" stop-color="#fff"/><stop offset="1"/></linearGradient><radialGradient id="radial-gradient" cx="58.22" cy="74.74" r="4.53" gradientUnits="userSpaceOnUse"><stop offset="0.24" stop-color="#7e749e"/><stop offset="0.72" stop-color="#2e2b3b"/></radialGradient><linearGradient id="linear-gradient-2" x1="205.19" y1="63.92" x2="206.11" y2="63.92" gradientUnits="userSpaceOnUse"><stop offset="0.47" stop-color="#a04823"/><stop offset="0.65" stop-color="#a04823"/></linearGradient><linearGradient id="linear-gradient-3" x1="95.93" y1="58.21" x2="95.93" y2="73.18" gradientUnits="userSpaceOnUse"><stop offset="0.1" stop-color="#556b6b"/><stop offset="1" stop-color="#b7def5"/></linearGradient><linearGradient id="linear-gradient-4" x1="96.81" y1="72.65" x2="96.81" y2="58.78" gradientUnits="userSpaceOnUse"><stop offset="0.1" stop-color="#728f8f"/><stop offset="1" stop-color="#b7def5"/></linearGradient><linearGradient id="linear-gradient-5" x1="120.29" y1="64.07" x2="121.98" y2="84.53" xlink:href="#linear-gradient-3"/><linearGradient id="linear-gradient-6" x1="122.16" y1="83.61" x2="121.2" y2="64.74" xlink:href="#linear-gradient-4"/><linearGradient id="linear-gradient-7" x1="119.25" y1="74.33" x2="124.12" y2="74.33" xlink:href="#linear-gradient-4"/><linearGradient id="linear-gradient-8" x1="203.22" y1="69.51" x2="208.26" y2="69.51" gradientUnits="userSpaceOnUse"><stop offset="0.45" stop-color="#6f8593"/><stop offset="0.68" stop-color="#b7def5"/></linearGradient><radialGradient id="radial-gradient-2" cx="131.61" cy="16.66" r="51.24" gradientUnits="userSpaceOnUse"><stop offset="0" stop-color="#53c2c0"/><stop offset="0.98" stop-color="#1b8589"/></radialGradient><radialGradient id="radial-gradient-3" cx="129.48" cy="16.56" r="47.86" gradientUnits="userSpaceOnUse"><stop offset="0" stop-color="#21a5b4"/><stop offset="0.98" stop-color="#1b6776"/></radialGradient><linearGradient id="linear-gradient-9" x1="7.2" y1="65.33" x2="21.29" y2="65.33" gradientUnits="userSpaceOnUse"><stop offset="0.42" stop-color="#b7def5"/><stop offset="1" stop-color="#b7def5"/></linearGradient><radialGradient id="radial-gradient-4" cx="131.65" cy="16.65" r="51.17" xlink:href="#radial-gradient-2"/><linearGradient id="linear-gradient-10" x1="126.56" y1="72.62" x2="160.16" y2="72.62" gradientUnits="userSpaceOnUse"><stop offset="0.32" stop-color="#b7def5"/><stop offset="0.55" stop-color="#6f8593"/></linearGradient><linearGradient id="linear-gradient-11" x1="139.17" y1="65" x2="147.47" y2="69.75" gradientUnits="userSpaceOnUse"><stop offset="0.47" stop-color="#d15b28"/><stop offset="0.88" stop-color="#d15b28"/></linearGradient><linearGradient id="linear-gradient-12" x1="136.84" y1="66.99" x2="159.31" y2="66.99" xlink:href="#linear-gradient-10"/><filter id="luminosity-noclip-2" x="107.17" y="12.34" width="30.53" height="35.44" filterUnits="userSpaceOnUse" color-interpolation-filters="sRGB"><feFlood flood-color="#fff" result="bg"/><feBlend in="SourceGraphic" in2="bg"/></filter><mask id="mask-2" x="15.43" y="5.94" width="30.53" height="35.44" maskUnits="userSpaceOnUse"><g class="cls-111"><g transform="translate(-91.74 -6.4)"><g class="cls-1"><path class="cls-2" d="M124.32,13.2c2.47-1.14,6.35-2.44,13.38,5.48l-14.13,28.8-16.4.3Z"/></g></g></g></mask><linearGradient id="linear-gradient-13" x1="132.28" y1="14" x2="114.7" y2="48.46" gradientUnits="userSpaceOnUse"><stop offset="0" stop-color="#f6f8f1"/><stop offset="1" stop-color="#31bac4"/></linearGradient><linearGradient id="linear-gradient-14" x1="22.9" y1="23.64" x2="36.12" y2="23.64" xlink:href="#linear-gradient-9"/><radialGradient id="radial-gradient-5" cx="37.71" cy="10.16" r="47.91" xlink:href="#radial-gradient-3"/><linearGradient id="linear-gradient-15" x1="139.19" y1="65.12" x2="145.09" y2="68.5" gradientUnits="userSpaceOnUse"><stop offset="0" stop-color="#f8a884"/><stop offset="0.88" stop-color="#d15b28"/></linearGradient></defs><g class="cls-3"><g id="Layer_1" data-name="Layer 1"><path class="cls-4" d="M111.63,55.21l-.85-1.49L111,51l.78-1.3-.9-.19.18-.17-.26-.24.61-.15-.83-1.73,1.49-1.63-1-.49,0-.31.43-.57,1.46.1-.54-2,2.83-1.05-1.92-1.41.12-2.08.08-1.51,2.12-.36-1.8-1.82.82-.35-.79-1.32L116,30.76l-1-.42.36-.54.08.05.69-1.15.36-.52,0,0,.1-.17c.4-.67.78-1.36,1.27-2.29l.12-.22a13.17,13.17,0,0,1,2-1.66,15.47,15.47,0,0,0,4.59-4.56,3.47,3.47,0,0,1,.26-.41h0l.47,0c.27,0,.56,0,.86,0a6.58,6.58,0,0,0,2.48-.45,53.61,53.61,0,0,1,7.51-1.2c3.14-.38,6.39-.78,8.84-1.32a15.16,15.16,0,0,1,3.07-.28,69.17,69.17,0,0,1,12,1.62l3.08.58A14.6,14.6,0,0,1,165.49,19a13.15,13.15,0,0,0,2.38,1.12l1.49.42.55-.78,1.23.43.33,1.49,1.34-.82,1.11.35.41.12.65.18h0l1.54,1.4.84-1.49h.46l.39.27v.08l-.21.42.54.84.39,3.7.95-.78.1.26.19.06-.13,1.09.29.06.68,1.2a9.61,9.61,0,0,0,.53.82l.63.89h0V32l1.43-.3s.12.44.12.44l.07,1.2a10.91,10.91,0,0,0,.09,1.09v.09l.17.74,0,0,.4,1.45.25.91.4.2.22,1-.7,1,1.44.38-.17.23L187.52,42,187,43.1l-16.66,8L135.42,57.5Z" transform="translate(-91.74 -6.4)"/><path class="cls-5" d="M148,17.82h0a67.7,67.7,0,0,1,11.58,1.57c1,.2,2,.4,3,.57a19.94,19.94,0,0,1,1.84.93,14.15,14.15,0,0,0,2.82,1.3l2.24.64L170,25.1l3.08-1.89.17.05.46.14.23.07L176.73,26l.53,4.91,1.79-1.46.13.23c.2.35.41.69.63,1l.24.34L180,34.65l1.79-.38c0,.13,0,.27.06.41v0l-.08.1.21.77.2,1.35.2.1.07.27.41,1.43-1.64,2.43,3.15.82L169.63,49l-34.31,6.29L113,53.17l.14-1.52.63-1.06.74-.18-.28-.59,1-1.64-1.71-.34,0-.36-.35.13h0l1.07-1.16,1.6.06-.39-1.39.21-.23-.31-.14-.3-1.06,4.73-1.74-4.21-3.09,0-.21h0l0-.34v-.16l4.5-.78-2.48-2.49.19-.09-1.11-1.83,3.44-2.79-1.89-.78,1.19-1.7-.19-.13c.14-.26.29-.53.44-.82s1-.81,1.5-1.18a19.08,19.08,0,0,0,4.72-4.48h.22a8.84,8.84,0,0,0,3.25-.59,65,65,0,0,1,7-1.07c3.19-.39,6.49-.79,9.05-1.35a12,12,0,0,1,2.6-.23m0-4.32a16.21,16.21,0,0,0-3.53.34c-5,1.11-14.2,1.66-16.66,2.61a4.75,4.75,0,0,1-1.71.3c-.49,0-.92-.05-1.33-.05-.81,0-1.5.22-2.21,1.53-1.44,2.66-5.69,4.59-6.57,6.23-.55,1-.93,1.72-1.35,2.42a1.2,1.2,0,0,0-.56-.15A1.08,1.08,0,0,0,113,27.81a1.1,1.1,0,0,0,.45.88l-.09.14a1,1,0,0,0-.75.53,1.15,1.15,0,0,0-.41-.08,1.08,1.08,0,0,0-.42,2.08,1.09,1.09,0,0,0-.4.84,1,1,0,0,0,.16.56,1.09,1.09,0,0,0-.66,1,1.11,1.11,0,0,0,.31.76,1.08,1.08,0,0,0,.15,2.15c0,.16,0,.33,0,.49a1.06,1.06,0,0,0-.21.63,1.08,1.08,0,0,0,.15.53l0,.4a1.09,1.09,0,0,0-.49,2,1.08,1.08,0,0,0-.71,1,1.35,1.35,0,0,0,0,.29h0a1.09,1.09,0,0,0-.86,1.74,1.08,1.08,0,0,0-.21.52h0a1.09,1.09,0,0,0-.46,2.07,1,1,0,0,0-.18,1.19,1.08,1.08,0,0,0-.47,1.85,1.12,1.12,0,0,0-.35.81,1.08,1.08,0,0,0,.87,1.06,1,1,0,0,0-.16.55h0a1.09,1.09,0,0,0,0,2.17,1.17,1.17,0,0,0,.38-.07.34.34,0,0,0,0,.1,1,1,0,0,0,.15.54,1.09,1.09,0,0,0,0,2.12c0,.28,0,.47,0,.47l26.71,2.57L171,53.17l17.49-8.4a34.58,34.58,0,0,0,1.69-3.3s-.67-.58-1.38-1.27a1.07,1.07,0,0,0-.6-1.68,1.12,1.12,0,0,0,.18-.61,1.08,1.08,0,0,0-1.08-1.08h-.13a1.11,1.11,0,0,0-.57-.73c0-.13-.08-.27-.11-.4a1.13,1.13,0,0,0,.22-.65,1.09,1.09,0,0,0-.59-1v0c0-.26-.05-.57-.07-.89a1.08,1.08,0,0,0-.24-2c0-.14-.08-.27-.13-.4a1.22,1.22,0,0,0,.07-.38,1.08,1.08,0,0,0-1.09-1.08l-.22,0v0a1.09,1.09,0,0,0-1.07-1.09c-.14-.2-.28-.41-.41-.64a1.05,1.05,0,0,0,.38-.82,1.08,1.08,0,0,0-.85-1.06.53.53,0,0,0,0-.13,1.08,1.08,0,0,0-.79-1l0-.07a1.08,1.08,0,0,0-.26-2.13,1.11,1.11,0,0,0-.69.24,1.11,1.11,0,0,0-.17-.47,1.08,1.08,0,0,0-.25-1.31c0-.09,0-.18-.05-.27a1.09,1.09,0,0,0,.27-.72.1.1,0,0,0-.11-.11c-.19,0-.6.25-.86.25a.25.25,0,0,1-.13,0c.14-.19-.41-.3-.41-.55s-.11-.12-.25-.12h-.21a.37.37,0,0,1-.29-.08s0,0,0,0-.3.18-.42.18-.07,0-.07-.07c0-.28,0-.36-.16-.36a5,5,0,0,1-.66.1,1.08,1.08,0,0,0-.94.55,1.06,1.06,0,0,0-.73-.29,1.36,1.36,0,0,0-.36.06l-.35-.1a1.08,1.08,0,0,0-1.08-1,1.11,1.11,0,0,0-.57.16,1.07,1.07,0,0,0-1-.84,1.06,1.06,0,0,0-.86.42l-.36-.12h0a1.08,1.08,0,0,0-1.08-1.08c-.37,0-.9,1.13-1.09,1.41-1-.3-3.62-2.07-5-2.31-4.71-.85-10.66-2.24-15.45-2.24Z" transform="translate(-91.74 -6.4)"/><path class="cls-6" d="M155.34,20.6a.4.4,0,0,1,.31,0l-.35-.94a1.49,1.49,0,0,0,1.11-1.28,1.45,1.45,0,0,0-.48-1.62l.72-.72a.43.43,0,0,1-.31-.08c-.14-.12-.19-.23-.47-.17a.53.53,0,0,1-.45-.08,4.38,4.38,0,0,0,.16,1c-.49,0-1,.55-1.13,1.28a1.45,1.45,0,0,0,.5,1.63,4.2,4.2,0,0,0-.56.82.51.51,0,0,1,.44.1C155.06,20.73,155.15,20.65,155.34,20.6Z" transform="translate(-91.74 -6.4)"/><polygon class="cls-7" points="31.13 15.91 28.52 17.44 29.48 19.16 31.84 17.54 31.13 15.91"/><polygon class="cls-8" points="33.05 17.01 31.84 17.54 32.22 20.98 33.56 20.21 33.05 17.01"/><polygon class="cls-9" points="48.4 17.01 43.45 19.16 43.96 20.21 48.82 18.29 48.4 17.01"/><polygon class="cls-10" points="57.04 8.66 57.4 12.94 58.96 12.56 58.42 8.22 57.04 8.66"/><polygon class="cls-8" points="82.28 9.62 80.58 10.08 80.94 11.83 83.82 11.09 83.19 9.62 82.28 9.62"/><polygon class="cls-11" points="75.18 7.51 70.66 7.51 70.75 8.9 75.45 8.9 75.18 7.51"/><polygon class="cls-11" points="79.1 7.72 77.17 8.26 77.86 10.46 79.72 9.95 79.1 7.72"/><rect class="cls-12" x="54.18" y="9.65" width="1.35" height="2.41"/><polygon class="cls-13" points="24.65 29.58 22.2 30.2 22.2 32.31 25.09 31.48 24.65 29.58"/><circle class="cls-14" cx="60.3" cy="7.48" r="0.91"/><circle class="cls-15" cx="75.77" cy="9.8" r="1.16"/><circle class="cls-13" cx="46.62" cy="11.5" r="1.1"/><circle class="cls-16" cx="42.1" cy="6.46" r="1.08"/><path class="cls-17" d="M184.87,25.32s.53-1.61-1.7-2.24-2.29.33-2.29.33" transform="translate(-91.74 -6.4)"/><path class="cls-17" d="M180.36,20.63s1.81.7,2,2.23" transform="translate(-91.74 -6.4)"/><path class="cls-17" d="M169.81,11.9s2.7.61,2.7,2.23" transform="translate(-91.74 -6.4)"/><path class="cls-18" d="M148.7,14s-2.78-1.64-3.75-1-.69,2.65-.69,2.65-3.15-1.78-4.21-1.13" transform="translate(-91.74 -6.4)"/><path class="cls-18" d="M136.4,23.42s.2-2.45-2.2-2.32S132,22.32,132,22.32s-1.77-4.45-4.57-2.39-1,2.39-1,2.39" transform="translate(-91.74 -6.4)"/><path class="cls-18" d="M163.2,13a2,2,0,0,0-3-1c-2,1.28-1.31,2.14-1.31,2.14s-3.72-3-5.15.13.32,2.56.32,2.56" transform="translate(-91.74 -6.4)"/><polygon class="cls-19" points="66.82 10.06 66.12 11.49 66.34 11.71 67.04 10.28 66.82 10.06"/><polygon class="cls-19" points="67.13 10.37 66.43 11.79 66.65 12.01 67.35 10.59 67.13 10.37"/><polygon class="cls-19" points="67.8 11.04 67.1 12.46 67.32 12.68 68.02 11.26 67.8 11.04"/><polygon class="cls-19" points="64.63 10 64.69 10.06 64.8 9.83 64.63 10"/><polygon class="cls-19" points="66.15 9.39 65.45 10.82 65.67 11.04 66.37 9.62 66.15 9.39"/><polygon class="cls-19" points="65.84 9.09 65.14 10.51 65.36 10.73 66.06 9.31 65.84 9.09"/><polygon class="cls-19" points="68.33 11.57 68.1 11.35 67.41 12.77 68.03 12.16 68.33 11.57"/><polygon class="cls-20" points="65.71 8.96 64.8 9.83 64.69 10.06 65.14 10.51 65.84 9.09 65.71 8.96"/><polygon class="cls-20" points="66.37 9.62 65.67 11.04 66.12 11.49 66.82 10.06 66.37 9.62"/><polygon class="cls-20" points="67.35 10.59 66.65 12.01 67.1 12.46 67.8 11.04 67.35 10.59"/><polygon class="cls-20" points="68.48 11.73 68.33 11.57 68.03 12.16 68.48 11.73"/><polygon class="cls-21" points="68.02 11.26 67.32 12.68 67.41 12.77 67.41 12.77 68.1 11.35 68.02 11.26"/><polygon class="cls-21" points="67.04 10.28 66.34 11.71 66.43 11.79 67.13 10.37 67.04 10.28"/><polygon class="cls-21" points="66.06 9.31 65.36 10.73 65.45 10.82 66.15 9.39 66.06 9.31"/><polyline class="cls-20" points="65.2 9.44 64.95 8.02 64.57 8.04 64.57 8.41 64.16 8.43 64.19 8.83 63.8 8.82 63.82 9.23 65.2 9.44"/><polyline class="cls-20" points="67.94 12.26 69.34 12.54 69.31 12.93 68.95 12.92 68.92 13.33 68.52 13.29 68.52 13.69 68.11 13.65 67.94 12.26"/><path class="cls-22" d="M145.18,58.66c-17.67-.16-37.87-1.5-41.75-3.42a10.56,10.56,0,0,0,.94-4.39v-.13l.11-.17a37.59,37.59,0,0,1,3.45-3.11l2.57-2.19-.77-.87.12,0,.93,1,1.31-1.78a3.44,3.44,0,0,0,.27-.38l1-.23-.55-.46.88-1.5.65,0-.26-.7,1.64-2.76-.91.47,1.12-2,.7.21-.11-2.08h1.84l-.26-1.07.88-.4.93-.39.54-.21.11.37,1.23-.9.36-.15-.06-.08.4-.29.32.08.54-.19.26-.08.69-.19.42,1.72,2-1.92L128.46,32l.28-.91H130l1.76,1,.27-.7.11.33,1.8-.52c.28-.09.6-.2.91-.33l1.07-.43,0-.32.25.16L138,29.14l2.76,4L140.25,27l.33.08.74-.74a16.65,16.65,0,0,0,2-2.41l.47-.69.56.37.06,1.14.64-.67,1,.67-.28-1.41,1.43-1.47h1.64v-1.3l1.49.12,0-.83.93-.13.22,0,.09,0,.14,0,.14,0,.74,0h1.07l.23-.26,1.6,1.43.37-1,2.37.31.17-.17.11.22,2.76.38.22-.47,1,1.29.65-.87,0,.32,2,0h.61l.61,0-.24.27,2.09.48.22.14-.33.5,1,1.07a10,10,0,0,0,.88.84l.17.14,0,0,.45.29,1.54,1.27.07-.23.46.3.27,0,1.19,1.2.16-.16,1.34.58.48.29-1.17,1.9,3-.09.68,2.52.56-.5,1.66.56.77,1.41.07,0-.18.31,1.53.65,0,.22.28.57a6,6,0,0,1,.32.75l.11.33.07.08v.11l.08.35c.09.38.15.73.21,1.08a6.78,6.78,0,0,0,1.45,3.66l0,10.49Z" transform="translate(-91.74 -6.4)"/><path class="cls-23" d="M152.59,21.5h.89L156.26,24l.81-2.1.55.08,1.57.22.47.06,1.24.17,1.56,2.08,1.32-1.76,1,0h.13l1.47.34,1,1.08-.3.25,1.87,1.28L173,29.07l.07-.23.14.15-1.75,2.84,4.9-.18-.63.9,1.12.38.74,2.74,1.63-1.48-.4.69,1.69.72.33.6.48-.25.14,0,.13.27c.08.17.16.35.23.53l.1.31.09.36c.07.34.13.67.18,1a9.37,9.37,0,0,0,1.43,4l0,8.28L145,56.81c-17.42-.17-33.65-1.34-39.26-2.75a10.66,10.66,0,0,0,.44-2.68c.63-.61,2-1.74,2.9-2.53l1.14-1,.15-.13.41.45,1.93-2.45.39-.33-.07-.08.38-.48,3.86-.91-1.1-.93.7,0-.85-2.47,1.25-2.12,1.23.37-.1-2.28.24-.4,2,0-.3-1.27,2.27-1.68.3-.12.7,2.88,3.13-3,2.63,2.13.6-1.93.85.48.09.25.23-.07,1.53.86.55-1.45,1-.29.09,0,.08,0a9.63,9.63,0,0,0,1.09-.39l.55-.22.1.06.53-.32.81-.33L143,39.59l-.8-11.5.46-.46.08-.08.08,1.52,2.54-2.61,3.4,2.25-.94-4.78.21-.22h2.71V22.56l1.45.12V21.51h.43M156,16.81a1.33,1.33,0,0,0-1.25.86,1.35,1.35,0,0,0-1.92.13h-.22l-.85,0-.23,0a1.34,1.34,0,0,0-.46.08l-.15,0a1.34,1.34,0,0,0-2.44.77h-.11A1.34,1.34,0,0,0,147,20a1.32,1.32,0,0,0-1,.4,1.34,1.34,0,0,0-2.68.07,2.11,2.11,0,0,0,0,.26,1.32,1.32,0,0,0-.74-.22,1.34,1.34,0,0,0-1.34,1.34,1.31,1.31,0,0,0,.49,1A15.57,15.57,0,0,1,140,25a1.86,1.86,0,0,0-.33,0,1.34,1.34,0,0,0-1.34,1.35.28.28,0,0,0,0,.09,1.36,1.36,0,0,0-1.11-.58,1.34,1.34,0,0,0-1,2.21l0,0a1.27,1.27,0,0,0-.7-.2,1.33,1.33,0,0,0-1.33,1.25c-.26.1-.52.2-.77.27l-.08,0a1.34,1.34,0,0,0-2.52,0,1.32,1.32,0,0,0-.66-.17,1.34,1.34,0,0,0-2.62-.4,1.36,1.36,0,0,0-.84-.3,1.35,1.35,0,0,0-.93.38,1.34,1.34,0,0,0-2.64.25,2.91,2.91,0,0,0-.39.12,1.34,1.34,0,0,0-.35-.05,1.39,1.39,0,0,0-.8.26,1.34,1.34,0,0,0-2.62.39,1.39,1.39,0,0,0,.26.8c-.35.14-.68.27-1,.42a1.29,1.29,0,0,0-.89-.35A1.34,1.34,0,0,0,116,32.08a1.55,1.55,0,0,0,0,.31h0a1.35,1.35,0,0,0-1.35,1.34s0,0,0,.06a1.32,1.32,0,0,0-.39-.06,1.34,1.34,0,0,0-.56,2.56l-.57,1-.22,0a1.34,1.34,0,0,0-1.34,1.34,1.27,1.27,0,0,0,.08.44h-.08a1.31,1.31,0,0,0-1.13.63l-.21,0a1.34,1.34,0,0,0-.87,2.36,1.35,1.35,0,0,0-1,.89,1.34,1.34,0,0,0-.51,2.14A45.73,45.73,0,0,0,103,49.5c-1.07,1.55.44,1-1.55,5.81s43.91,5.2,43.91,5.2l42-6.63L187.34,41c-1.4-1.1-1.3-2.55-1.72-4.36a1.5,1.5,0,0,0,0-.2,1.31,1.31,0,0,0-.33-.88,9.37,9.37,0,0,0-.4-1,1.1,1.1,0,0,0,0-.26,1.34,1.34,0,0,0-.81-1.24,1.37,1.37,0,0,0,.18-.67A1.34,1.34,0,0,0,183,31.1a1.38,1.38,0,0,0-.62.15,1.37,1.37,0,0,0-.74-.62,1.32,1.32,0,0,0,.24-.76,1.34,1.34,0,0,0-1.34-1.35,1.36,1.36,0,0,0-.9.35,1.35,1.35,0,0,0-1.3-1h-.05a1.27,1.27,0,0,0,.2-.7,1.34,1.34,0,0,0-1.34-1.34,1.29,1.29,0,0,0-.67.18l-.13-.07a1.34,1.34,0,0,0-2.23-1.35,1.31,1.31,0,0,0-.8-.38l0,0a1.37,1.37,0,0,0,.5-1.05,1.34,1.34,0,0,0-2.62-.41,8.46,8.46,0,0,1-.68-.65,1.37,1.37,0,0,0,.22-.74,1.34,1.34,0,0,0-1-1.31,1.3,1.3,0,0,0,.35-.9,1.34,1.34,0,0,0-2.65-.27,1.33,1.33,0,0,0-.71-.2,1.31,1.31,0,0,0-.94.38h-.82a1.35,1.35,0,0,0-1.34-1.26,1.33,1.33,0,0,0-1.07.54,1.32,1.32,0,0,0-1.07-.54,1.35,1.35,0,0,0-1.22.78l-.47-.07a1.35,1.35,0,0,0-1.18-.71,1.3,1.3,0,0,0-1,.42l-.23,0v0A1.34,1.34,0,0,0,156,16.81ZM110.65,42.46l-.14-.13a1.66,1.66,0,0,0,.31-.12,2.79,2.79,0,0,1-.17.25Z" transform="translate(-91.74 -6.4)"/><polygon class="cls-19" points="92.45 30.13 90.96 29.59 90.77 29.84 92.25 30.37 92.45 30.13"/><polygon class="cls-19" points="92.18 30.47 90.69 29.93 90.49 30.18 91.98 30.71 92.18 30.47"/><polygon class="cls-19" points="91.58 31.21 90.09 30.67 89.9 30.91 91.39 31.45 91.58 31.21"/><polygon class="cls-19" points="92.28 27.95 92.22 28.02 92.46 28.1 92.28 27.95"/><polygon class="cls-19" points="93.04 29.39 91.55 28.85 91.36 29.1 92.85 29.63 93.04 29.39"/><polygon class="cls-19" points="93.31 29.05 91.82 28.51 91.63 28.76 93.12 29.29 93.31 29.05"/><polygon class="cls-19" points="91.12 31.79 91.31 31.55 89.83 31.01 90.49 31.57 91.12 31.79"/><polygon class="cls-20" points="93.43 28.91 92.46 28.1 92.22 28.02 91.82 28.51 93.31 29.05 93.43 28.91"/><polygon class="cls-20" points="92.85 29.63 91.36 29.1 90.96 29.59 92.45 30.13 92.85 29.63"/><polygon class="cls-20" points="91.98 30.71 90.49 30.18 90.09 30.67 91.58 31.21 91.98 30.71"/><polygon class="cls-20" points="90.98 31.97 91.12 31.79 90.49 31.57 90.98 31.97"/><polygon class="cls-21" points="91.39 31.45 89.9 30.91 89.82 31.01 89.83 31.01 91.31 31.55 91.39 31.45"/><polygon class="cls-21" points="92.25 30.37 90.77 29.84 90.69 29.93 92.18 30.47 92.25 30.37"/><polygon class="cls-21" points="93.12 29.29 91.63 28.76 91.55 28.85 93.04 29.39 93.12 29.29"/><polyline class="cls-20" points="92.89 28.46 94.28 28.06 94.22 27.67 93.85 27.72 93.78 27.31 93.39 27.39 93.36 26.99 92.95 27.06 92.89 28.46"/><polyline class="cls-20" points="90.39 31.48 90.26 32.91 89.87 32.92 89.84 32.56 89.43 32.57 89.43 32.17 89.03 32.22 89.02 31.81 90.39 31.48"/><polygon class="cls-24" points="78.22 13.77 75.72 14.69 76.23 15.91 79.43 15.22 78.22 13.77"/><polygon class="cls-25" points="89.14 21.63 88.05 22.54 89.33 25.54 90.55 24.49 89.14 21.63"/><polygon class="cls-26" points="54.73 23.89 53.05 23.85 52.69 26.1 54.39 26.1 54.73 23.89"/><polygon class="cls-27" points="83.33 22.05 80.82 22.05 80.73 23.48 83.61 23.48 83.33 22.05"/><polygon class="cls-26" points="33.56 31.95 31.52 32.04 31.15 34.89 32.86 34.89 33.56 31.95"/><circle class="cls-28" cx="47.72" cy="28.24" r="1.1"/><circle class="cls-29" cx="71.93" cy="18.58" r="1.13"/><path class="cls-30" d="M132,33s-1.19-1.23-2-.17c0,0-1.23-2-2.83-.44,0,0-2.19-1-1.85,1.65" transform="translate(-91.74 -6.4)"/><polygon class="cls-19" points="82.5 17.74 83.55 17.32 83.53 17.09 82.48 17.52 82.5 17.74"/><polygon class="cls-19" points="82.47 17.43 83.53 17 83.51 16.78 82.46 17.2 82.47 17.43"/><polygon class="cls-19" points="82.43 16.75 83.48 16.32 83.46 16.1 82.41 16.52 82.43 16.75"/><polygon class="cls-19" points="83.66 18.83 83.65 18.77 83.48 18.84 83.66 18.83"/><polygon class="cls-19" points="82.54 18.42 83.6 18 83.58 17.77 82.53 18.2 82.54 18.42"/><polygon class="cls-19" points="82.56 18.74 83.62 18.31 83.6 18.09 82.55 18.51 82.56 18.74"/><polygon class="cls-19" points="82.39 16.21 82.4 16.43 83.45 16.01 82.83 16.03 82.39 16.21"/><polygon class="cls-6" points="82.58 18.87 83.48 18.84 83.65 18.77 83.62 18.31 82.56 18.74 82.58 18.87"/><polygon class="cls-6" points="82.53 18.2 83.58 17.77 83.55 17.32 82.5 17.74 82.53 18.2"/><polygon class="cls-6" points="82.46 17.2 83.51 16.78 83.48 16.32 82.43 16.75 82.46 17.2"/><polygon class="cls-6" points="82.38 16.05 82.39 16.21 82.83 16.03 82.38 16.05"/><polygon class="cls-21" points="82.41 16.52 83.46 16.1 83.46 16.01 83.45 16.01 82.4 16.43 82.41 16.52"/><polygon class="cls-21" points="82.48 17.52 83.53 17.09 83.53 17 82.47 17.43 82.48 17.52"/><polygon class="cls-21" points="82.55 18.51 83.6 18.09 83.6 18 82.54 18.42 82.55 18.51"/><polyline class="cls-6" points="83.08 18.86 82.54 19.73 82.76 19.91 82.94 19.71 83.17 19.9 83.34 19.67 83.55 19.87 83.73 19.63 83.08 18.86"/><polyline class="cls-6" points="82.93 16.02 82.3 15.2 82.5 15 82.69 15.19 82.9 14.98 83.1 15.2 83.29 14.98 83.5 15.19 82.93 16.02"/><path class="cls-30" d="M177.72,28.11a2.66,2.66,0,0,0-2.12-1.51s.78-1.38-1.28-2.06-2.2.51-2.2.51" transform="translate(-91.74 -6.4)"/><path class="cls-30" d="M163.27,22.13s.12-1.59-1.57-1.16-1,1.35-1,1.35.71-2.63-2-2.37-2.38,2.37-2.38,2.37-2.55-1.3-3.81,1.1" transform="translate(-91.74 -6.4)"/><path class="cls-30" d="M142.22,31.35s-1.57-2.13-4.16-.34" transform="translate(-91.74 -6.4)"/><path class="cls-31" d="M162,32.32s.67-1.72-.43-2-2.63,1.18-1.78,1.88c0,0-2.29-2.73-3.52-1.35a1.93,1.93,0,0,0,0,2.67" transform="translate(-91.74 -6.4)"/><path class="cls-30" d="M164.21,33.11a3.33,3.33,0,0,0-3.76-.61" transform="translate(-91.74 -6.4)"/><path class="cls-18" d="M165.91,13.93a3.33,3.33,0,0,0-3.76-.61" transform="translate(-91.74 -6.4)"/><path class="cls-30" d="M135.7,37.92s.05-1.78-1.86-.91-.83,1.17-.83,1.17" transform="translate(-91.74 -6.4)"/><polyline class="cls-32" points="48.82 33.84 48.82 32.5 46.62 32.35 46.62 33.99"/><polyline class="cls-31" points="69.15 20.21 69.15 18.29 66.49 18.61 66.39 20.21"/><polyline class="cls-33" points="65.53 22.32 66.25 21.36 68.24 21.9 67.1 23.72"/><polyline class="cls-34" points="63.19 23.75 61.64 20.88 63.19 19.82 65.1 22.2"/><polyline class="cls-26" points="86.84 26.48 86.94 24.41 85.01 24.41 84.59 26.48"/><polyline class="cls-28" points="29.67 35.25 27.43 36.08 29.02 38.57 31.52 37.84"/><polygon class="cls-35" points="56.92 75.33 55.63 70.75 59.4 70.3 60.36 74.9 56.92 75.33"/><path class="cls-36" d="M152.11,81.63A1.76,1.76,0,1,1,150.5,80,1.63,1.63,0,0,1,152.11,81.63Z" transform="translate(-91.74 -6.4)"/><polygon class="cls-37" points="2.36 58.53 1.72 56.58 1.18 51.97 1.89 49.05 2.36 48.61 3.97 49.05 4.12 52.44 2.36 58.53"/><path class="cls-37" d="M113.12,71.42c.36.77,1.65,4,1.65,4-.15-1.34-.35-2.88,1.19-3.21l7-14.44h-8.16l-3.06,6.51Z" transform="translate(-91.74 -6.4)"/><path class="cls-38" d="M204.45,61.7a28.43,28.43,0,0,1-5.19.48l3.24,4.72c.55-.08,1.28-.21,1.94-.33A11.28,11.28,0,0,0,204.45,61.7Z" transform="translate(-91.74 -6.4)"/><path class="cls-39" d="M205.34,66.4a14.21,14.21,0,0,0-.15-4.85l.54-.11c0-.11-.09-.23-.14-.35a43,43,0,0,1-7.6.78l4.35,5.39a29.29,29.29,0,0,0,3.45-.71c0-.08,0-.16.05-.25Zm-2.84.5-3.24-4.72a28.43,28.43,0,0,0,5.19-.48,11.28,11.28,0,0,1,0,4.87C204.69,66.52,203.25,66.79,202.5,66.9Z" transform="translate(-91.74 -6.4)"/><path class="cls-40" d="M205.73,61.44l-.54.11a14.21,14.21,0,0,1,.15,4.85l.5-.1A9.39,9.39,0,0,0,205.73,61.44Z" transform="translate(-91.74 -6.4)"/><path class="cls-41" d="M197.13,53.48l1.71,8.4,1.56-.1a38.16,38.16,0,0,0,5.19-.69A39.62,39.62,0,0,0,197.13,53.48Z" transform="translate(-91.74 -6.4)"/><path class="cls-42" d="M205.59,61.09c-.51-1.45-5.11-7.59-8.89-9.71l.43,2.1A39.62,39.62,0,0,1,205.59,61.09Z" transform="translate(-91.74 -6.4)"/><path class="cls-43" d="M177.22,14.73l.08.07Z" transform="translate(-91.74 -6.4)"/><path class="cls-44" d="M177.3,14.8l.13.11Z" transform="translate(-91.74 -6.4)"/><path class="cls-45" d="M158.85,7.32a80.89,80.89,0,0,0-31.92,1.57A253,253,0,0,0,158.85,7.32Z" transform="translate(-91.74 -6.4)"/><path class="cls-45" d="M124.74,9.47a5.31,5.31,0,0,0-1.26.63,9.35,9.35,0,0,0-1.1.87A17.81,17.81,0,0,0,120.46,13c-.59.73-1.14,1.49-1.67,2.27s-1,1.57-1.52,2.38c-1,1.61-1.9,3.26-2.77,4.93S112.78,26,112,27.67s-1.61,3.41-2.39,5.13S108,36.25,107.27,38s-1.5,3.47-2.24,5.21-1.48,3.48-2.24,5.21c1.26-3.57,2.58-7.11,4-10.62.7-1.75,1.45-3.5,2.2-5.23s1.55-3.46,2.37-5.17a96.46,96.46,0,0,1,5.46-10,39.87,39.87,0,0,1,3.38-4.59,18.34,18.34,0,0,1,2.05-2A6.85,6.85,0,0,1,124.74,9.47Z" transform="translate(-91.74 -6.4)"/><path class="cls-46" d="M93.23,54.21c-.22.78-.7,1.34-1.09,1.23s-.51-.83-.29-1.62.7-1.34,1.08-1.24S93.45,53.42,93.23,54.21Z" transform="translate(-91.74 -6.4)"/><path class="cls-36" d="M97.15,76.39a42.45,42.45,0,0,0,6.94-.07c1.62-.62,2.91-5.35,3-11.09.06-6.18-1.35-11.2-3.13-11.22H97.41Z" transform="translate(-91.74 -6.4)"/><path class="cls-47" d="M100.57,65.23c-.06,6.18-1.55,11.17-3.34,11.16s-3.19-5-3.14-11.22S95.64,54,97.43,54,100.63,59.05,100.57,65.23Z" transform="translate(-91.74 -6.4)"/><path class="cls-48" d="M95.55,65.8c0-3.58.54-6.54,1.36-7-.19-.3-.39-.47-.59-.47-.91,0-1.61,3.34-1.55,7.43s.84,7.39,1.75,7.37c.2,0,.39-.16.57-.46C96.27,72.29,95.6,69.36,95.55,65.8Z" transform="translate(-91.74 -6.4)"/><path class="cls-49" d="M98.07,65.75c0-3.16-.52-5.86-1.16-6.91-.82.42-1.41,3.38-1.36,7s.72,6.49,1.54,6.91C97.7,71.65,98.11,68.93,98.07,65.75Z" transform="translate(-91.74 -6.4)"/><path class="cls-50" d="M98.14,67.2c0,2.78-.47,5.08-1.06,6a.84.84,0,0,1-.62.47c-1,0-1.82-3.28-1.89-7.35v.92c.06,4.09.91,7.39,1.89,7.38.22,0,.43-.17.62-.47.66-1.05,1.1-3.77,1.06-7Z" transform="translate(-91.74 -6.4)"/><path class="cls-51" d="M96.19,66.64a2.62,2.62,0,0,1-.88-1,13.38,13.38,0,0,0,.11,2.1c.24,1.83.8,2.67,1.25,1.9a6.6,6.6,0,0,0,.52-2.77l-.06-.16A1,1,0,0,1,96.19,66.64Z" transform="translate(-91.74 -6.4)"/><path class="cls-51" d="M97.13,66.72l.06.16a1.15,1.15,0,0,0,0-.19S97.16,66.71,97.13,66.72Z" transform="translate(-91.74 -6.4)"/><path class="cls-52" d="M96.21,66.28a2.47,2.47,0,0,1-.86-1.42c0,.25,0,.52,0,.79a2.62,2.62,0,0,0,.88,1,1,1,0,0,0,.94.08c-.06-.16-.12-.33-.18-.52A.58.58,0,0,1,96.21,66.28Z" transform="translate(-91.74 -6.4)"/><path class="cls-52" d="M97.19,65.93a1.05,1.05,0,0,1-.24.27c.06.19.12.36.18.52,0,0,.05,0,.07,0C97.2,66.44,97.2,66.18,97.19,65.93Z" transform="translate(-91.74 -6.4)"/><path class="cls-53" d="M96.37,63.28c0-.24-.06-.49-.08-.74-.16-.06-.32,0-.47.3a5.65,5.65,0,0,0-.47,2,2.47,2.47,0,0,0,.86,1.42A.58.58,0,0,0,97,66.2,17.23,17.23,0,0,1,96.37,63.28Z" transform="translate(-91.74 -6.4)"/><path class="cls-53" d="M97.11,64.83c-.16-1.31-.48-2.15-.82-2.29,0,.25,0,.5.08.74A17.23,17.23,0,0,0,97,66.2a1.05,1.05,0,0,0,.24-.27C97.18,65.56,97.15,65.19,97.11,64.83Z" transform="translate(-91.74 -6.4)"/><path class="cls-51" d="M96.08,64.93a2.73,2.73,0,0,0-.2,1c.16-.06.44,0,.73.39a5.43,5.43,0,0,0,0-.69C96.48,65,96.26,64.61,96.08,64.93Z" transform="translate(-91.74 -6.4)"/><path class="cls-52" d="M96.61,66.37c-.29-.38-.57-.45-.73-.39v.12c0,.1,0,.2,0,.3.1-.16.24-.22.37-.14a.93.93,0,0,1,.33.55c0-.1,0-.2,0-.3Z" transform="translate(-91.74 -6.4)"/><path class="cls-53" d="M95.89,66.4a2.73,2.73,0,0,0,0,.41c.09.72.31,1,.49.75a2,2,0,0,0,.18-.75.93.93,0,0,0-.33-.55C96.13,66.18,96,66.24,95.89,66.4Z" transform="translate(-91.74 -6.4)"/><path class="cls-54" d="M96.39,63.4h0c.06.53.14,1,.23,1.45a.72.72,0,0,0,.26.32C96.9,64,96.67,63.52,96.39,63.4Z" transform="translate(-91.74 -6.4)"/><path class="cls-53" d="M95.62,67.68c.27.12.5.62.49,1.7C95.8,69.2,95.61,68.53,95.62,67.68Z" transform="translate(-91.74 -6.4)"/><path class="cls-36" d="M170.86,78.06c1.17,2.86,4.35,7.29,7.67,7.29a37.34,37.34,0,0,0,8.65-1c2.91-1.81,4.51-4.12,5.51-8.45Z" transform="translate(-91.74 -6.4)"/><path class="cls-55" d="M126.39,78.2c.06-1.31.07-2.69,0-4.11-.39-8.33-3.06-15-6-14.84-.92,0-1.75.76-2.45,2A28.17,28.17,0,0,0,126.39,78.2Z" transform="translate(-91.74 -6.4)"/><path class="cls-47" d="M118,61.24c-1.5,2.65-2.36,7.65-2.1,13.34.39,8.33,3.06,15,6,14.83,2.4-.11,4.21-4.85,4.54-11.21A28.17,28.17,0,0,1,118,61.24Z" transform="translate(-91.74 -6.4)"/><path class="cls-56" d="M124.77,74.16c.27,5.76-1.14,10.5-3.14,10.59s-3.85-4.49-4.12-10.25,1.14-10.49,3.14-10.59S124.5,68.41,124.77,74.16Z" transform="translate(-91.74 -6.4)"/><path class="cls-50" d="M121.73,85.52c-2.15.1-4.13-4.49-4.42-10.25,0-.15,0-.3,0-.45,0,.75,0,1.52,0,2.32.29,5.75,2.27,10.34,4.42,10.25s3.57-4.59,3.38-10.13C125,81.91,123.58,85.44,121.73,85.52Z" transform="translate(-91.74 -6.4)"/><path class="cls-57" d="M124.77,74.18c.25,5.28-.93,9.63-2.64,9.71s-3.28-4.14-3.53-9.42.93-9.63,2.64-9.71S124.52,68.9,124.77,74.18Z" transform="translate(-91.74 -6.4)"/><path class="cls-36" d="M121.85,89.41c2.9-.14,4.93-7,4.54-15.32s-3.06-15-6-14.84h-.05a74,74,0,0,1,10.76.1c2.61.88,4.89,7.1,5.25,14.74s-1.38,14.25-4,15.2a65.83,65.83,0,0,1-10.79.12Z" transform="translate(-91.74 -6.4)"/><path class="cls-58" d="M124.1,74.21c.18,3.75-.76,6.83-2.1,6.89s-2.55-2.92-2.73-6.66.76-6.82,2.1-6.89S123.93,70.47,124.1,74.21Z" transform="translate(-91.74 -6.4)"/><path class="cls-51" d="M120.9,75a4.81,4.81,0,0,1-1.8-1.51,17.14,17.14,0,0,0,.29,3.27c.55,2.83,1.71,4.12,2.6,2.92a8.39,8.39,0,0,0,.94-4.34l-.12-.23A2.51,2.51,0,0,1,120.9,75Z" transform="translate(-91.74 -6.4)"/><path class="cls-51" d="M122.81,75.07l.12.23a2.62,2.62,0,0,0,0-.28Z" transform="translate(-91.74 -6.4)"/><path class="cls-52" d="M120.93,74.41a4,4,0,0,1-1.77-2.2,12.41,12.41,0,0,0-.06,1.24A4.81,4.81,0,0,0,120.9,75a2.51,2.51,0,0,0,1.91.11c-.13-.25-.26-.52-.38-.81A1.49,1.49,0,0,1,120.93,74.41Z" transform="translate(-91.74 -6.4)"/><path class="cls-52" d="M122.89,73.82a2.37,2.37,0,0,1-.46.44c.12.29.25.56.38.81l.13,0C122.94,74.62,122.92,74.22,122.89,73.82Z" transform="translate(-91.74 -6.4)"/><path class="cls-53" d="M121.14,69.72c-.07-.38-.13-.76-.19-1.15-.32-.09-.64.05-.94.48a7.1,7.1,0,0,0-.85,3.16,4,4,0,0,0,1.77,2.2,1.49,1.49,0,0,0,1.5-.15A21.82,21.82,0,0,1,121.14,69.72Z" transform="translate(-91.74 -6.4)"/><path class="cls-53" d="M122.68,72.12c-.36-2-1-3.34-1.73-3.55.06.39.12.77.19,1.15a21.82,21.82,0,0,0,1.29,4.54,2.37,2.37,0,0,0,.46-.44A16.1,16.1,0,0,0,122.68,72.12Z" transform="translate(-91.74 -6.4)"/><path class="cls-51" d="M120.62,72.29a3.39,3.39,0,0,0-.36,1.65,1.6,1.6,0,0,1,1.48.59,5.54,5.54,0,0,0-.1-1.07C121.43,72.32,121,71.79,120.62,72.29Z" transform="translate(-91.74 -6.4)"/><path class="cls-52" d="M121.74,74.53a1.6,1.6,0,0,0-1.48-.59v.19c0,.16,0,.31,0,.46a.6.6,0,0,1,.75-.22,1.53,1.53,0,0,1,.68.84c0-.15,0-.31,0-.47A.74.74,0,0,0,121.74,74.53Z" transform="translate(-91.74 -6.4)"/><path class="cls-53" d="M120.29,74.59a4.62,4.62,0,0,0,.08.65c.21,1.12.67,1.63,1,1.14a2.54,2.54,0,0,0,.34-1.17,1.53,1.53,0,0,0-.68-.84A.6.6,0,0,0,120.29,74.59Z" transform="translate(-91.74 -6.4)"/><path class="cls-59" d="M120.78,69.23a2.7,2.7,0,0,1-1,2.83A3.08,3.08,0,0,1,120.78,69.23Z" transform="translate(-91.74 -6.4)"/><path class="cls-42" d="M155.8,46.65q-1-4.23-2.42-8.36a84.07,84.07,0,0,0-3.17-8.11,57.4,57.4,0,0,0-4.2-7.65,37.4,37.4,0,0,0-5.57-6.73A27.19,27.19,0,0,0,137,13.07a23.44,23.44,0,0,0-3.84-2.1A21.74,21.74,0,0,0,129,9.69c-.72-.14-1.44-.25-2.16-.32-.36,0-.72-.06-1.08-.07a3.3,3.3,0,0,0-1.08.17,3.26,3.26,0,0,1,1.07-.12l1.08.12a19,19,0,0,1,2.13.39,20.86,20.86,0,0,1,4.07,1.41,25.46,25.46,0,0,1,7,4.9,38.3,38.3,0,0,1,5.4,6.7,59.63,59.63,0,0,1,4.12,7.58,85.53,85.53,0,0,1,3.18,8c1,2.73,1.76,5.5,2.51,8.29.37,1.37.71,2.76,1,4.14a5.24,5.24,0,0,0,.32-.57C156.39,49.12,156.11,47.88,155.8,46.65Z" transform="translate(-91.74 -6.4)"/><path class="cls-60" d="M158.14,59.47c.14.71.26,1.43.39,2.14l.38,2.14-.28-2.16c-.1-.71-.21-1.43-.32-2.15-.21-1.43-.45-2.86-.7-4.28-.29-1.61-.61-3.21-1-4.81a5.24,5.24,0,0,1-.32.57c.34,1.43.65,2.86.95,4.3S157.88,58.05,158.14,59.47Z" transform="translate(-91.74 -6.4)"/><path class="cls-41" d="M127.82,74.31a5.41,5.41,0,0,0,1,.25c5,1,13.35,3.26,30.18,2l5.13-.3,33.06-2.91L203.25,71c1.34-.23,2.7-.52,3.79-.8-.15,1.62-1,2.08-2.61,2.4-1.34,2.91-2.71,3.13-7.39,3.68S173.2,78.63,169.65,79,159,80,153.17,80.36c-.35-2.34-1.42-2.87-3.93-2.75s-3,1.45-2.79,3a70.93,70.93,0,0,1-10.89-1C130.15,78.78,128.63,76,127.82,74.31Z" transform="translate(-91.74 -6.4)"/><path class="cls-41" d="M205.79,66.55c.59.17,1.38,1,1.38,1.47-1.19.32-3,.64-3.95.8l-.28-1.65S204.42,66.92,205.79,66.55Z" transform="translate(-91.74 -6.4)"/><path class="cls-42" d="M163.48,66.26c.13.51.28,1.11.44,1.83.9,3.79,1.16,5,.18,8.17,10.69-.8,21.7-1.68,33.06-2.91l-1.59-9.15C190,64.58,174.38,65.63,163.48,66.26Z" transform="translate(-91.74 -6.4)"/><path class="cls-41" d="M195.2,62.1l-36.29,1.65s4,.3,4.57,2.51c10.9-.63,26.49-1.68,32.09-2.06Z" transform="translate(-91.74 -6.4)"/><path class="cls-61" d="M114.21,75.64l.56-.22c-.66-2.76-3-16.72,3.13-17.65h-3.12l-3.06,6.51L113,73.45Z" transform="translate(-91.74 -6.4)"/><path class="cls-62" d="M92.26,53.51l.1-.22A2.14,2.14,0,0,0,92.26,53.51Z" transform="translate(-91.74 -6.4)"/><path class="cls-61" d="M93.62,65.07l.48-.13s-1.84-7.65.05-9.87l-.59-.55-1.1,1.91v4.14l.69,3.23Z" transform="translate(-91.74 -6.4)"/><path class="cls-43" d="M116.55,58c-1.29.35-2.21,1.55-2.79,3.26,0,.07,0,.15-.07.23v0L124,63.18l0-.1C122,59,119.52,57.14,116.55,58Z" transform="translate(-91.74 -6.4)"/><path class="cls-43" d="M113.76,61.22c0,.07-.05.15-.07.23C113.72,61.37,113.74,61.29,113.76,61.22Z" transform="translate(-91.74 -6.4)"/><path class="cls-43" d="M95.31,57.43l0-.14Z" transform="translate(-91.74 -6.4)"/><polygon class="cls-63" points="3.57 51.02 3.57 51.03 3.57 51.03 3.57 51.02"/><path class="cls-44" d="M121.92,54c-8.34-3.56-19.2-3.34-21.51-3.25s-6.93.57-8,2.32a2,2,0,0,0-.1.21l-.1.22c-.66,1.63-.43,3.61-.1,6.59.16,1.37.76,4.17,1.46,5-.64-2.94-1.46-6.76-.61-9s1.81-.46,2.2,1c0,.07.05.15.07.24-.2-.93.45-1.6,2.18-1A39.27,39.27,0,0,0,111.72,59c2.5.08,2.52.73,2,2.21.58-1.71,1.5-2.91,2.79-3.26,3-.82,5.48,1,7.43,5.12l0,.1h0c-.36-1.26-.42-3.19,1.8-1.18s8.53,4,14.48,4.45l3,3.71c1.64,0,3.41.07,5.39,0l.35-6C140.49,64,130.26,57.58,121.92,54Z" transform="translate(-91.74 -6.4)"/><g class="cls-64"><path class="cls-65" d="M92.46,53.08c1-1.75,5.72-2.24,8-2.32s13.17-.31,21.51,3.25S140.49,64,149,64.2c2.93.08,9.9-.45,9.9-.45" transform="translate(-91.74 -6.4)"/><path class="cls-66" d="M92.47,53.06c1-1.75,5.72-2.29,7.94-2.38s13.28-.36,21.62,3.23c4.24,1.82,9,4.39,13.68,6.52,4.57,2,9.14,3.65,13.32,3.74h.32c3.08,0,9.56-.44,9.56-.44" transform="translate(-91.74 -6.4)"/><path class="cls-67" d="M92.48,53.05c1-1.77,5.72-2.35,7.94-2.45s13.37-.41,21.71,3.2c4.24,1.84,8.94,4.41,13.64,6.56,4.55,2.08,9.09,3.69,13.27,3.78h.33c3.08,0,9.54-.41,9.54-.41" transform="translate(-91.74 -6.4)"/><path class="cls-68" d="M92.49,53c1-1.78,5.71-2.4,7.93-2.5s13.48-.46,21.82,3.17c4.22,1.84,8.91,4.41,13.59,6.59,4.52,2.11,9,3.72,13.23,3.82h.32c3.08,0,9.53-.37,9.53-.37" transform="translate(-91.74 -6.4)"/><path class="cls-69" d="M92.49,53c1-1.79,5.72-2.45,7.94-2.57s13.57-.51,21.91,3.15c4.22,1.85,8.89,4.42,13.54,6.63s9,3.75,13.2,3.85h.32c3.07,0,9.51-.35,9.51-.35" transform="translate(-91.74 -6.4)"/><path class="cls-70" d="M92.5,53c1-1.8,5.71-2.5,7.93-2.63s13.68-.56,22,3.12c4.21,1.86,8.86,4.44,13.49,6.67s9,3.78,13.16,3.89h.32c3.06,0,9.49-.32,9.49-.32" transform="translate(-91.74 -6.4)"/><path class="cls-71" d="M92.51,53c1-1.82,5.71-2.56,7.93-2.69s13.77-.62,22.11,3.09c4.21,1.87,8.84,4.45,13.45,6.7s8.93,3.81,13.11,3.93h.33c3.05,0,9.47-.29,9.47-.29" transform="translate(-91.74 -6.4)"/><path class="cls-72" d="M92.52,53c1-1.82,5.71-2.61,7.93-2.75s13.87-.66,22.21,3.07c4.2,1.87,8.81,4.46,13.39,6.74s8.89,3.84,13.08,3.95h.33c3,.05,9.45-.27,9.45-.27" transform="translate(-91.74 -6.4)"/><path class="cls-73" d="M92.53,53c1-1.84,5.7-2.67,7.92-2.82s14-.71,22.31,3c4.19,1.89,8.79,4.47,13.35,6.78s8.85,3.87,13,4h.33c3,.05,9.43-.24,9.43-.24" transform="translate(-91.74 -6.4)"/><path class="cls-74" d="M92.54,52.94c1-1.85,5.7-2.72,7.92-2.87s14.07-.77,22.41,3c4.18,1.89,8.76,4.48,13.3,6.81s8.81,3.91,13,4h.32c3,0,9.42-.22,9.42-.22" transform="translate(-91.74 -6.4)"/><path class="cls-75" d="M92.55,52.93c1-1.86,5.69-2.78,7.91-2.94,2.37-.17,14.17-.82,22.51,3,4.18,1.9,8.74,4.49,13.25,6.85s8.77,3.93,13,4.06h.33c3,.06,9.4-.19,9.4-.19" transform="translate(-91.74 -6.4)"/><path class="cls-76" d="M92.56,52.91c1-1.87,5.69-2.83,7.91-3,2.37-.19,14.27-.87,22.61,2.95,4.17,1.91,8.71,4.51,13.2,6.89s8.73,4,12.92,4.1h.33c3,.06,9.38-.16,9.38-.16" transform="translate(-91.74 -6.4)"/><path class="cls-77" d="M92.56,52.89c1-1.88,5.7-2.88,7.91-3,2.38-.19,14.37-.92,22.71,2.93,4.17,1.92,8.69,4.51,13.16,6.92s8.69,4,12.88,4.14h.33c3,.06,9.36-.14,9.36-.14" transform="translate(-91.74 -6.4)"/><path class="cls-78" d="M92.57,52.88c1-1.89,5.69-2.93,7.91-3.12,2.38-.2,14.47-1,22.81,2.9,4.15,1.93,8.66,4.53,13.1,7s8.65,4,12.85,4.17h.33c3,.06,9.34-.11,9.34-.11" transform="translate(-91.74 -6.4)"/><path class="cls-79" d="M92.58,52.86c1-1.9,5.69-3,7.9-3.17,2.39-.21,14.57-1,22.91,2.87,4.15,1.94,8.64,4.54,13.06,7s8.61,4.06,12.8,4.21h.33c3,.06,9.33-.09,9.33-.09" transform="translate(-91.74 -6.4)"/><path class="cls-80" d="M92.59,52.85c1-1.92,5.68-3,7.9-3.24,2.4-.22,14.67-1.07,23,2.85,4.15,1.94,8.62,4.55,13,7s8.57,4.09,12.77,4.24h.33c3,.07,9.31-.05,9.31-.05" transform="translate(-91.74 -6.4)"/><path class="cls-81" d="M92.6,52.83c1-1.93,5.68-3.09,7.89-3.3,2.41-.22,14.77-1.12,23.11,2.82,4.14,2,8.59,4.57,13,7.08s8.53,4.12,12.73,4.27h.33c3,.08,9.29,0,9.29,0" transform="translate(-91.74 -6.4)"/><path class="cls-82" d="M92.61,52.82c1-1.94,5.68-3.15,7.89-3.36,2.41-.24,14.86-1.18,23.2,2.79,4.14,2,8.57,4.57,12.92,7.11s8.49,4.15,12.69,4.31h.33c3,.08,9.27,0,9.27,0" transform="translate(-91.74 -6.4)"/><path class="cls-83" d="M92.62,52.8c1-1.95,5.67-3.2,7.89-3.42,2.41-.24,15-1.23,23.3,2.77,4.12,2,8.54,4.58,12.86,7.14s8.45,4.19,12.65,4.35h.34c3,.08,9.25,0,9.25,0" transform="translate(-91.74 -6.4)"/><path class="cls-84" d="M92.63,52.79c1-2,5.67-3.26,7.88-3.49,2.42-.25,15.06-1.27,23.4,2.74,4.12,2,8.52,4.6,12.82,7.19s8.41,4.21,12.61,4.38h.34c2.95.08,9.23.06,9.23.06" transform="translate(-91.74 -6.4)"/><path class="cls-85" d="M92.63,52.77c1-2,5.67-3.31,7.89-3.54,2.42-.26,15.16-1.33,23.5,2.71,4.11,2,8.49,4.61,12.77,7.22s8.37,4.25,12.57,4.42h.33c2.95.08,9.22.08,9.22.08" transform="translate(-91.74 -6.4)"/><path class="cls-86" d="M92.64,52.76c1-2,5.67-3.37,7.88-3.61,2.43-.27,15.26-1.38,23.6,2.68,4.11,2,8.47,4.62,12.72,7.26s8.55,4.37,12.87,4.47c2.94.08,9.2.11,9.2.11" transform="translate(-91.74 -6.4)"/></g><path class="cls-87" d="M125.82,62c-2.22-2-2.16-.08-1.8,1.18h0a28.16,28.16,0,0,1,1.25,3.2,3,3,0,0,0,2.15,2,111,111,0,0,0,15.85,1.81l-3-3.71C134.35,66,128.05,64,125.82,62Z" transform="translate(-91.74 -6.4)"/><path class="cls-63" d="M113.68,61.47h0v0Z" transform="translate(-91.74 -6.4)"/><path class="cls-87" d="M113.69,61.45c0-.08,0-.16.07-.23.48-1.48.46-2.13-2-2.21a39.27,39.27,0,0,1-14.26-2.74c-1.73-.58-2.38.09-2.18,1l0,.14h0c.48,1.93,1.63,7.39,2.08,9.72.49,2.51,1,2.86,2.51,3.45s6.91,2.66,14.31,5c-1.36-4.94-1.64-10.59-.53-14.17h0Z" transform="translate(-91.74 -6.4)"/><path class="cls-88" d="M207,70.2c2.29-.79.76-1.93.13-2.18-1.18.3-2.42.54-3.95.8l0,2.18S205.63,70.58,207,70.2Z" transform="translate(-91.74 -6.4)"/><path class="cls-89" d="M145.14,29.46l0,.06Z" transform="translate(-91.74 -6.4)"/><path class="cls-90" d="M145.17,29.55v0Z" transform="translate(-91.74 -6.4)"/><path class="cls-44" d="M139.29,9.71a66.93,66.93,0,0,1,19-.39,25.54,25.54,0,0,1,19,5.41A31.87,31.87,0,0,0,165,8.62a61.48,61.48,0,0,0-6.17-1.3,253,253,0,0,1-31.92,1.57c-.73.18-1.47.37-2.22.58-8,2.36-19.27,32.23-21.95,38.93-3.79.47-7.7,1.36-9.71,3.8a4.51,4.51,0,0,0-.59.88c1-1.75,5.72-2.24,8-2.32s13.17-.31,21.51,3.25S140.49,64,149,64.2l-.35,6c2.87,0,6.2-.14,10.25-.32a15.06,15.06,0,0,0,0-6.14c-9.47.45-23.74-4.65-27-9.23s12.78-1.44,20.13-1.45c6,0,6.45-7,4.31-15.06a5.68,5.68,0,0,1-.68-.7,8.72,8.72,0,0,1-1.21-2c-.07-.17-.15-.35-.22-.54a59.59,59.59,0,0,0-7.48-13.68L145.19,19a59,59,0,0,0-5.79-6.32c-1-.87-1.36-1.5-1.37-2S138.63,9.83,139.29,9.71Zm1.77,12.73a35,35,0,0,1,2.78,4.28,29,29,0,0,1,1.3,2.74l0,.06v0c2.55,6.43,1,11-1,12.58-.4.32-.83.62-1.26.91s-1,.65-1.6.94-1.36.68-2.07,1c-12.51-1-29.39,1.06-36,3.49a2.57,2.57,0,0,0,.11-.27C118,13.32,124.16,10.3,130.63,12.58,135.54,14.31,139.06,19.8,141.06,22.44Z" transform="translate(-91.74 -6.4)"/><path class="cls-91" d="M114.64,48.07c-2,.62-4.2,2-4.68,6.4-.58,5.31-.93,9.14-1.13,12.41,0,.43,0,.84,0,1.19-.06,1.39-.1,2.23-.55,2.53s-1.13.16-2.63-.37-6.22-2-6.7-2.12c-1-5.71-1.65-10.19-1.26-13.47.44-3.6,2-5.63,5.12-6.24h0C99.59,49,98,51,97.51,54.62c-.39,3.31.22,7.81,1.27,13.55v0h0s5.14,1.57,6.73,2.14a7.12,7.12,0,0,0,2.11.52,1.07,1.07,0,0,0,.63-.17c.51-.34.55-1.2.61-2.63,0-.36,0-.76.06-1.19.19-3.27.54-7.1,1.12-12.41.47-4.37,2.75-5.72,4.75-6.41Z" transform="translate(-91.74 -6.4)"/><path class="cls-44" d="M154.24,35.52c.17.39.35.77.55,1.14a10.76,10.76,0,0,0,.68,1.07,5.52,5.52,0,0,0,1.82,1.65,4.53,4.53,0,0,0,2.34.53,10.44,10.44,0,0,0,1.23-.12l1.26-.19c1.69-.25,3.38-.42,5.07-.58s3.4-.25,5.1-.32,3.4-.09,5.11-.08,3.4.07,5.1.17c.85.05,1.7.1,2.54.17l1.27.11.64.06c.21,0,.41,0,.62,0a3.14,3.14,0,0,0,1.18-.18,1.48,1.48,0,0,0,.84-.77,2.55,2.55,0,0,0,.19-1.2,7.59,7.59,0,0,0-.21-1.25A7.44,7.44,0,0,1,189.9,37a2.87,2.87,0,0,1-.1,1.3,1.58,1.58,0,0,1-.36.58,1.7,1.7,0,0,1-.57.39,3.46,3.46,0,0,1-1.3.29c-.22,0-.44,0-.65,0l-.64,0L185,39.48c-.84,0-1.69-.06-2.54-.07-1.69,0-3.38-.06-5.07,0s-3.39.05-5.08.12-3.38.15-5.07.28-3.37.27-5.05.44l-1.26.14a8.16,8.16,0,0,1-1.31.08,5,5,0,0,1-2.53-.72,5.64,5.64,0,0,1-1.81-1.86A10.16,10.16,0,0,1,154.24,35.52Z" transform="translate(-91.74 -6.4)"/><path class="cls-42" d="M177.43,14.91l-.13-.11-.08-.07a25.54,25.54,0,0,0-19-5.41,82.28,82.28,0,0,1,8.28,1.35,16.63,16.63,0,0,1,6.07,2.43c9.17,6,13.66,14.7,16.17,21.87.81,2.51-.16,3.58-2.48,3.41-1.46-.11-3.31-.21-5.46-.28-3.43-.1-7.62-.09-12.21.2-.87.05-1.75.12-2.63.2l-2.53.24-2.7.32a5.15,5.15,0,0,1-4.4-1.05c2.14,8,1.72,15-4.31,15.06-7.35,0-23.38-3.14-20.13,1.45s17.53,9.68,27,9.23l3.83-.16L195.2,62.1l4.91-.3C192.7,39,187.69,23.46,177.43,14.91Z" transform="translate(-91.74 -6.4)"/><path class="cls-41" d="M158.72,47.56c.24,1.08.76,3.38,1.17,5.19a3.2,3.2,0,0,0,3.1,2.06A162.08,162.08,0,0,1,191.87,53c2,0,1.87-1.56,1.71-2.12l-1.69-5.67a3.12,3.12,0,0,0-2.89-2.1,123.18,123.18,0,0,0-27.31,1.28C158.46,45,158.57,46.92,158.72,47.56Z" transform="translate(-91.74 -6.4)"/><path class="cls-44" d="M191.7,46.2c-11-1-24.77.18-32.12,1.28l-.41-.62c7.35-1.1,21-2.43,32-1.46Z" transform="translate(-91.74 -6.4)"/><path class="cls-44" d="M191,44.76c-10.57-1-23.66.23-30.69,1.33l-.6-.57c7-1.1,20.12-2.43,30.69-1.46Z" transform="translate(-91.74 -6.4)"/><path class="cls-44" d="M192,47.43c-11.05-1-24.82.47-32.17,1.57l-.39-.62c7.34-1.1,21.12-2.42,32.17-1.45Z" transform="translate(-91.74 -6.4)"/><path class="cls-44" d="M192.44,49.19c-11.05-1-24.78.25-32.13,1.35l-.48-.62c7.35-1.1,21-2.43,32.08-1.46Z" transform="translate(-91.74 -6.4)"/><path class="cls-44" d="M192.79,50.47c-11-1-24.69.6-32,1.7l-.52-.71c7.35-1.1,21.05-2.43,32.1-1.46Z" transform="translate(-91.74 -6.4)"/><path class="cls-44" d="M192.92,52.05c-10.61-.83-24.13.66-31.17,1.85l-.57-.7c7-1.19,20.5-2.66,31.11-1.83Z" transform="translate(-91.74 -6.4)"/><polygon class="cls-92" points="78.45 61.34 78.45 67.47 99.96 65.89 99.44 59.86 78.45 61.34"/><polygon class="cls-93" points="7.2 62.52 7.37 63.32 21.29 68.13 21.06 67.04 7.2 62.52"/><path class="cls-42" d="M117.32,57.05a6.16,6.16,0,0,1,2.73.12,5.59,5.59,0,0,1,2.43,1.41A6.88,6.88,0,0,1,124,60.91a7.82,7.82,0,0,1,.57,2.65c-.41-.81-.78-1.6-1.22-2.33a9.78,9.78,0,0,0-1.52-2,6.92,6.92,0,0,0-2-1.39A14.51,14.51,0,0,0,117.32,57.05Z" transform="translate(-91.74 -6.4)"/><path class="cls-44" d="M159.91,62.91c3.24-.44,6.49-.76,9.74-1s6.49-.48,9.75-.66,6.5-.29,9.76-.37,6.52-.1,9.79,0c-3.24.44-6.49.75-9.73,1s-6.5.48-9.75.65-6.51.3-9.77.37S163.18,63,159.91,62.91Z" transform="translate(-91.74 -6.4)"/><path class="cls-46" d="M92.5,62c-1.07.57-.83,2,.76,3A5,5,0,0,0,92.5,62Z" transform="translate(-91.74 -6.4)"/><path class="cls-44" d="M101.36,47.27a2.16,2.16,0,1,1-2.79-1.58A2.28,2.28,0,0,1,101.36,47.27Z" transform="translate(-91.74 -6.4)"/><path class="cls-94" d="M101.07,47.37A1.85,1.85,0,1,1,98.68,46,1.94,1.94,0,0,1,101.07,47.37Z" transform="translate(-91.74 -6.4)"/><path class="cls-95" d="M101.07,47.37a2,2,0,0,0-2-1.43,2,2,0,0,1,1.71,1.43,1.93,1.93,0,0,1-1.1,2.5,1.55,1.55,0,0,1-.36.08,1.55,1.55,0,0,0,.67-.08A1.94,1.94,0,0,0,101.07,47.37Z" transform="translate(-91.74 -6.4)"/><path class="cls-44" d="M102.74,49.4c1.07,0,2.79.8,1.07,1.41s-2.36.24-2.63,0S100.64,49.35,102.74,49.4Z" transform="translate(-91.74 -6.4)"/><polygon class="cls-44" points="9.03 43.19 9.51 43.64 9.91 43.28 9.26 43 9.03 43.19"/><path class="cls-96" d="M99.23,46.29c.23.2.14.7-.22,1.12s-.83.61-1.06.41-.14-.7.22-1.12S99,46.1,99.23,46.29Z" transform="translate(-91.74 -6.4)"/><path class="cls-45" d="M102.77,48.41c1.46-.2,2.93-.27,4.4-.34s2.94-.1,4.41-.15l2.2-.05.55,0H116c1.47,0,2.93,0,4.39,0,.73,0,1.46,0,2.19-.05s1.46,0,2.19-.09c1.46-.07,2.91-.18,4.35-.34s2.89-.34,4.32-.6,2.83-.56,4.22-1a31.21,31.21,0,0,0,4-1.43c.65-.29,1.29-.61,1.9-1l.91-.55.43-.29.22-.15.11-.07.1-.08a4.71,4.71,0,0,0,1.21-1.46,7.46,7.46,0,0,0,.74-1.85,10.48,10.48,0,0,0,.3-2,14.2,14.2,0,0,0,0-2.06,18,18,0,0,0-.93-4.07A24.38,24.38,0,0,0,144.93,27a36.24,36.24,0,0,0-2.26-3.65c-.83-1.19-1.62-2.4-2.46-3.57.48.54.94,1.1,1.4,1.66s.9,1.14,1.36,1.69a34.18,34.18,0,0,1,2.54,3.55,26.44,26.44,0,0,1,2,3.9,18.23,18.23,0,0,1,1.14,4.26,14.87,14.87,0,0,1,.13,2.22,12.16,12.16,0,0,1-.29,2.24,8.75,8.75,0,0,1-.8,2.15,5.83,5.83,0,0,1-1.51,1.87A24.21,24.21,0,0,1,138,47.09a48.75,48.75,0,0,1-8.78,1.52c-1.48.13-3,.21-4.43.26q-1.11,0-2.22,0l-2.21,0c-1.48,0-3-.09-4.42-.18l-1.1-.05-.54,0h-.55l-2.2,0-4.41-.13c-.73,0-1.47,0-2.2,0S103.5,48.38,102.77,48.41Z" transform="translate(-91.74 -6.4)"/><polygon class="cls-97" points="103.46 55.7 105.42 66.95 104.69 69.94 106.73 69.7 109.4 66.15 107.58 57.89 103.46 55.7"/><polygon class="cls-98" points="103.46 55.7 107.28 55.47 110.94 57.52 107.58 57.89 103.46 55.7"/><polygon class="cls-99" points="107.58 57.89 109.4 66.15 112.61 65.54 110.94 57.52 107.58 57.89"/><polygon class="cls-100" points="109.4 66.15 106.73 69.7 108.9 69.4 112.61 65.54 109.4 66.15"/><polygon class="cls-97" points="65.41 57.42 67.23 70.16 66.04 73.65 68.03 73.49 71.14 69.63 69.62 60.05 65.41 57.42"/><polygon class="cls-98" points="65.41 57.42 69.38 57.24 73.36 59.81 69.62 60.05 65.41 57.42"/><polygon class="cls-99" points="69.62 60.05 71.14 69.63 74.73 69.11 73.36 59.81 69.62 60.05"/><polygon class="cls-100" points="71.14 69.63 68.03 73.49 70.41 73.28 74.73 69.11 71.14 69.63"/><path class="cls-41" d="M159,76.56c-16.83,1.26-25.14-1-30.18-2-1.78-.33-2-.67-2.72-3.51-.46-1.85,0-2.87,1.4-2.69s5.27.93,11.44,1.56,12.23.29,20,0A7.55,7.55,0,0,1,159,76.56Z" transform="translate(-91.74 -6.4)"/><path class="cls-101" d="M159.7,72.19c-6.42.24-14.37.41-17.84.11s-7.84-.8-10.3-1.15-3.23-.55-4-.64-1.16.33-1,1,.49.91,1.55,1.09,9.4,1.56,15,1.92a117.7,117.7,0,0,0,16.63-.27,1.34,1.34,0,0,0,.39-1.07A1.49,1.49,0,0,0,159.7,72.19Z" transform="translate(-91.74 -6.4)"/><path class="cls-102" d="M147.52,64.68c-1.65,0-2.93,0-3.92,0-1.91,0-3.37,0-4-.12a3.25,3.25,0,0,0-.42,0c-.58,0-.74.17-.89.64-.24.78-.47,1.75-.63,2.46-.08.33-.14.59-.19.76-.11.43-.14.77.47.83,2.36.18,5.76.38,9.78.42A43.81,43.81,0,0,0,147.52,64.68Z" transform="translate(-91.74 -6.4)"/><path class="cls-41" d="M158.5,64.29c-1.59.08-3.05.14-4.38.19a32,32,0,0,1,.18,5.14c1.43-.06,2.82-.13,4.17-.23A13.08,13.08,0,0,0,158.5,64.29Z" transform="translate(-91.74 -6.4)"/><path class="cls-103" d="M158.91,63.75c-7.39.35-12.27.45-15.31.45-2.23,0-3.47-.06-4-.11l-.48,0a1.26,1.26,0,0,0-1.4,1c-.35,1.14-.67,2.68-.82,3.24s-.21,1.38.39,1.44a106.11,106.11,0,0,0,11.93.48c3.13,0,6.41-.1,9.65-.35A12.11,12.11,0,0,0,158.91,63.75Zm-21,5.53c-.61,0-.58-.4-.47-.82.05-.18.11-.44.19-.77.16-.71.39-1.68.63-2.45.15-.48.31-.65.89-.65l.42,0c.65.08,2.11.12,4,.12,1,0,2.27,0,3.92,0a43.81,43.81,0,0,1,.18,5h.05C143.7,69.66,140.29,69.47,137.92,69.28Zm20.55.11c-2.5.19-5.17.29-7.95.32h0a29.66,29.66,0,0,0-.16-5.09c2.22-.07,4.89-.17,8.09-.31A13,13,0,0,1,158.47,69.39Z" transform="translate(-91.74 -6.4)"/><path class="cls-104" d="M154.12,64.48l-3.71.13a29.63,29.63,0,0,1,.16,5.09c1.27,0,2.51,0,3.73-.08A32,32,0,0,0,154.12,64.48Z" transform="translate(-91.74 -6.4)"/><g class="cls-105"><path class="cls-106" d="M124.32,13.2c2.47-1.14,6.35-2.44,13.38,5.48l-14.13,28.8-16.4.3Z" transform="translate(-91.74 -6.4)"/></g><polygon class="cls-107" points="24.18 41.67 36.12 5.6 35.73 5.6 22.9 41.66 24.18 41.67"/><polygon class="cls-108" points="24.25 41.44 25.19 41.44 36.65 5.64 36.12 5.6 24.25 41.44"/><path class="cls-109" d="M127.82,74.31a6.17,6.17,0,0,0,1,.2l1,.14,1.91.32c1.28.22,2.56.42,3.83.61s2.56.35,3.84.48,2.57.25,3.86.33,2.57.15,3.86.19,2.58.07,3.87.08c2.58,0,5.17,0,7.76-.07-2.57.32-5.16.51-7.75.59-1.3,0-2.6,0-3.9,0s-2.59-.08-3.89-.16-2.59-.22-3.88-.37-2.57-.35-3.85-.59-2.55-.51-3.81-.8l-1.89-.46-.94-.23A5,5,0,0,1,127.82,74.31Z" transform="translate(-91.74 -6.4)"/><path class="cls-110" d="M138.68,65l-1,3.85,9.51-3.74S142.59,65.28,138.68,65Z" transform="translate(-91.74 -6.4)"/></g></g></svg>