<?xml version="1.0" encoding="utf-8"?>
<!-- Generator: Adobe Illustrator 22.0.1, SVG Export Plug-In . SVG Version: 6.00 Build 0)  -->
<svg version="1.1" id="Layer_1" xmlns="http://www.w3.org/2000/svg" xmlns:xlink="http://www.w3.org/1999/xlink" x="0px" y="0px"
	 viewBox="0 0 396.9 126.5" style="enable-background:new 0 0 396.9 126.5;" xml:space="preserve">
<style type="text/css">
	.st0{fill:#647EA5;}
</style>
<g>
	<g>
		<path class="st0" d="M89.1,105c-0.5-0.3-1.2-0.4-2-0.4c-2.4,0-3.7,1.7-3.7,4.5c0,2.6,1.5,4.8,4.4,4.8c0.7,0,1.4-0.2,1.8-0.5
			s0.8-0.9,1.2-1.6c0.1,0,0.4,0.1,0.4,0.3c-0.2,0.7-0.9,2-1.2,2.2c-0.5,0.2-1.5,0.4-2.5,0.4c-3.6,0-5.7-2-5.7-5.3
			c0-1.7,0.8-3.5,2.6-4.4c0.9-0.5,1.9-0.7,3.3-0.7s2.5,0.3,3.2,0.3c-0.1,0.6-0.2,1.8-0.3,2.5c-0.1,0.1-0.5,0.1-0.5,0
			C89.9,105.6,89.7,105.3,89.1,105z"/>
		<path class="st0" d="M102.8,113.1c-1-1.1-1.4-2.4-1.4-3.9c0-1.2,0.4-2.2,1-3.1c0.9-1.2,2.7-2,4.4-2c3.3,0,5,2.4,5,5
			c0,1.4-0.3,2.4-1,3.4c-1,1.4-2.7,2.1-4.3,2.1C104.9,114.6,103.6,114,102.8,113.1z M108.9,113.3c1-0.8,1.4-2.1,1.4-3.6
			c0-1.7-0.6-3.4-1.9-4.3c-0.6-0.4-1.3-0.6-2.1-0.6c-0.6,0-1.1,0.1-1.5,0.4c-1.2,0.7-1.8,2.1-1.8,3.8c0,1.7,0.6,3.5,2.1,4.5
			c0.6,0.4,1.2,0.5,2,0.5C107.8,113.9,108.4,113.6,108.9,113.3z"/>
		<path class="st0" d="M122.4,104.3c0.6,0,1.3,0,3,0c0,0.3,0.1,0.6,0.3,0.9c0.9,2.1,2.8,6,3.1,6.5c0,0,0,0,0.1,0
			c0.3-0.5,2.5-5,3.2-6.6c0.1-0.3,0.2-0.6,0.3-0.9c1.6,0,2.2,0,2.9,0c0.1,0,0.1,0.4,0,0.5c-0.5,0.1-0.8,0.1-1.1,0.2
			s-0.5,0.3-0.5,0.6c0,1,0.1,6.1,0.2,7.2c0.1,0.6,0.1,0.8,0.6,0.9c0.2,0,0.5,0.1,0.9,0.1c0.1,0.1,0.1,0.4,0,0.5c-0.4,0-1.2,0-2.2,0
			c-0.9,0-1.7,0-2.2,0c-0.1-0.1-0.1-0.4,0-0.5c0.4-0.1,0.7-0.1,0.9-0.2c0.4-0.1,0.4-0.3,0.4-0.7c0-1.1,0-5.3-0.1-6.7h-0.1
			c-0.4,1-3.1,6.5-3.7,8c-0.1,0-0.4,0.1-0.5,0c-0.4-1.4-2.9-6.7-3.4-8.1h-0.1c-0.1,1.4-0.3,5-0.3,6.4c0,0.6,0,0.9,0.5,1
			c0.3,0.1,0.5,0.1,1,0.2c0.1,0.1,0,0.4-0.1,0.5c-0.3,0-1.1,0-1.9,0c-0.9,0-1.7,0-2,0c-0.1-0.1-0.1-0.4,0-0.5c0.3,0,0.6-0.1,0.8-0.1
			c0.5-0.1,0.6-0.4,0.7-1.2c0.2-1.2,0.5-5.4,0.6-6.9c0-0.3-0.1-0.6-0.5-0.7c-0.2-0.1-0.6-0.1-1.1-0.2
			C122.3,104.7,122.3,104.3,122.4,104.3z"/>
		<path class="st0" d="M145.4,104.3c0.6,0,1.3,0,3,0c0,0.3,0.1,0.6,0.3,0.9c1,2.1,2.8,6,3.1,6.5c0,0,0,0,0.1,0
			c0.3-0.5,2.5-5,3.2-6.6c0.1-0.3,0.2-0.6,0.3-0.9c1.6,0,2.2,0,2.9,0c0.1,0,0.1,0.4,0,0.5c-0.5,0.1-0.8,0.1-1.1,0.2
			s-0.5,0.3-0.5,0.6c0,1,0.1,6.1,0.2,7.2c0,0.6,0.1,0.8,0.6,0.9c0.2,0,0.5,0.1,0.9,0.1c0.1,0.1,0.1,0.4,0,0.5c-0.4,0-1.2,0-2.2,0
			c-0.9,0-1.7,0-2.2,0c-0.1-0.1-0.1-0.4,0-0.5c0.4-0.1,0.7-0.1,0.9-0.2c0.4-0.1,0.4-0.3,0.4-0.7c0-1.1,0-5.3-0.1-6.7c0,0,0,0-0.1,0
			c-0.4,1-3.1,6.5-3.7,8c0,0-0.4,0.1-0.5,0c-0.4-1.4-2.9-6.7-3.4-8.1h-0.1c-0.1,1.4-0.3,5-0.3,6.4c0,0.6,0,0.9,0.5,1
			c0.3,0.1,0.5,0.1,1,0.2c0.1,0.1,0,0.4-0.1,0.5c-0.3,0-1.1,0-1.9,0c-0.9,0-1.7,0-2,0c-0.1-0.1,0-0.4,0-0.5c0.3,0,0.6-0.1,0.8-0.1
			c0.5-0.1,0.6-0.4,0.7-1.2c0.2-1.2,0.5-5.4,0.6-6.9c0-0.3-0.1-0.6-0.5-0.7c-0.2-0.1-0.6-0.1-1.1-0.2
			C145.3,104.7,145.4,104.3,145.4,104.3z"/>
		<path class="st0" d="M168,104.3c0.3,0,1.3,0,2.1,0s1.5,0,1.9,0c0.1,0,0.1,0.4,0,0.5c-0.3,0.1-0.6,0.1-0.8,0.1
			c-0.4,0.1-0.5,0.3-0.5,0.9c0,1.6,0,3.8,0,4.6c0,0.7,0.1,1.3,0.3,1.6c0.3,0.9,1.3,1.6,2.8,1.6c1.4,0,2.7-0.4,2.8-2.9
			c0.1-1.2,0.1-3,0-4.7c0-0.8-0.2-1-0.7-1.1c-0.2-0.1-0.5-0.1-0.8-0.1c-0.1-0.1-0.1-0.4,0-0.5c0.3,0,1,0,2,0c0.7,0,1.5,0,1.8,0
			c0,0,0.1,0.4,0,0.5c-0.2,0.1-0.5,0.1-0.7,0.2c-0.5,0.1-0.6,0.4-0.6,1.2c-0.1,3.3,0,4.5-0.3,5.6c-0.5,2.2-2.2,2.8-4,2.8
			c-2.6,0-3.7-1.2-3.9-2.9c-0.1-1-0.1-5.1-0.1-5.9c0-0.4-0.1-0.7-0.5-0.8c-0.2-0.1-0.6-0.1-0.8-0.2C168,104.7,168,104.4,168,104.3z"
			/>
		<path class="st0" d="M188.4,104.3c0.4,0,1.2,0,2,0c0.3,0,0.6,0,0.7,0c0.1,0.2,0.2,0.3,0.6,0.9c1.7,2.1,5,6.1,5.8,7c0,0,0,0,0.1,0
			c0-2.2,0-5.2-0.1-6.4c0-0.5-0.1-0.7-0.6-0.9c-0.3-0.1-0.7-0.1-1.1-0.2c-0.1-0.1,0-0.4,0-0.5c0.4,0,1.2,0,2.2,0c0.6,0,1.5,0,1.7,0
			c0.1,0,0.1,0.4,0,0.5c-0.3,0-0.5,0.1-0.7,0.2c-0.4,0.1-0.5,0.4-0.6,0.9c-0.1,1.2-0.1,3.3-0.1,6.4c0,0.7,0,1.7,0,2.2
			c-0.2,0-0.9,0-1.1,0c-0.9-1.2-5.4-6.8-6.3-8h-0.1c0,1.7,0,5.4,0,6.3c0,0.6,0.2,0.9,0.7,1c0.2,0.1,0.6,0.1,1,0.2
			c0.1,0.1,0,0.4,0,0.5c-0.4,0-1.1,0-2,0c-1,0-1.6,0-2,0c0,0,0-0.4,0-0.5c0.4,0,0.6-0.1,0.9-0.1c0.4-0.1,0.6-0.3,0.6-1
			c0.1-0.8,0.1-3.5,0.1-6.9c0-0.2-0.1-0.6-0.4-0.8c-0.3-0.2-0.7-0.3-1.3-0.4C188.3,104.7,188.3,104.4,188.4,104.3z"/>
		<path class="st0" d="M209.6,104.3c0.3,0,1.3,0,2.1,0c0.9,0,1.6,0,2,0c0,0.1,0.1,0.4,0,0.5c-0.4,0-0.6,0.1-0.8,0.1
			c-0.4,0.1-0.4,0.3-0.5,0.8c0,0.7,0,2,0,3.4c0,1.6,0,3.1,0,3.7c0,0.5,0.1,0.7,0.6,0.9c0.2,0.1,0.6,0.1,1,0.2c0.1,0.1,0,0.4,0,0.5
			c-0.4,0-1.3,0-2.1,0c-0.9,0-1.7,0-2.3,0c-0.1,0-0.1-0.4,0-0.5c0.4,0,0.6-0.1,0.8-0.1c0.5-0.1,0.5-0.3,0.6-0.7
			c0.1-0.5,0.1-2.1,0.1-4.2c0-1.3,0-2.4,0-3.1c0-0.4-0.1-0.6-0.4-0.7c-0.2-0.1-0.6-0.1-1-0.2C209.5,104.7,209.6,104.4,209.6,104.3z"
			/>
		<path class="st0" d="M230.8,114.3c-0.5,0-1.4,0-2.4,0c-1.2,0-2,0-2.5,0c-0.1-0.1,0-0.4,0-0.5c0.5,0,0.9-0.1,1.2-0.2
			c0.5-0.1,0.6-0.4,0.6-1.2c0-1.3,0.1-4.7,0.1-7.4c0-0.1-0.1-0.1-0.1-0.1c-0.3,0-1.5,0-2.1,0c-0.3,0-0.5,0.1-0.7,0.5
			c-0.2,0.3-0.4,0.9-0.6,1.5c-0.1,0.1-0.5,0-0.5-0.1c0.1-0.7,0.3-2,0.3-2.7c0,0,0.1-0.1,0.2-0.1c0.3,0.1,0.7,0.2,1.3,0.2h6.1
			c0.8,0,1.1,0,1.6-0.2c0,0,0.1,0,0.2,0.1c-0.2,0.6-0.3,1.9-0.4,2.7c0,0.1-0.5,0.1-0.5,0c0-0.6-0.1-1.1-0.3-1.4
			c-0.1-0.3-0.3-0.5-0.6-0.5c-0.8,0-1.9,0-2.3,0l-0.1,0.1c0,2.4,0,6.8,0.1,7.7c0,0.6,0.2,0.8,0.6,0.9c0.3,0.1,0.5,0.1,1.1,0.2
			C231,113.9,230.9,114.3,230.8,114.3z"/>
		<path class="st0" d="M243.2,104.3c0.4,0,1.3,0,2,0c0.6,0,1.6,0,1.8,0c0.1,0,0.1,0.4,0,0.5c-0.2,0-0.5,0.1-0.6,0.1
			c-0.2,0.1-0.2,0.2-0.1,0.5c0.4,0.9,1.7,3.4,2.1,3.9h0.1c0.6-0.9,1.7-3,2-3.7c0.1-0.3,0.1-0.5-0.3-0.6c-0.2,0-0.4-0.1-0.8-0.1
			c-0.1-0.1,0-0.4,0-0.5c0.5,0,1.2,0,1.8,0c0.8,0,1.2,0,1.7,0c0.1,0,0.1,0.4,0,0.5l-0.7,0.1c-0.5,0.1-0.7,0.4-1.1,1
			c-0.7,1.1-1.9,3.2-2.3,3.9c-0.1,0.1-0.1,0.4-0.1,0.6c0,0.6,0,1.4,0,2.3c0,0.7,0.1,1,0.5,1.1c0.3,0.1,0.6,0.1,1,0.1
			c0.1,0.1,0,0.4-0.1,0.5c-0.4,0-1.3,0-2.3,0c-1.2,0-1.9,0-2.4,0c-0.1,0-0.1-0.4,0-0.5c0.4,0,0.8-0.1,1.1-0.2
			c0.4-0.1,0.5-0.4,0.6-0.9c0-0.8,0-1.4,0-2.1c0-0.2,0-0.6-0.1-0.8c-0.3-0.8-1.3-2.6-2-3.7c-0.6-1.1-0.8-1.2-1.4-1.4
			c-0.2,0-0.4-0.1-0.8-0.1C243.1,104.7,243.1,104.4,243.2,104.3z"/>
		<path class="st0" d="M277.9,105c-0.5-0.3-1.2-0.4-2-0.4c-2.4,0-3.7,1.7-3.7,4.5c0,2.6,1.5,4.8,4.4,4.8c0.7,0,1.4-0.2,1.8-0.5
			s0.8-0.9,1.2-1.6c0.1,0,0.4,0.1,0.4,0.3c-0.2,0.7-0.9,2-1.2,2.2c-0.5,0.2-1.5,0.4-2.5,0.4c-3.6,0-5.7-2-5.7-5.3
			c0-1.7,0.8-3.5,2.6-4.4c0.9-0.5,1.9-0.7,3.3-0.7s2.5,0.3,3.2,0.3c-0.1,0.6-0.2,1.8-0.3,2.5c-0.1,0.1-0.5,0.1-0.5,0
			C278.7,105.6,278.5,105.3,277.9,105z"/>
		<path class="st0" d="M289.9,104.3c0.4,0,1.2,0,2.1,0c1.1,0,1.6,0,2,0c0.1,0.1,0.1,0.4,0,0.5c-0.3,0-0.6,0.1-0.8,0.1
			c-0.3,0.1-0.4,0.2-0.5,0.7c0,0.6,0,1.4,0,3c0,0.1,0,0.1,0.1,0.2c0.1,0,0.4,0,2.8,0c1.8,0,2.4,0,2.6,0c0.1,0,0.1-0.1,0.1-0.1
			c0-0.8,0-2.7,0-3.2c0-0.3-0.1-0.5-0.3-0.5c-0.2-0.1-0.5-0.1-1-0.2c-0.1-0.1-0.1-0.4,0-0.5c0.4,0,1.2,0.1,2,0.1s1.8,0,2,0
			c0,0.1,0.1,0.4,0,0.5c-0.4,0-0.6,0.1-0.9,0.2c-0.4,0.1-0.4,0.3-0.5,0.9c0,0.6,0,1.5,0,3.4c0,1.4,0,3.2,0,3.7s0.2,0.6,0.5,0.7
			c0.2,0.1,0.5,0.1,1.1,0.2c0,0.1,0,0.4-0.1,0.5c-0.5,0-1.4,0-2.2,0c-0.8,0-1.7,0-2.1,0c-0.1-0.1-0.1-0.4,0-0.5
			c0.4,0,0.7-0.1,0.9-0.2c0.3-0.1,0.4-0.2,0.4-0.7s0-2.2,0-3.2c0,0,0-0.1-0.1-0.1c-0.3,0-1.7,0-2.6,0c-1.3,0-2.6,0-2.8,0l-0.1,0.1
			c0,0.9,0,2.7,0,3.1c0,0.6,0.1,0.8,0.5,0.9c0.2,0.1,0.5,0.1,1,0.2c0.1,0.1,0,0.4-0.1,0.5c-0.3,0-1.1,0-2.1,0s-1.8,0-2.2,0
			c-0.1-0.1-0.1-0.4,0-0.5c0.4,0,0.7-0.1,0.9-0.1c0.5-0.1,0.5-0.4,0.6-1.2c0-0.5,0-1.9,0-3.3c0-1.6,0-3.3,0-3.6
			c0-0.4-0.1-0.6-0.5-0.7c-0.2-0.1-0.5-0.1-1-0.2C289.8,104.7,289.9,104.4,289.9,104.3z"/>
		<path class="st0" d="M311,104.3c0.3,0,1.3,0,2.1,0c0.8,0,1.5,0,1.9,0c0.1,0,0.1,0.4,0,0.5c-0.3,0.1-0.6,0.1-0.8,0.1
			c-0.4,0.1-0.5,0.3-0.5,0.9c0,1.6,0,3.8,0,4.6c0,0.7,0.1,1.3,0.3,1.6c0.3,0.9,1.3,1.6,2.8,1.6c1.4,0,2.7-0.4,2.8-2.9
			c0.1-1.2,0.1-3,0-4.7c0-0.8-0.2-1-0.7-1.1c-0.2-0.1-0.5-0.1-0.8-0.1c-0.1-0.1,0-0.4,0-0.5c0.3,0,1,0,2,0c0.7,0,1.5,0,1.7,0
			c0,0,0.1,0.4,0,0.5c-0.2,0.1-0.5,0.1-0.7,0.2c-0.5,0.1-0.6,0.4-0.6,1.2c-0.1,3.3-0.1,4.5-0.3,5.6c-0.5,2.2-2.2,2.8-4,2.8
			c-2.6,0-3.7-1.2-3.9-2.9c-0.1-1-0.1-5.1-0.1-5.9c0-0.4-0.1-0.7-0.5-0.8c-0.2-0.1-0.6-0.1-0.8-0.2C310.9,104.7,311,104.4,311,104.3
			z"/>
		<path class="st0" d="M331.6,104.3c0.4,0,1.4,0,1.9,0c1.2,0,2.1,0,2.7,0c1.9,0,2.9,1.1,2.9,2.5s-0.9,2.2-1.9,2.6v0.1
			c0.6,0.9,1.9,2.7,2.7,3.5c0.7,0.7,0.9,0.8,1.9,0.9c0,0,0,0.4-0.1,0.5c-0.7,0-2,0-2.6-0.3c-0.3-0.1-0.5-0.3-0.8-0.6
			c-0.6-0.7-1.6-2.3-2.2-3.2c-0.1-0.2-0.3-0.2-0.4-0.2c-0.2,0-0.9,0-1.2,0l-0.1,0.1c0,0.9,0,2.4,0,2.9s0.1,0.7,0.5,0.8
			c0.2,0,0.5,0.1,0.9,0.1c0.1,0.1,0,0.4,0,0.5c-0.3,0-1.1,0-2.2,0s-1.8,0-2.1,0c-0.1-0.1-0.1-0.4,0-0.5c0.4,0,0.6-0.1,0.8-0.1
			c0.4-0.1,0.5-0.3,0.6-0.9c0-0.4,0-2.6,0-3.4c0-1.7,0-3.3,0-3.8s-0.1-0.6-0.5-0.7c-0.2,0-0.6-0.1-0.9-0.1
			C331.5,104.7,331.6,104.3,331.6,104.3z M334.6,105l-0.1,0.2c0,0.5,0,2.7,0,4c0,0,0,0.1,0.1,0.1c1.1,0,1.8,0,2.1-0.1
			c0.5-0.2,1.1-0.8,1.1-1.9c0-1.5-0.8-2.4-2.5-2.4C335,104.9,334.7,104.9,334.6,105z"/>
		<path class="st0" d="M358.2,105c-0.5-0.3-1.2-0.4-2-0.4c-2.4,0-3.7,1.7-3.7,4.5c0,2.6,1.5,4.8,4.4,4.8c0.7,0,1.4-0.2,1.8-0.5
			s0.8-0.9,1.2-1.6c0.1,0,0.4,0.1,0.4,0.3c-0.2,0.7-0.9,2-1.2,2.2c-0.5,0.2-1.5,0.4-2.5,0.4c-3.6,0-5.7-2-5.7-5.3
			c0-1.7,0.8-3.5,2.6-4.4c0.9-0.5,1.9-0.7,3.3-0.7s2.5,0.3,3.2,0.3c-0.1,0.6-0.2,1.8-0.3,2.5c-0.1,0.1-0.5,0.1-0.5,0
			C359.1,105.6,358.9,105.3,358.2,105z"/>
		<path class="st0" d="M370.3,104.3c0.4,0,1.2,0,2.1,0c1.1,0,1.6,0,2,0c0.1,0.1,0.1,0.4,0,0.5c-0.3,0-0.6,0.1-0.8,0.1
			c-0.3,0.1-0.4,0.2-0.5,0.7c0,0.6,0,1.4,0,3c0,0.1,0,0.1,0.1,0.2c0.1,0,0.4,0,2.8,0c1.8,0,2.4,0,2.6,0l0.1-0.1c0-0.8,0-2.7,0-3.2
			c0-0.3-0.1-0.5-0.3-0.5c-0.2-0.1-0.5-0.1-1-0.2c-0.1-0.1-0.1-0.4,0-0.5c0.4,0,1.2,0.1,2,0.1s1.8,0,2,0c0.1,0.1,0.1,0.4,0,0.5
			c-0.4,0-0.6,0.1-0.8,0.2c-0.4,0.1-0.4,0.3-0.5,0.9c0,0.6,0,1.5,0,3.4c0,1.4,0,3.2,0,3.7c0.1,0.5,0.1,0.6,0.5,0.7
			c0.2,0.1,0.5,0.1,1,0.2c0.1,0.1,0,0.4-0.1,0.5c-0.5,0-1.4,0-2.2,0c-0.8,0-1.7,0-2.1,0c-0.1-0.1-0.1-0.4,0-0.5
			c0.4,0,0.7-0.1,0.9-0.2c0.3-0.1,0.4-0.2,0.4-0.7s0-2.2,0-3.2l-0.1-0.1c-0.3,0-1.7,0-2.6,0c-1.3,0-2.6,0-2.8,0v0.1
			c0,0.9,0,2.7,0,3.1c0,0.6,0.1,0.8,0.5,0.9c0.2,0.1,0.5,0.1,1,0.2c0.1,0.1,0,0.4-0.1,0.5c-0.3,0-1.1,0-2.1,0s-1.8,0-2.2,0
			c-0.1-0.1-0.1-0.4,0-0.5c0.4,0,0.7-0.1,0.9-0.1c0.5-0.1,0.5-0.4,0.6-1.2c0-0.5,0-1.9,0-3.3c0-1.6,0-3.3,0-3.6
			c0-0.4-0.1-0.6-0.5-0.7c-0.2-0.1-0.5-0.1-1-0.2C370.2,104.7,370.2,104.4,370.3,104.3z"/>
	</g>
	<g>
		<g>
			<path class="st0" d="M50.5,34.9V7.7l-2.1,0.9v30.3c1.6-0.4,4.7-2.9,11.7-3c5.2,0,7.8,0.7,16,5.7c5.6,3.4,6.7,5.4,9.7,5.4
				c4.3,0,7.1-2.2,8.4-2.8c1.5-0.7,4.3-2.1,4.3-2.1C92.4,38.5,84.3,31.9,81,30.3s-5.7-2.2-7.9-2.2C69.8,28.1,65.4,28.1,50.5,34.9z"
				/>
			<path class="st0" d="M53,40.1c-1.3,0.5-3.1,1.1-4.7,1.9v73.3l2.1-0.9V43.6c0,0,3.3-1,8.8,3s6.4,3.4,7.1,3.4
				c0.8,0,2.6-0.3,5.5-1.6S75,47,75,47s-3.7-2.6-5-3.5s-5.7-4-10.9-4C59.2,39.3,55.7,39.2,53,40.1z"/>
			<path class="st0" d="M45.3,43.3v73.3l-3.9,1.7V46.9c0,0-19.6,8.5-20.2,8.5s-1,0.2-1.4-0.3s0-0.9,0.2-1
				C20.1,54,45.3,43.3,45.3,43.3z"/>
			<path class="st0" d="M45.3,9.9v30.4c0,0-24,10.3-24.9,10.7c-0.8,0.4-3.7,1.1-5.7,1.1c-2.1,0-5.1-1.3-5.1-3.6c0-0.7,0.4-1.3,1-1.6
				c0.5-0.2,8.6-3.7,8.6-3.7s1.8,1.9,6.4,1.9c1.1,0,2.3-0.3,3.3-0.7l12.4-5.3V11.5L45.3,9.9z"/>
		</g>
		<g>
			<path class="st0" d="M106.5,90.3c-1.8,0.5-7,2-11.7,2c-12.6,0-19.2-6.3-19.2-17.7c0-7.1,3.6-12.6,9.5-15.3c3-1.4,6.3-2,10.5-2
				c4.4,0,7.4,0.9,10.6,1.2c-0.4,2-0.9,6.1-1,8.5c-0.2,0.3-1.5,0.4-1.8,0.2c-0.4-4-1.1-5.5-2.6-6.4c-1.7-1-3.8-1.5-7.3-1.5
				c-8.4,0-12.4,6-12.4,14.8c0,9.2,4.9,16.4,14.7,16.4c1.5,0,2.8-0.2,3.6-0.7c0.8-0.4,1.1-1.3,1.2-2.3c0.2-1.7,0.2-3.7,0.1-5.5
				s-0.4-2.4-2-2.8c-1-0.2-1.9-0.3-3.6-0.5c-0.3-0.2-0.2-1.4,0.1-1.6c1.7,0,4.2,0.2,7.5,0.2c3.2,0,4.8-0.1,5.9-0.2
				c0.2,0.2,0.2,1.5-0.1,1.6c-0.6,0.1-1.3,0.2-1.8,0.4c-1,0.3-1.3,1-1.3,2.6c-0.1,1.6-0.1,4.9,0,6c0.1,0.8,0.2,1.1,1.3,1.6
				C106.7,89.4,106.6,90.2,106.5,90.3z"/>
			<path class="st0" d="M116.8,88.7c-2.4-2.5-3.4-5.7-3.4-9.1c0-2.9,0.9-5.5,2.5-7.6c2.2-2.9,6.3-4.8,10.7-4.8
				c8.1,0,12.3,5.9,12.3,12.1c0,3.3-0.8,5.8-2.5,7.9c-2.5,3.5-6.3,5-10.5,5C122,92.2,118.9,90.8,116.8,88.7z M134.2,80.4
				c0-5.8-2.6-11.4-8.8-11.4c-5,0-7.1,4.5-7.1,9.5c0,6.1,3,11.6,9,11.6C132.3,90.1,134.2,85.4,134.2,80.4z"/>
			<path class="st0" d="M142.9,67.7c1.1,0,3.4,0.2,6,0.2c2.2,0,5-0.2,5.8-0.2c0.2,0.2,0.2,1.3,0,1.6c-1.1,0.1-1.9,0.3-2.4,0.3
				c-0.9,0.3-1.1,0.9-1.2,1.7c0,1.3-0.1,3.8-0.1,7.7c0,3.4,0.1,7.5,0.1,9.1c0.1,0.6,0.6,1.1,0.8,1.2c1.1,0.2,3.5,0.3,5.8,0.3
				c0.9,0,1.7-0.3,2.5-1.3c0.8-1.1,2-3.2,2.7-4.8c0.3-0.1,1.3,0.3,1.4,0.5c-0.3,1.7-1.5,5.7-2.3,7c-0.3,0.5-0.8,0.7-1.6,0.7
				c-2.5,0-9.9-0.2-11.9-0.2c-1.8,0-5.5,0.2-6.4,0.2c-0.2-0.2-0.2-1.3,0-1.5c1.3-0.2,2.4-0.2,3.1-0.4c0.9-0.2,1.2-0.7,1.2-1.6
				c0.1-1.1,0.2-4.4,0.2-9.3c0-4,0-5.9-0.1-6.9c-0.1-1.6-0.4-2-1.5-2.3c-0.5-0.2-1.6-0.3-2.4-0.4C142.7,69,142.8,67.8,142.9,67.7z"
				/>
			<path class="st0" d="M167.6,67.7c0.8,0,3.9,0.2,5.4,0.2c2.3,0,4.3-0.1,8-0.1c3.4,0,6.5,0.9,8.6,2.6c2.5,2.2,3.7,5.2,3.7,8.7
				c0,5.1-2.4,8.2-4.9,9.9c-2.4,1.7-5.2,2.7-9.5,2.7c-2.9,0-7.1-0.2-10-0.2h-1.8c-0.2-0.3-0.2-1.4,0-1.6c0.9-0.1,2.4-0.2,3.1-0.4
				c0.7-0.2,1.2-0.5,1.3-1.8c0.1-2.4,0.1-5.1,0.1-8.5c0-2.3,0-6.3-0.1-7.8c-0.1-1.2-0.5-1.6-1.4-1.8c-0.6-0.1-1.6-0.3-2.6-0.4
				C167.3,69,167.4,67.8,167.6,67.7z M176.6,88.7c0.9,0.8,2.3,1.1,3.7,1.1s3.4-0.2,5.2-1.8c1.9-1.8,3.1-4.4,3.1-8.3
				s-1.2-6.7-4.3-8.7c-1.7-1.1-3.7-1.5-6.1-1.5c-0.6,0-1.6,0.1-1.9,0.2c-0.2,0.1-0.4,0.3-0.4,0.6c-0.1,0.9-0.1,5.6-0.1,8.9
				s0,7.3,0.2,8C176.1,87.7,176.3,88.4,176.6,88.7z"/>
			<path class="st0" d="M196.5,67.7c1,0,3.7,0.2,5.9,0.2h8.5c1.9,0,3.8-0.1,4.7-0.2c0.1,0,0.2,0.2,0.2,0.3c-0.3,1.1-0.5,3.9-0.6,5.8
				c-0.2,0.3-1.5,0.3-1.6,0.1c-0.2-0.9-0.3-1.7-0.5-2.3c-0.3-1-0.8-1.5-2.1-1.6c-0.7-0.1-5.4-0.1-5.9,0c-0.3,0-0.5,0.5-0.5,0.7
				c0,2.5-0.1,5.7,0,7.5c0,0.1,0.1,0.3,0.2,0.3c2,0,4.2,0,5.6-0.1c1-0.1,1.3-0.7,1.5-1.3c0.2-0.5,0.3-1,0.4-1.6
				c0.3-0.1,1.5,0,1.7,0.2c-0.1,0.8-0.3,2.7-0.3,3.9c0,1.1,0.1,2.8,0.1,3.9c-0.2,0.2-1.4,0.2-1.7,0.1c-0.2-0.9-0.3-1.2-0.4-1.7
				c-0.2-0.6-0.5-1.1-1.3-1.2c-1.2-0.1-3.9-0.1-5.6-0.1c-0.1,0-0.2,0.2-0.2,0.3c0,1.8,0,4.8,0.1,6.7c0.1,0.9,0.5,1.5,1,1.7
				c0.9,0.2,4.5,0.3,6.2,0.2c1.6-0.1,2.1-0.5,2.9-1.5c0.7-0.9,1.3-2.2,1.8-3.4c0.2-0.1,1.4,0.3,1.5,0.6c-0.2,1.2-1,4.2-1.6,5.6
				c-0.3,0.6-0.6,0.8-2.3,0.8c-3.2,0.1-5.1-0.1-11.8-0.1c-3.3,0-5.5,0.2-6.9,0.2c-0.1-0.2-0.2-1.4,0-1.6c1.2-0.1,2.8-0.3,3.5-0.4
				c1-0.3,1.2-0.7,1.3-2.1c0.1-0.9,0.1-4.6,0.1-8.9c0-3.5,0-6.4-0.1-7.1c-0.1-1.2-0.3-1.6-1.2-1.9c-0.6-0.2-1.7-0.3-2.6-0.4
				C196.2,69,196.3,67.8,196.5,67.7z"/>
			<path class="st0" d="M221.8,67.7c1.2,0,3.4,0.2,5.6,0.2h2.6c0.2,0.4,0.4,0.8,1.5,2.1c4,4.9,11.1,13.5,12.9,15.6
				c0.1,0.1,0.1,0,0.2-0.1c0-5.3-0.1-11.1-0.2-13.8c-0.1-1.2-0.4-1.8-1.6-2.1c-0.6-0.2-1.7-0.3-2.9-0.4c-0.2-0.2-0.2-1.4,0-1.6
				c1,0,3.3,0.2,5.7,0.2c2.3,0,4.3-0.2,4.9-0.2c0.2,0.2,0.2,1.4,0,1.6c-0.8,0.1-1.8,0.2-2.3,0.4c-1,0.4-1.2,1-1.3,2
				c-0.2,2.9-0.2,9.6-0.3,14.8c0,1.7,0.1,4.1,0.1,5.4c-0.9-0.1-2.6-0.1-3.4,0c-1.9-2.6-12.3-15.7-14.7-18.7c-0.1-0.1-0.2,0-0.2,0
				c-0.1,4,0,12.1,0.1,14.3c0.1,1.5,0.6,1.8,1.6,2.2c0.5,0.2,1.6,0.3,2.5,0.4c0.2,0.2,0.2,1.3-0.1,1.6c-0.9,0-3.3-0.2-5.5-0.2
				c-2.6,0-4.2,0.2-5.2,0.2c-0.3-0.2-0.3-1.3,0-1.6c0.8-0.1,1.8-0.2,2.5-0.4c0.9-0.3,1.2-1,1.3-2.1c0.2-2,0.3-7.4,0.3-15.6
				c0-0.6-0.2-1.4-1-1.9c-0.8-0.4-1.7-0.6-3.4-0.8C221.6,69,221.6,67.8,221.8,67.7z"/>
			<path class="st0" d="M265.4,58.2c1.3,0,4,0.2,6.9,0.2c3.6,0,5.2-0.2,6.7-0.2c0.2,0.3,0.2,1.3-0.1,1.5c-1,0.2-2,0.3-2.6,0.5
				c-1.1,0.3-1.4,0.7-1.5,2.5c-0.1,2-0.1,4.7-0.1,10c0,0.2,0.1,0.5,0.3,0.5c0.4,0.1,1.3,0.1,9.1,0.1c5.9-0.1,8-0.1,8.4-0.1
				c0.2,0,0.3-0.2,0.3-0.3c0-2.8,0-8.9-0.1-10.8c-0.1-0.9-0.3-1.5-1.1-1.8c-0.8-0.3-1.8-0.4-3.2-0.6c-0.3-0.2-0.2-1.3,0.1-1.6
				c1.2,0,3.9,0.2,6.7,0.2c2.7,0,5.8-0.2,6.7-0.2c0.2,0.2,0.2,1.3,0,1.5c-1.2,0.2-2.1,0.3-2.8,0.5c-1.2,0.4-1.4,1-1.5,2.9
				c-0.1,1.9-0.1,5-0.1,11.4c0,4.7,0,10.6,0.1,12.4c0.2,1.5,0.5,2.1,1.5,2.4c0.8,0.3,1.8,0.4,3.4,0.6c0.2,0.2,0.1,1.4-0.2,1.6
				c-1.6,0-4.5-0.2-7.2-0.2s-5.4,0.1-6.8,0.2c-0.2-0.2-0.2-1.3,0-1.6c1.4-0.2,2.2-0.3,3.1-0.5c1-0.3,1.3-0.8,1.4-2.5
				c0-1.6,0-7.4,0-10.8c0-0.2-0.2-0.4-0.3-0.4c-1-0.1-5.6-0.1-8.5-0.1c-4.2,0-8.6,0-9.1,0.1c-0.1,0-0.2,0.3-0.2,0.3
				c0,3,0,9.1,0.1,10.3c0.1,1.8,0.3,2.6,1.7,3c0.8,0.2,1.6,0.4,3.2,0.6c0.2,0.3,0,1.5-0.2,1.6c-1,0-3.5-0.2-7-0.2
				c-3.2,0-6.1,0.2-7.1,0.2c-0.2-0.2-0.2-1.3-0.1-1.6c1.3-0.2,2.1-0.3,2.9-0.5c1.6-0.5,1.7-1.5,1.9-3.9c0-1.8,0.1-6.4,0.1-11.1
				c0-5.2-0.1-10.9-0.1-11.9c-0.1-1.5-0.4-2.1-1.5-2.4c-0.8-0.3-1.8-0.4-3.2-0.6C265.1,59.5,265.2,58.4,265.4,58.2z"/>
			<path class="st0" d="M306.1,67.7c0.8,0,3.7,0.2,5.7,0.2s4.9-0.2,6-0.2c0.2,0.2,0.2,1.3,0,1.6c-0.9,0.1-1.9,0.2-2.3,0.3
				c-0.9,0.2-1.2,0.7-1.2,1.9c-0.1,1.6-0.1,4.3-0.1,7.7c0,3.8,0.1,7,0.1,8.3c0.1,1.2,0.3,1.8,1.4,2.1c0.5,0.2,1.6,0.3,2.6,0.4
				c0.2,0.2,0.1,1.4-0.1,1.6c-1,0-4.3-0.2-6.3-0.2c-2.1,0-4.9,0.2-6.1,0.2c-0.2-0.2-0.2-1.4,0-1.6c0.9-0.1,2-0.3,2.5-0.4
				c1.1-0.3,1.3-0.8,1.4-1.7c0.1-1.1,0.1-4.5,0.1-9.5c0-3.1,0-5.2-0.1-7c-0.1-1-0.3-1.5-1.1-1.7c-0.6-0.2-1.6-0.3-2.7-0.4
				C305.9,69,306,67.8,306.1,67.7z"/>
			<path class="st0" d="M322.2,67.7c1.1,0,3.4,0.2,6,0.2c2.2,0,5-0.2,5.8-0.2c0.2,0.2,0.2,1.3,0,1.6c-1.1,0.1-1.9,0.3-2.4,0.3
				c-0.9,0.3-1.1,0.9-1.2,1.7c0,1.3-0.1,3.8-0.1,7.7c0,3.4,0.1,7.5,0.1,9.1c0.1,0.6,0.6,1.1,0.8,1.2c1.1,0.2,3.5,0.3,5.8,0.3
				c0.9,0,1.7-0.3,2.5-1.3c0.8-1.1,2-3.2,2.7-4.8c0.3-0.1,1.3,0.3,1.5,0.5c-0.3,1.7-1.5,5.7-2.3,7c-0.3,0.5-0.8,0.7-1.6,0.7
				c-2.5,0-9.9-0.2-11.9-0.2c-1.8,0-5.5,0.2-6.4,0.2c-0.2-0.2-0.2-1.3,0-1.5c1.3-0.2,2.4-0.2,3.1-0.4c0.9-0.2,1.2-0.7,1.2-1.6
				c0.1-1.1,0.2-4.4,0.2-9.3c0-4,0-5.9-0.1-6.9c-0.1-1.6-0.4-2-1.4-2.3c-0.5-0.2-1.6-0.3-2.4-0.4C322,69,322.1,67.8,322.2,67.7z"/>
			<path class="st0" d="M345.4,67.7c1.1,0,3.4,0.2,6,0.2c2.1,0,5-0.2,5.8-0.2c0.2,0.2,0.2,1.3,0,1.6c-1.1,0.1-1.9,0.3-2.4,0.3
				c-0.9,0.3-1.1,0.9-1.2,1.7c0,1.3-0.1,3.8-0.1,7.7c0,3.4,0.1,7.5,0.1,9.1c0.1,0.6,0.6,1.1,0.8,1.2c1.1,0.2,3.5,0.3,5.8,0.3
				c0.9,0,1.7-0.3,2.5-1.3c0.8-1.1,2-3.2,2.7-4.8c0.3-0.1,1.3,0.3,1.5,0.5c-0.3,1.7-1.5,5.7-2.3,7c-0.3,0.5-0.8,0.7-1.6,0.7
				c-2.5,0-9.9-0.2-11.9-0.2c-1.8,0-5.5,0.2-6.4,0.2c-0.2-0.2-0.2-1.3,0-1.5c1.3-0.2,2.4-0.2,3.1-0.4c0.9-0.2,1.2-0.7,1.2-1.6
				c0.1-1.1,0.2-4.4,0.2-9.3c0-4,0-5.9-0.1-6.9c-0.1-1.6-0.4-2-1.5-2.3c-0.5-0.2-1.6-0.3-2.4-0.4C345.2,69,345.3,67.8,345.4,67.7z"
				/>
			<path class="st0" d="M374,89.2c1,0.8,2.5,1.1,3.9,1.1c2.1,0,4.3-1,4.3-3.7c0-2.2-1.3-3.4-5.5-5.4c-4.4-2-6.2-4-6.2-7.5
				c0-4.2,3.9-6.7,8.4-6.7c1.9,0,3.1,0.2,3.9,0.3c1.1,0.2,2.2,0.3,2.7,0.3c-0.2,1.2-0.5,4.2-0.6,6.1c-0.3,0.2-1.4,0.2-1.6,0
				c-0.3-2.4-0.8-3.5-1.7-4.2c-0.9-0.6-2.1-1-3.4-1c-2.7,0-4,1.8-4,3.7c0,2,1.1,3.2,2.7,4.1c2,1,3.7,1.7,5.3,2.6
				c2.2,1.1,4,2.8,4,5.9c0,4-3.5,7.3-9.5,7.3c-2.5,0-5.5-0.8-6.4-1.2c-0.3-0.5-1-5-1.1-6.4c0.1-0.2,1.2-0.4,1.6-0.3
				C371.7,86.6,372.6,88.3,374,89.2z"/>
		</g>
	</g>
</g>
</svg>
