<?xml version="1.0" encoding="utf-8"?>
<!-- Generator: Adobe Illustrator 25.3.1, SVG Export Plug-In . SVG Version: 6.00 Build 0)  -->
<svg version="1.1" id="Layer_1" xmlns="http://www.w3.org/2000/svg" xmlns:xlink="http://www.w3.org/1999/xlink" x="0px" y="0px"
	 viewBox="0 0 300 96" style="enable-background:new 0 0 300 96;" xml:space="preserve">
<style type="text/css">
	.st0{fill:#617FA6;}
</style>
<g>
	<g>
		<g>
			<path class="st0" d="M24.246,34.507V21.079l-1.057,0.456v14.941c0.775-0.221,2.326-1.444,5.787-1.46
				c2.545-0.011,3.843,0.335,7.897,2.808c2.746,1.68,3.293,2.67,4.794,2.67c2.102,0,3.516-1.065,4.146-1.374
				c0.724-0.354,2.118-1.044,2.118-1.044c-3.052-1.799-7.023-5.049-8.659-5.842c-1.633-0.797-2.785-1.09-3.872-1.09
				C33.765,31.144,31.589,31.131,24.246,34.507z"/>
			<path class="st0" d="M25.513,37.048c-0.659,0.229-1.543,0.565-2.324,0.925v36.119l1.037-0.431V38.748
				c0,0,1.622-0.508,4.317,1.457c2.693,1.965,3.143,1.659,3.522,1.659c0.382,0,1.278-0.169,2.695-0.812
				c1.417-0.642,1.588-0.711,1.588-0.711s-1.83-1.287-2.451-1.728c-0.621-0.441-2.798-1.966-5.353-1.966
				C28.543,36.647,26.817,36.598,25.513,37.048z"/>
			<path class="st0" d="M21.705,38.613v36.116l-1.935,0.84V40.375c0,0-9.672,4.2-9.947,4.2c-0.279,0-0.501,0.097-0.71-0.169
				c-0.207-0.267-0.012-0.42,0.092-0.47C9.308,43.885,21.705,38.613,21.705,38.613z"/>
			<path class="st0" d="M21.694,22.164v14.95c0,0-11.843,5.076-12.242,5.255c-0.397,0.18-1.811,0.534-2.825,0.534
				c-1.013,0-2.498-0.64-2.498-1.776c0-0.32,0.217-0.66,0.507-0.781c0.255-0.105,4.246-1.847,4.246-1.847s0.891,0.914,3.171,0.914
				c0.566,0,1.114-0.164,1.606-0.356l6.129-2.617V22.974L21.694,22.164z"/>
		</g>
	</g>
</g>
<g>
	<path class="st0" d="M80.623,52.227c-1.329,0.404-5.275,1.533-8.78,1.533c-9.425,0-14.379-4.754-14.379-13.255
		c0-5.314,2.698-9.463,7.088-11.434c2.257-1.05,4.714-1.532,7.856-1.532c3.261,0,5.558,0.645,7.975,0.886
		c-0.323,1.489-0.687,4.592-0.727,6.406c-0.12,0.198-1.127,0.281-1.328,0.118c-0.324-3.018-0.805-4.148-1.974-4.832
		c-1.249-0.726-2.861-1.128-5.478-1.128c-6.284,0-9.305,4.47-9.305,11.077c0,6.927,3.706,12.286,10.997,12.286
		c1.126,0,2.135-0.161,2.696-0.526c0.565-0.279,0.806-1.007,0.889-1.691c0.12-1.248,0.12-2.738,0.077-4.108
		c-0.077-1.327-0.32-1.811-1.488-2.134c-0.724-0.161-1.449-0.24-2.698-0.404c-0.201-0.118-0.122-1.046,0.039-1.168
		c1.248,0,3.181,0.122,5.639,0.122c2.376,0,3.586-0.078,4.391-0.122c0.12,0.122,0.12,1.089-0.042,1.211
		c-0.484,0.079-0.966,0.161-1.328,0.283c-0.765,0.24-0.966,0.763-1.007,1.932c-0.041,1.207-0.082,3.706,0,4.47
		c0.041,0.605,0.121,0.806,1.007,1.168C80.782,51.503,80.704,52.109,80.623,52.227z"/>
	<path class="st0" d="M88.315,50.98c-1.776-1.895-2.54-4.31-2.54-6.846c0-2.178,0.645-4.15,1.895-5.679
		c1.648-2.177,4.711-3.625,8.054-3.625c6.042,0,9.224,4.39,9.224,9.06c0,2.496-0.604,4.31-1.853,5.921
		c-1.893,2.619-4.753,3.785-7.894,3.785C92.22,53.597,89.924,52.591,88.315,50.98z M101.365,44.816c0-4.348-1.975-8.576-6.607-8.576
		c-3.745,0-5.316,3.38-5.316,7.128c0,4.552,2.215,8.699,6.767,8.699C99.955,52.067,101.365,48.564,101.365,44.816z"/>
	<path class="st0" d="M107.891,35.233c0.805,0,2.536,0.119,4.51,0.119c1.612,0,3.746-0.119,4.351-0.119
		c0.164,0.119,0.121,1.007,0,1.167c-0.807,0.079-1.41,0.201-1.814,0.242c-0.682,0.201-0.844,0.644-0.884,1.248
		c0,0.968-0.041,2.818-0.041,5.8c0,2.575,0.041,5.638,0.081,6.807c0.042,0.483,0.444,0.846,0.605,0.884
		c0.807,0.122,2.618,0.201,4.35,0.201c0.684,0,1.287-0.24,1.891-0.964c0.605-0.807,1.532-2.418,2.056-3.584
		c0.201-0.083,1.007,0.24,1.084,0.403c-0.238,1.288-1.126,4.269-1.689,5.235c-0.203,0.361-0.563,0.521-1.209,0.521
		c-1.853,0-7.412-0.159-8.942-0.159c-1.37,0-4.148,0.121-4.793,0.121c-0.162-0.161-0.12-1.008,0-1.126
		c0.965-0.124,1.811-0.16,2.335-0.323c0.686-0.161,0.886-0.524,0.928-1.17c0.079-0.807,0.119-3.262,0.119-7.008
		c0-3.023,0-4.391-0.04-5.157c-0.038-1.209-0.321-1.53-1.087-1.69c-0.36-0.122-1.167-0.241-1.812-0.283
		C107.73,36.24,107.81,35.352,107.891,35.233z"/>
	<path class="st0" d="M126.417,35.233c0.605,0,2.939,0.119,4.027,0.119c1.692,0,3.221-0.079,5.999-0.079
		c2.541,0,4.835,0.685,6.447,1.972c1.852,1.652,2.779,3.868,2.779,6.525c0,3.829-1.814,6.164-3.706,7.453
		c-1.811,1.288-3.908,2.055-7.09,2.055c-2.174,0-5.356-0.164-7.49-0.164h-1.329c-0.123-0.201-0.123-1.046,0-1.167
		c0.682-0.04,1.812-0.16,2.296-0.281c0.562-0.119,0.928-0.365,1.005-1.368c0.083-1.775,0.083-3.828,0.083-6.406
		c0-1.691,0-4.753-0.083-5.84c-0.077-0.887-0.361-1.209-1.086-1.368c-0.443-0.082-1.169-0.203-1.936-0.283
		C126.174,36.24,126.256,35.352,126.417,35.233z M133.183,50.98c0.646,0.602,1.691,0.845,2.779,0.845c1.048,0,2.58-0.16,3.907-1.328
		c1.45-1.329,2.336-3.302,2.336-6.203c0-2.901-0.886-5.033-3.221-6.524c-1.291-0.847-2.742-1.128-4.593-1.128
		c-0.483,0-1.209,0.041-1.45,0.161c-0.12,0.082-0.284,0.242-0.284,0.482c-0.038,0.644-0.038,4.23-0.038,6.647
		c0,2.496,0,5.437,0.122,6.001C132.742,50.256,132.942,50.78,133.183,50.98z"/>
	<path class="st0" d="M148.048,35.233c0.768,0,2.778,0.119,4.431,0.119h6.365c1.41,0,2.82-0.04,3.502-0.16
		c0.041,0,0.164,0.16,0.164,0.2c-0.241,0.848-0.402,2.901-0.483,4.311c-0.162,0.202-1.09,0.202-1.168,0.081
		c-0.123-0.681-0.243-1.251-0.403-1.69c-0.201-0.767-0.605-1.131-1.572-1.209c-0.524-0.082-4.027-0.082-4.391,0
		c-0.24,0.037-0.402,0.401-0.402,0.561c0,1.897-0.041,4.272,0,5.602c0,0.078,0.083,0.2,0.162,0.2c1.491,0,3.182,0,4.188-0.04
		c0.764-0.039,0.966-0.525,1.127-0.969c0.122-0.362,0.201-0.764,0.283-1.207c0.203-0.081,1.127,0,1.248,0.122
		c-0.08,0.563-0.201,2.054-0.201,2.939c0,0.807,0.038,2.136,0.08,2.942c-0.16,0.119-1.087,0.161-1.246,0.039
		c-0.122-0.644-0.203-0.886-0.283-1.25c-0.162-0.441-0.404-0.844-1.008-0.885c-0.925-0.081-2.899-0.081-4.188-0.081
		c-0.079,0-0.162,0.163-0.162,0.244c0,1.328,0,3.584,0.04,4.994c0.042,0.685,0.404,1.127,0.725,1.249
		c0.646,0.16,3.383,0.203,4.632,0.16c1.21-0.042,1.611-0.363,2.176-1.126c0.521-0.685,1.006-1.652,1.37-2.539
		c0.159-0.039,1.084,0.202,1.126,0.443c-0.12,0.887-0.726,3.143-1.209,4.228c-0.243,0.485-0.442,0.603-1.73,0.603
		c-2.418,0.042-3.828-0.079-8.823-0.079c-2.455,0-4.148,0.121-5.195,0.121c-0.08-0.121-0.122-1.046,0-1.168
		c0.926-0.082,2.094-0.202,2.659-0.323c0.727-0.204,0.887-0.525,0.964-1.57c0.043-0.685,0.043-3.424,0.043-6.646
		c0-2.619,0-4.791-0.043-5.318c-0.077-0.925-0.199-1.209-0.883-1.408c-0.443-0.122-1.291-0.243-1.973-0.323
		C147.847,36.278,147.887,35.312,148.048,35.233z"/>
	<path class="st0" d="M167.058,35.233c0.926,0,2.537,0.119,4.189,0.119h1.932c0.12,0.324,0.323,0.605,1.09,1.57
		c2.977,3.708,8.296,10.112,9.706,11.722c0.037,0.041,0.079,0,0.12-0.041c0-3.947-0.041-8.297-0.12-10.31
		c-0.082-0.886-0.323-1.371-1.207-1.571c-0.486-0.122-1.292-0.201-2.137-0.323c-0.161-0.122-0.12-1.048,0-1.167
		c0.726,0,2.458,0.119,4.271,0.119c1.689,0,3.261-0.119,3.665-0.119c0.162,0.119,0.122,1.045,0,1.167
		c-0.605,0.042-1.329,0.161-1.692,0.283c-0.764,0.281-0.924,0.725-0.967,1.488c-0.121,2.176-0.162,7.212-0.202,11.078
		c0,1.288,0.04,3.06,0.081,4.028c-0.644-0.083-1.934-0.083-2.538,0c-1.41-1.976-9.224-11.761-11.035-14.016
		c-0.042-0.041-0.122,0-0.122,0c-0.037,2.978,0,9.101,0.081,10.752c0.042,1.127,0.444,1.368,1.209,1.652
		c0.403,0.121,1.168,0.24,1.892,0.323c0.164,0.122,0.122,1.007-0.038,1.168c-0.687,0-2.499-0.121-4.11-0.121
		c-1.973,0-3.141,0.121-3.866,0.121c-0.201-0.121-0.201-1.008,0-1.168c0.564-0.082,1.37-0.118,1.894-0.323
		c0.684-0.241,0.926-0.725,1.007-1.57c0.122-1.491,0.201-5.557,0.201-11.682c0-0.483-0.161-1.047-0.765-1.408
		c-0.564-0.282-1.287-0.482-2.578-0.605C166.857,36.278,166.899,35.352,167.058,35.233z"/>
	<path class="st0" d="M199.724,28.144c0.967,0,2.982,0.121,5.157,0.121c2.698,0,3.905-0.121,5.033-0.121
		c0.122,0.201,0.122,1.008-0.041,1.127c-0.723,0.12-1.489,0.24-1.932,0.363c-0.808,0.242-1.087,0.562-1.128,1.851
		c-0.08,1.49-0.04,3.543-0.04,7.493c0,0.16,0.082,0.364,0.201,0.401c0.283,0.042,1.008,0.081,6.849,0.081
		c4.43-0.038,5.962-0.038,6.325-0.081c0.119,0,0.239-0.159,0.239-0.241c0-2.093,0-6.644-0.079-8.095
		c-0.041-0.643-0.243-1.129-0.806-1.329c-0.604-0.202-1.328-0.323-2.376-0.443c-0.202-0.161-0.161-0.967,0.042-1.17
		c0.925,0,2.898,0.164,5.033,0.164c2.013,0,4.35-0.121,4.995-0.121c0.122,0.16,0.16,0.966,0,1.127
		c-0.885,0.12-1.572,0.24-2.094,0.402c-0.887,0.283-1.048,0.727-1.129,2.176c-0.079,1.409-0.079,3.784-0.079,8.576
		c0,3.507,0,7.936,0.079,9.304c0.123,1.13,0.365,1.57,1.129,1.816c0.564,0.2,1.329,0.323,2.578,0.442
		c0.119,0.159,0.08,1.046-0.162,1.168c-1.207,0-3.343-0.121-5.395-0.121c-2.056,0-4.071,0.079-5.114,0.121
		c-0.164-0.161-0.164-0.965,0-1.168c1.043-0.118,1.647-0.202,2.293-0.405c0.726-0.201,0.967-0.602,1.05-1.853
		c0.037-1.166,0.037-5.554,0.037-8.093c0-0.122-0.12-0.284-0.239-0.284c-0.764-0.04-4.191-0.04-6.406-0.04
		c-3.142,0-6.445,0-6.846,0.04c-0.083,0-0.123,0.201-0.123,0.242c0,2.216,0,6.846,0.04,7.693c0.083,1.37,0.243,1.934,1.25,2.215
		c0.606,0.162,1.209,0.322,2.415,0.485c0.162,0.203,0,1.088-0.16,1.168c-0.766,0-2.657-0.121-5.235-0.121
		c-2.376,0-4.551,0.121-5.358,0.121c-0.164-0.161-0.164-1.008-0.039-1.168c0.966-0.118,1.611-0.242,2.174-0.363
		c1.167-0.361,1.288-1.088,1.41-2.94c0-1.368,0.038-4.794,0.038-8.297c0-3.909-0.038-8.176-0.08-8.903
		c-0.081-1.127-0.321-1.571-1.126-1.772c-0.604-0.202-1.331-0.282-2.416-0.443C199.522,29.11,199.56,28.304,199.724,28.144z"/>
	<path class="st0" d="M230.253,35.233c0.602,0,2.738,0.119,4.308,0.119c1.491,0,3.705-0.119,4.509-0.119
		c0.165,0.119,0.165,0.965,0,1.209c-0.642,0.037-1.408,0.159-1.73,0.241c-0.684,0.16-0.884,0.524-0.925,1.411
		c-0.082,1.207-0.082,3.26-0.082,5.797c0,2.82,0.041,5.235,0.082,6.204c0.041,0.925,0.241,1.329,1.085,1.57
		c0.404,0.121,1.208,0.24,1.975,0.323c0.122,0.122,0.081,1.046-0.037,1.168c-0.729,0-3.226-0.121-4.715-0.121
		c-1.61,0-3.663,0.121-4.592,0.121c-0.12-0.161-0.162-1.046,0-1.168c0.683-0.082,1.49-0.202,1.895-0.281
		c0.845-0.203,0.966-0.606,1.046-1.291c0.08-0.845,0.08-3.381,0.08-7.128c0-2.335,0-3.907-0.08-5.278
		c-0.041-0.764-0.201-1.087-0.806-1.287c-0.484-0.122-1.167-0.201-2.012-0.281C230.09,36.278,230.17,35.352,230.253,35.233z"/>
	<path class="st0" d="M242.262,35.233c0.805,0,2.536,0.119,4.51,0.119c1.613,0,3.745-0.119,4.35-0.119
		c0.163,0.119,0.121,1.007,0,1.167c-0.807,0.079-1.411,0.201-1.813,0.242c-0.683,0.201-0.844,0.644-0.886,1.248
		c0,0.968-0.039,2.818-0.039,5.8c0,2.575,0.039,5.638,0.081,6.807c0.041,0.483,0.442,0.846,0.604,0.884
		c0.805,0.122,2.619,0.201,4.35,0.201c0.681,0,1.287-0.24,1.891-0.964c0.605-0.807,1.533-2.418,2.056-3.584
		c0.201-0.083,1.007,0.24,1.087,0.403c-0.242,1.288-1.128,4.269-1.69,5.235c-0.203,0.361-0.564,0.521-1.21,0.521
		c-1.854,0-7.412-0.159-8.941-0.159c-1.369,0-4.15,0.121-4.794,0.121c-0.161-0.161-0.12-1.008,0-1.126
		c0.967-0.124,1.812-0.16,2.336-0.323c0.684-0.161,0.888-0.524,0.928-1.17c0.078-0.807,0.119-3.262,0.119-7.008
		c0-3.023,0-4.391-0.041-5.157c-0.037-1.209-0.322-1.53-1.087-1.69c-0.361-0.122-1.167-0.241-1.812-0.283
		C242.1,36.24,242.181,35.352,242.262,35.233z"/>
	<path class="st0" d="M259.661,35.233c0.802,0,2.537,0.119,4.511,0.119c1.612,0,3.745-0.119,4.35-0.119
		c0.161,0.119,0.12,1.007,0,1.167c-0.807,0.079-1.411,0.201-1.813,0.242c-0.686,0.201-0.847,0.644-0.888,1.248
		c0,0.968-0.037,2.818-0.037,5.8c0,2.575,0.037,5.638,0.078,6.807c0.04,0.483,0.444,0.846,0.604,0.884
		c0.806,0.122,2.622,0.201,4.351,0.201c0.685,0,1.29-0.24,1.894-0.964c0.605-0.807,1.531-2.418,2.053-3.584
		c0.201-0.083,1.007,0.24,1.09,0.403c-0.243,1.288-1.128,4.269-1.693,5.235c-0.203,0.361-0.565,0.521-1.208,0.521
		c-1.853,0-7.412-0.159-8.94-0.159c-1.371,0-4.149,0.121-4.794,0.121c-0.161-0.161-0.124-1.008,0-1.126
		c0.967-0.124,1.814-0.16,2.335-0.323c0.686-0.161,0.888-0.524,0.927-1.17c0.081-0.807,0.122-3.262,0.122-7.008
		c0-3.023,0-4.391-0.041-5.157c-0.042-1.209-0.322-1.53-1.089-1.69c-0.362-0.122-1.168-0.241-1.81-0.283
		C259.498,36.24,259.58,35.352,259.661,35.233z"/>
	<path class="st0" d="M281.086,51.382c0.727,0.564,1.854,0.846,2.94,0.846c1.57,0,3.223-0.724,3.223-2.737
		c0-1.652-0.966-2.577-4.106-4.067c-3.265-1.49-4.675-2.982-4.675-5.599c0-3.141,2.942-4.993,6.322-4.993
		c1.411,0,2.299,0.118,2.943,0.198c0.844,0.124,1.65,0.245,2.054,0.245c-0.162,0.925-0.404,3.14-0.482,4.59
		c-0.203,0.162-1.049,0.162-1.168,0c-0.202-1.812-0.565-2.657-1.25-3.141c-0.645-0.482-1.611-0.725-2.537-0.725
		c-2.055,0-3.021,1.329-3.021,2.739c0,1.488,0.805,2.417,2.054,3.06c1.49,0.766,2.739,1.287,3.985,1.933
		c1.613,0.845,3.024,2.094,3.024,4.392c0,2.979-2.659,5.476-7.089,5.476c-1.854,0-4.107-0.603-4.793-0.925
		c-0.242-0.364-0.765-3.748-0.847-4.835c0.04-0.119,0.928-0.322,1.17-0.24C279.357,49.41,280.079,50.699,281.086,51.382z"/>
</g>
<g>
	<path class="st0" d="M66.04,64.737c-0.47-0.25-1.057-0.352-1.674-0.352c-1.704,0-2.732,1.307-2.732,3.789
		c0,1.747,0.896,3.994,3.407,3.994c0.499,0,0.94-0.103,1.322-0.396c0.352-0.279,0.823-0.881,1.219-1.513
		c0.162,0.029,0.47,0.22,0.573,0.397c-0.191,0.617-0.866,1.836-1.278,2.085c-0.455,0.162-1.19,0.382-2.232,0.382
		c-3.334,0-5.316-1.674-5.316-4.817c0-1.659,0.822-3.231,2.452-4.038c0.808-0.397,1.747-0.632,2.952-0.632
		c1.41,0,2.497,0.264,3.099,0.279c-0.088,0.543-0.206,1.747-0.206,2.511c-0.073,0.103-0.676,0.162-0.69,0.059
		C66.745,65.471,66.628,65.06,66.04,64.737z"/>
	<path class="st0" d="M75.017,71.801c-0.925-0.969-1.263-2.232-1.263-3.436c0-1.19,0.382-2.541,1.556-3.481
		c0.823-0.734,2.085-1.248,3.51-1.248c3.084,0,4.67,2.159,4.67,4.582c0,1.175-0.294,2.218-0.911,3.025
		c-1.013,1.292-2.497,1.88-3.965,1.88C76.912,73.123,75.825,72.609,75.017,71.801z M80.26,71.845
		c0.734-0.632,0.969-1.806,0.969-3.099c0-1.571-0.441-3.04-1.395-3.789c-0.44-0.338-0.881-0.514-1.483-0.514
		c-0.411,0-0.808,0.103-1.101,0.294c-0.896,0.573-1.219,1.821-1.219,3.216c0,1.351,0.441,2.981,1.513,3.804
		c0.441,0.323,0.881,0.514,1.527,0.514C79.482,72.271,79.937,72.139,80.26,71.845z"/>
	<path class="st0" d="M88.99,63.856c0.984,0,2.32,0.044,3.554,0.044c0.044,0.352,0.162,0.661,0.308,0.984
		c0.617,1.366,1.836,3.907,2.218,4.641c0.029,0.029,0.074,0.015,0.103-0.015c0.352-0.661,1.762-3.569,2.247-4.729
		c0.132-0.338,0.235-0.617,0.264-0.881c1.968,0,2.614-0.044,3.334-0.044c0.073,0.044,0.088,0.602,0,0.676
		c-0.441,0.074-0.793,0.118-1.013,0.191c-0.294,0.103-0.382,0.323-0.382,0.661c-0.015,1.043,0.103,4.876,0.191,5.874
		c0.029,0.396,0.132,0.69,0.529,0.793c0.205,0.059,0.543,0.118,0.94,0.191c0.073,0.103,0.044,0.573-0.044,0.661
		c-0.499,0-1.204-0.044-2.511-0.044c-0.823,0-1.513,0.044-2.203,0.044c-0.073-0.088-0.059-0.573,0-0.661
		c0.367-0.073,0.646-0.117,0.852-0.191c0.264-0.088,0.323-0.235,0.338-0.705c0.029-1.131,0-3.466,0.014-5.096
		c-0.014-0.014-0.059-0.029-0.073,0c-0.573,1.322-2.423,5.272-2.878,6.506c-0.059,0.044-0.646,0.044-0.72,0.015
		c-0.382-1.219-1.806-4.464-2.658-6.432c-0.029-0.015-0.088,0-0.103,0.029c-0.103,1.483-0.206,3.701-0.22,4.861
		c0,0.426,0.044,0.661,0.499,0.808c0.294,0.088,0.602,0.147,1.028,0.205c0.088,0.073,0.044,0.587-0.044,0.661
		c-0.323,0-1.131-0.044-2.232-0.044c-0.661,0-1.366,0.044-1.836,0.044c-0.059-0.103-0.073-0.573,0-0.661
		c0.309-0.059,0.646-0.088,0.852-0.162c0.426-0.118,0.558-0.338,0.631-0.896c0.147-1.175,0.441-4.567,0.499-5.757
		c0.015-0.25-0.088-0.543-0.382-0.646c-0.25-0.088-0.646-0.162-1.146-0.25C88.887,64.443,88.945,63.9,88.99,63.856z"/>
	<path class="st0" d="M107.133,63.856c0.984,0,2.32,0.044,3.554,0.044c0.044,0.352,0.162,0.661,0.308,0.984
		c0.617,1.366,1.836,3.907,2.218,4.641c0.029,0.029,0.074,0.015,0.103-0.015c0.352-0.661,1.762-3.569,2.247-4.729
		c0.132-0.338,0.235-0.617,0.264-0.881c1.968,0,2.614-0.044,3.334-0.044c0.073,0.044,0.088,0.602,0,0.676
		c-0.441,0.074-0.793,0.118-1.013,0.191c-0.294,0.103-0.382,0.323-0.382,0.661c-0.015,1.043,0.103,4.876,0.191,5.874
		c0.029,0.396,0.132,0.69,0.529,0.793c0.205,0.059,0.543,0.118,0.94,0.191c0.073,0.103,0.044,0.573-0.044,0.661
		c-0.499,0-1.204-0.044-2.511-0.044c-0.823,0-1.513,0.044-2.203,0.044c-0.073-0.088-0.059-0.573,0-0.661
		c0.367-0.073,0.646-0.117,0.852-0.191c0.264-0.088,0.323-0.235,0.338-0.705c0.029-1.131,0-3.466,0.014-5.096
		c-0.014-0.014-0.059-0.029-0.073,0c-0.573,1.322-2.423,5.272-2.878,6.506c-0.059,0.044-0.646,0.044-0.72,0.015
		c-0.382-1.219-1.806-4.464-2.658-6.432c-0.029-0.015-0.088,0-0.103,0.029c-0.103,1.483-0.206,3.701-0.22,4.861
		c0,0.426,0.044,0.661,0.499,0.808c0.294,0.088,0.602,0.147,1.028,0.205c0.088,0.073,0.044,0.587-0.044,0.661
		c-0.323,0-1.131-0.044-2.232-0.044c-0.661,0-1.366,0.044-1.836,0.044c-0.059-0.103-0.073-0.573,0-0.661
		c0.309-0.059,0.646-0.088,0.852-0.162c0.426-0.118,0.558-0.338,0.631-0.896c0.147-1.175,0.441-4.567,0.499-5.757
		c0.015-0.25-0.088-0.543-0.382-0.646c-0.25-0.088-0.646-0.162-1.146-0.25C107.03,64.443,107.088,63.9,107.133,63.856z"/>
	<path class="st0" d="M124.771,63.871c0.617,0,1.615,0.029,2.335,0.029c0.749,0,1.615-0.044,2.291-0.044
		c0.073,0.103,0.073,0.558,0,0.676c-0.294,0.044-0.587,0.118-0.764,0.147c-0.396,0.103-0.485,0.352-0.485,0.808
		c-0.029,1.248-0.015,2.129,0,2.922c0,0.367,0.029,1.263,0.088,1.733c0.117,0.999,0.852,1.762,2.408,1.762
		c0.999,0,2.174-0.235,2.306-2.438c0.059-1.116,0.074-3.069,0-3.848c-0.029-0.499-0.103-0.808-0.617-0.911
		c-0.22-0.073-0.602-0.117-0.999-0.176c-0.059-0.117-0.044-0.543,0.015-0.676c0.587,0,1.292,0.044,2.041,0.044
		c1.16,0,1.63-0.044,1.924-0.044c0.073,0.103,0.088,0.587,0,0.676c-0.235,0.059-0.47,0.074-0.705,0.147
		c-0.367,0.088-0.499,0.352-0.529,1.057c-0.059,1.131-0.073,2.79-0.205,3.818c-0.235,2.761-1.88,3.569-3.95,3.569
		c-2.688,0-3.583-1.322-3.73-2.805c-0.088-1.057-0.088-4.083-0.103-4.89c-0.015-0.352-0.118-0.602-0.47-0.72
		c-0.191-0.073-0.543-0.132-0.866-0.176C124.698,64.429,124.698,63.959,124.771,63.871z"/>
	<path class="st0" d="M140.735,63.856c0.485,0,1.116,0.044,2.203,0.044c0.411,0,0.896,0,1.131-0.015
		c0.103,0.235,0.235,0.441,0.573,0.852c1.278,1.615,3.466,4.332,4.347,5.331c0.029,0,0.059-0.015,0.073-0.029
		c-0.014-1.924,0-3.378-0.073-4.508c-0.029-0.485-0.161-0.72-0.646-0.837c-0.323-0.074-0.632-0.118-0.999-0.162
		c-0.074-0.073-0.044-0.631,0-0.676c0.338,0,1.013,0.044,2.129,0.044c0.91,0,1.586-0.044,1.894-0.044
		c0.059,0.073,0.059,0.602,0,0.676c-0.205,0.029-0.396,0.074-0.631,0.132c-0.397,0.132-0.573,0.25-0.632,0.896
		c-0.088,1.146-0.117,2.937-0.132,5.331c0,0.676,0.015,1.527,0.029,2.071c-0.205-0.029-1.278-0.015-1.483,0.015
		c-1.028-1.351-3.994-5.213-5.228-6.741c-0.044-0.044-0.088,0-0.088,0.014c-0.015,1.601,0,4.171,0.044,4.876
		c0.029,0.602,0.25,0.837,0.661,0.94c0.235,0.059,0.514,0.103,0.94,0.176c0.073,0.073,0.044,0.543-0.029,0.661
		c-0.602,0-1.292-0.044-2.027-0.044c-0.749,0-1.527,0.044-2.071,0.044c-0.073-0.073-0.059-0.602,0-0.661
		c0.352-0.059,0.602-0.103,0.91-0.205c0.338-0.132,0.485-0.426,0.514-0.823c0.088-0.822,0.118-3.539,0.132-5.566
		c0-0.294-0.103-0.705-0.485-0.852c-0.264-0.103-0.588-0.205-1.057-0.25C140.662,64.473,140.677,63.929,140.735,63.856z"/>
	<path class="st0" d="M156.93,63.856c0.441,0,1.234,0.044,2.218,0.044c1.351,0,1.953-0.044,2.35-0.044
		c0.059,0.088,0.073,0.573,0,0.676c-0.352,0.044-0.646,0.074-0.866,0.147c-0.352,0.103-0.367,0.352-0.382,0.676
		c-0.029,0.529-0.014,1.366-0.014,2.643c0,1.351-0.015,2.79,0.014,3.348c0.015,0.323,0.059,0.587,0.47,0.705
		c0.191,0.059,0.617,0.132,0.984,0.191c0.059,0.088,0,0.587-0.103,0.661c-0.411-0.014-1.175-0.044-2.32-0.044
		c-1.204,0-1.909,0.044-2.379,0.044c-0.103-0.073-0.088-0.602,0-0.661c0.338-0.059,0.558-0.088,0.749-0.132
		c0.441-0.088,0.514-0.235,0.558-0.705c0.044-0.382,0.029-2.174,0.029-3.392c0-1.483,0.015-2.085-0.029-2.702
		c-0.014-0.338-0.117-0.528-0.382-0.602c-0.309-0.103-0.573-0.132-0.925-0.176C156.842,64.429,156.856,63.959,156.93,63.856z"/>
	<path class="st0" d="M173.952,72.902c-0.558,0-1.469-0.044-2.614-0.044c-1.263,0-2.144,0.044-2.599,0.044
		c-0.118-0.088-0.103-0.587,0-0.661c0.44-0.059,0.822-0.117,1.028-0.162c0.455-0.103,0.558-0.308,0.587-0.91
		c0.073-1.557,0.059-3.804,0.059-6.197c0-0.044-0.044-0.132-0.088-0.132c-0.264-0.029-0.984-0.029-1.439-0.015
		c-0.235,0.015-0.455,0.088-0.676,0.529c-0.162,0.323-0.323,0.719-0.529,1.307c-0.073,0.059-0.69-0.074-0.734-0.191
		c0.117-0.632,0.279-1.894,0.338-2.658c0.014-0.029,0.147-0.118,0.191-0.103c0.411,0.147,0.911,0.191,1.366,0.191h5.228
		c0.881,0,1.395-0.044,1.762-0.176c0.059,0,0.117,0.103,0.132,0.132c-0.176,0.72-0.308,1.777-0.382,2.717
		c-0.088,0.073-0.661,0.103-0.734,0.029c-0.073-0.587-0.147-0.955-0.264-1.351c-0.117-0.323-0.279-0.426-0.543-0.441
		c-0.529-0.044-1.263-0.029-1.571-0.015c-0.029,0.015-0.073,0.074-0.073,0.118c0,2.159-0.044,5.683,0.015,6.476
		c0.029,0.176,0.059,0.499,0.382,0.632c0.22,0.088,0.632,0.132,1.204,0.22C174.084,72.33,174.04,72.8,173.952,72.902z"/>
	<path class="st0" d="M181.214,63.856c0.47,0,1.278,0.044,2.012,0.044c0.852,0,2.012-0.029,2.261-0.044
		c0.088,0.088,0.088,0.602,0.015,0.676c-0.147,0.015-0.352,0.059-0.455,0.088c-0.235,0.059-0.162,0.25-0.088,0.426
		c0.264,0.617,1.248,2.585,1.513,2.996c0.029,0.029,0.088,0.015,0.118,0c0.499-0.837,1.395-2.511,1.513-2.922
		c0.029-0.22,0.059-0.382-0.309-0.455c-0.25-0.044-0.499-0.088-0.822-0.132c-0.044-0.132-0.015-0.617,0.059-0.676
		c0.543,0.015,1.087,0.044,1.909,0.044c0.91,0,1.292-0.029,1.821-0.044c0.073,0.059,0.073,0.602,0,0.676
		c-0.294,0.059-0.573,0.088-0.734,0.147c-0.441,0.147-0.631,0.279-1.087,0.969c-0.602,0.925-1.498,2.526-1.85,3.202
		c-0.118,0.22-0.161,0.396-0.161,0.676c0,0.632,0,0.91,0.014,1.66c0.015,0.514,0.059,0.822,0.485,0.91
		c0.235,0.059,0.602,0.103,0.955,0.162c0.073,0.073,0,0.587-0.059,0.661c-0.426,0-1.586-0.059-2.497-0.059
		c-1.19,0-1.689,0.059-2.379,0.059c-0.073-0.073-0.073-0.617,0-0.661c0.441-0.059,0.823-0.118,1.057-0.176
		c0.367-0.103,0.455-0.352,0.455-0.778c0.029-0.705,0.014-0.94,0.014-1.586c0-0.22-0.088-0.514-0.191-0.764
		c-0.279-0.632-1.116-2.188-1.674-3.202c-0.441-0.793-0.676-0.984-1.101-1.101c-0.205-0.059-0.47-0.103-0.822-0.132
		C181.112,64.385,181.141,63.944,181.214,63.856z"/>
	<path class="st0" d="M209.862,64.737c-0.47-0.25-1.057-0.352-1.674-0.352c-1.704,0-2.732,1.307-2.732,3.789
		c0,1.747,0.896,3.994,3.407,3.994c0.499,0,0.94-0.103,1.322-0.396c0.352-0.279,0.823-0.881,1.219-1.513
		c0.162,0.029,0.47,0.22,0.573,0.397c-0.191,0.617-0.866,1.836-1.278,2.085c-0.455,0.162-1.19,0.382-2.232,0.382
		c-3.334,0-5.316-1.674-5.316-4.817c0-1.659,0.822-3.231,2.452-4.038c0.808-0.397,1.747-0.632,2.952-0.632
		c1.41,0,2.497,0.264,3.099,0.279c-0.088,0.543-0.206,1.747-0.206,2.511c-0.073,0.103-0.676,0.162-0.69,0.059
		C210.567,65.471,210.45,65.06,209.862,64.737z"/>
	<path class="st0" d="M217.515,63.856c0.352,0,0.881,0.044,2.159,0.044c1.219,0,1.894-0.044,2.247-0.044
		c0.073,0.088,0.059,0.602-0.015,0.676c-0.294,0.029-0.617,0.088-0.778,0.147c-0.294,0.103-0.352,0.308-0.352,0.676
		c-0.014,0.587-0.014,1.248-0.014,2.276c0.014,0.073,0.044,0.103,0.073,0.132c0.147,0.029,0.396,0.029,1.968,0.029
		c1.307-0.015,1.674-0.015,1.806-0.029c0.059-0.015,0.103-0.059,0.103-0.103c0-0.734,0-1.689-0.014-2.438
		c-0.015-0.191-0.059-0.426-0.264-0.499c-0.206-0.103-0.499-0.132-0.969-0.191c-0.088-0.073-0.073-0.602,0.029-0.676
		c0.631,0,1.145,0.044,2.232,0.044c1.131,0,1.733-0.044,2.173-0.044c0.103,0.103,0.103,0.573,0,0.676
		c-0.323,0.029-0.631,0.088-0.808,0.162c-0.309,0.117-0.338,0.308-0.367,0.778c-0.029,0.823-0.015,1.528-0.015,2.879
		c0,1.101,0,2.394,0.029,3.011c0.029,0.308,0.088,0.558,0.367,0.661c0.206,0.088,0.5,0.132,1.028,0.22
		c0.044,0.088,0.015,0.602-0.088,0.661c-0.338,0-1.175-0.044-2.335-0.044c-1.116,0-1.88,0.044-2.218,0.044
		c-0.088-0.073-0.103-0.558,0-0.661c0.382-0.059,0.631-0.103,0.866-0.176c0.22-0.073,0.323-0.264,0.338-0.602
		c0.029-0.631,0.014-1.586,0.014-2.541c0-0.029-0.029-0.088-0.088-0.088c-0.279-0.015-1.145-0.015-1.865-0.015
		c-1.439,0-1.88,0.015-1.968,0.044c-0.015,0-0.029,0.059-0.029,0.073c0,0.91,0,1.894,0.014,2.35c0,0.411,0.074,0.632,0.426,0.749
		c0.191,0.073,0.573,0.132,0.94,0.205c0.073,0.103,0,0.602-0.088,0.661c-0.22,0-0.955-0.044-2.408-0.044
		c-1.175,0-1.924,0.044-2.188,0.044c-0.059-0.073-0.088-0.573,0-0.661c0.352-0.059,0.543-0.103,0.764-0.162
		c0.411-0.103,0.5-0.352,0.529-0.91c0.015-0.309,0.015-1.586,0.015-2.908c0-1.439,0-2.467-0.015-2.849
		c-0.015-0.455-0.059-0.631-0.382-0.719c-0.279-0.088-0.573-0.132-0.881-0.162C217.412,64.458,217.441,63.929,217.515,63.856z"/>
	<path class="st0" d="M233.563,63.871c0.617,0,1.615,0.029,2.335,0.029c0.749,0,1.615-0.044,2.291-0.044
		c0.073,0.103,0.073,0.558,0,0.676c-0.294,0.044-0.587,0.118-0.764,0.147c-0.396,0.103-0.485,0.352-0.485,0.808
		c-0.029,1.248-0.015,2.129,0,2.922c0,0.367,0.029,1.263,0.088,1.733c0.117,0.999,0.852,1.762,2.408,1.762
		c0.999,0,2.174-0.235,2.306-2.438c0.059-1.116,0.074-3.069,0-3.848c-0.029-0.499-0.103-0.808-0.617-0.911
		c-0.22-0.073-0.602-0.117-0.999-0.176c-0.059-0.117-0.044-0.543,0.015-0.676c0.587,0,1.292,0.044,2.041,0.044
		c1.16,0,1.63-0.044,1.924-0.044c0.073,0.103,0.088,0.587,0,0.676c-0.235,0.059-0.47,0.074-0.705,0.147
		c-0.367,0.088-0.499,0.352-0.529,1.057c-0.059,1.131-0.073,2.79-0.205,3.818c-0.235,2.761-1.88,3.569-3.95,3.569
		c-2.688,0-3.583-1.322-3.73-2.805c-0.088-1.057-0.088-4.083-0.103-4.89c-0.015-0.352-0.118-0.602-0.47-0.72
		c-0.191-0.073-0.543-0.132-0.866-0.176C233.49,64.429,233.49,63.959,233.563,63.871z"/>
	<path class="st0" d="M249.648,63.856c0.352,0,1.542,0.044,2.1,0.044c1.424,0,2.291-0.029,2.79-0.029
		c1.851,0,2.893,1.057,2.893,2.335c0,1.175-0.734,1.85-1.704,2.276c-0.014,0.015-0.029,0.088-0.014,0.118
		c0.367,0.661,1.586,2.247,2.261,2.937c0.499,0.514,0.661,0.573,1.542,0.705c0.044,0.029-0.059,0.646-0.147,0.676
		c-0.793,0.044-2.335-0.029-2.922-0.323c-0.353-0.191-0.632-0.455-0.778-0.661c-0.587-0.734-1.204-1.748-1.718-2.526
		c-0.103-0.162-0.22-0.205-0.396-0.22c-0.162-0.015-0.543-0.015-0.632-0.015c-0.029,0-0.073,0.073-0.073,0.103
		c0,0.866,0.015,1.718,0.029,2.159c0.029,0.352,0.117,0.558,0.426,0.631c0.308,0.088,0.485,0.118,0.881,0.176
		c0.088,0.029,0.059,0.646-0.044,0.661c-0.264,0-1.028-0.044-2.247-0.044c-1.116,0-1.865,0.044-2.261,0.044
		c-0.088-0.073-0.132-0.587-0.015-0.661c0.25-0.044,0.573-0.088,0.764-0.132c0.338-0.073,0.455-0.264,0.47-0.72
		c0.029-0.411,0.044-2.129,0.044-3.011c0-1.601,0-2.614-0.015-3.084c-0.029-0.367-0.147-0.529-0.441-0.602
		c-0.205-0.059-0.528-0.118-0.852-0.162C249.501,64.399,249.545,63.915,249.648,63.856z M252.981,64.708
		c-0.029,0.044-0.103,0.162-0.103,0.235c-0.029,0.47-0.029,2.203-0.029,3.26c0,0.044,0.029,0.118,0.103,0.118
		c0.837,0,1.454-0.044,1.689-0.176c0.426-0.22,0.764-0.646,0.764-1.498c0-1.278-0.705-2.012-1.924-2.012
		C253.348,64.634,253.084,64.664,252.981,64.708z"/>
	<path class="st0" d="M270.692,64.737c-0.47-0.25-1.057-0.352-1.674-0.352c-1.704,0-2.732,1.307-2.732,3.789
		c0,1.747,0.896,3.994,3.407,3.994c0.499,0,0.94-0.103,1.322-0.396c0.353-0.279,0.823-0.881,1.219-1.513
		c0.161,0.029,0.47,0.22,0.573,0.397c-0.191,0.617-0.866,1.836-1.278,2.085c-0.455,0.162-1.19,0.382-2.232,0.382
		c-3.334,0-5.316-1.674-5.316-4.817c0-1.659,0.822-3.231,2.452-4.038c0.808-0.397,1.747-0.632,2.952-0.632
		c1.41,0,2.497,0.264,3.099,0.279c-0.088,0.543-0.206,1.747-0.206,2.511c-0.073,0.103-0.676,0.162-0.69,0.059
		C271.397,65.471,271.279,65.06,270.692,64.737z"/>
	<path class="st0" d="M278.343,63.856c0.352,0,0.881,0.044,2.159,0.044c1.219,0,1.895-0.044,2.247-0.044
		c0.073,0.088,0.059,0.602-0.015,0.676c-0.294,0.029-0.617,0.088-0.778,0.147c-0.294,0.103-0.353,0.308-0.353,0.676
		c-0.014,0.587-0.014,1.248-0.014,2.276c0.014,0.073,0.044,0.103,0.073,0.132c0.147,0.029,0.396,0.029,1.968,0.029
		c1.307-0.015,1.674-0.015,1.806-0.029c0.059-0.015,0.103-0.059,0.103-0.103c0-0.734,0-1.689-0.014-2.438
		c-0.015-0.191-0.059-0.426-0.264-0.499c-0.206-0.103-0.499-0.132-0.969-0.191c-0.088-0.073-0.073-0.602,0.029-0.676
		c0.631,0,1.145,0.044,2.232,0.044c1.131,0,1.733-0.044,2.173-0.044c0.103,0.103,0.103,0.573,0,0.676
		c-0.323,0.029-0.631,0.088-0.808,0.162c-0.309,0.117-0.338,0.308-0.367,0.778c-0.029,0.823-0.015,1.528-0.015,2.879
		c0,1.101,0,2.394,0.029,3.011c0.029,0.308,0.088,0.558,0.367,0.661c0.206,0.088,0.5,0.132,1.028,0.22
		c0.044,0.088,0.015,0.602-0.088,0.661c-0.338,0-1.175-0.044-2.335-0.044c-1.116,0-1.88,0.044-2.217,0.044
		c-0.088-0.073-0.103-0.558,0-0.661c0.382-0.059,0.631-0.103,0.866-0.176c0.22-0.073,0.323-0.264,0.338-0.602
		c0.029-0.631,0.014-1.586,0.014-2.541c0-0.029-0.029-0.088-0.088-0.088c-0.279-0.015-1.145-0.015-1.865-0.015
		c-1.439,0-1.88,0.015-1.968,0.044c-0.015,0-0.029,0.059-0.029,0.073c0,0.91,0,1.894,0.014,2.35c0,0.411,0.074,0.632,0.426,0.749
		c0.191,0.073,0.573,0.132,0.94,0.205c0.073,0.103,0,0.602-0.088,0.661c-0.22,0-0.955-0.044-2.409-0.044
		c-1.175,0-1.924,0.044-2.188,0.044c-0.059-0.073-0.088-0.573,0-0.661c0.352-0.059,0.543-0.103,0.764-0.162
		c0.411-0.103,0.5-0.352,0.529-0.91c0.015-0.309,0.015-1.586,0.015-2.908c0-1.439,0-2.467-0.015-2.849
		c-0.015-0.455-0.059-0.631-0.382-0.719c-0.279-0.088-0.573-0.132-0.881-0.162C278.241,64.458,278.27,63.929,278.343,63.856z"/>
</g>
</svg>
