<svg id="Layer_1" data-name="Layer 1" xmlns="http://www.w3.org/2000/svg" viewBox="0 0 286.26 54.49"><defs><style>.cls-1{fill:#fff;}</style></defs><path class="cls-1" d="M24.25,34.51V21.08l-1.06.45V36.48A12.44,12.44,0,0,1,29,35c2.54,0,3.84.33,7.89,2.8,2.75,1.68,3.3,2.67,4.8,2.67a8.12,8.12,0,0,0,4.14-1.37l2.12-1c-3-1.8-7-5-8.66-5.85a8.73,8.73,0,0,0-3.87-1.09C33.76,31.14,31.59,31.13,24.25,34.51Z" transform="translate(-4.13 -21.08)"/><path class="cls-1" d="M25.51,37.05c-.66.23-1.54.56-2.32.92V74.09l1-.43V38.75s1.62-.51,4.31,1.46,3.15,1.65,3.53,1.65a7.42,7.42,0,0,0,2.69-.81l1.59-.71L33.9,38.61a9.8,9.8,0,0,0-5.36-2A10.14,10.14,0,0,0,25.51,37.05Z" transform="translate(-4.13 -21.08)"/><path class="cls-1" d="M21.7,38.61V74.73l-1.93.84V40.38s-9.67,4.2-9.95,4.2-.5.09-.71-.17a.28.28,0,0,1,.1-.47C9.31,43.88,21.7,38.61,21.7,38.61Z" transform="translate(-4.13 -21.08)"/><path class="cls-1" d="M21.69,22.16v15L9.45,42.37a9.26,9.26,0,0,1-2.82.53c-1,0-2.5-.64-2.5-1.77a.89.89,0,0,1,.51-.78L8.88,38.5a4.53,4.53,0,0,0,3.17.91,4.5,4.5,0,0,0,1.61-.35l6.13-2.62V23Z" transform="translate(-4.13 -21.08)"/><path class="cls-1" d="M80.62,52.23a33.56,33.56,0,0,1-8.78,1.53c-9.42,0-14.38-4.75-14.38-13.25a12,12,0,0,1,7.09-11.44,18,18,0,0,1,7.86-1.53,62.24,62.24,0,0,1,8,.89,43.88,43.88,0,0,0-.72,6.4,1.69,1.69,0,0,1-1.33.12c-.33-3-.81-4.15-2-4.83A10.41,10.41,0,0,0,70.88,29c-6.29,0-9.31,4.47-9.31,11.08,0,6.92,3.71,12.28,11,12.28a5.44,5.44,0,0,0,2.69-.52,2.07,2.07,0,0,0,.89-1.69A34.72,34.72,0,0,0,76.23,46c-.08-1.33-.32-1.81-1.49-2.14-.72-.16-1.45-.24-2.7-.4-.2-.12-.12-1.05,0-1.17,1.25,0,3.18.12,5.64.12s3.59-.07,4.39-.12a1.8,1.8,0,0,1,0,1.21,8.53,8.53,0,0,0-1.33.29c-.76.24-1,.76-1,1.93s-.09,3.7,0,4.47c0,.6.12.8,1,1.17A2.07,2.07,0,0,1,80.62,52.23Z" transform="translate(-4.13 -21.08)"/><path class="cls-1" d="M88.32,51a9.76,9.76,0,0,1-2.54-6.85,8.86,8.86,0,0,1,1.89-5.68,10.19,10.19,0,0,1,8-3.62A8.77,8.77,0,0,1,105,43.89a9.09,9.09,0,0,1-1.85,5.92A10.22,10.22,0,0,1,88.32,51Zm13-6.16c0-4.35-2-8.58-6.6-8.58-3.75,0-5.32,3.38-5.32,7.13,0,4.55,2.22,8.7,6.77,8.7C100,52.07,101.36,48.56,101.36,44.82Z" transform="translate(-4.13 -21.08)"/><path class="cls-1" d="M107.89,35.23c.81,0,2.54.12,4.51.12,1.61,0,3.75-.12,4.35-.12.17.12.12,1,0,1.17-.81.08-1.41.2-1.81.24a1.18,1.18,0,0,0-.89,1.25c0,1,0,2.82,0,5.8,0,2.58,0,5.64.08,6.81a1.14,1.14,0,0,0,.61.88,38.05,38.05,0,0,0,4.35.2,2.32,2.32,0,0,0,1.89-1A23.79,23.79,0,0,0,123,47a1.66,1.66,0,0,1,1.08.41,25,25,0,0,1-1.69,5.23c-.2.36-.56.52-1.21.52-1.85,0-7.41-.16-8.94-.16-1.37,0-4.15.12-4.79.12a1.5,1.5,0,0,1,0-1.12,20.21,20.21,0,0,0,2.33-.32,1.08,1.08,0,0,0,.93-1.17c.08-.81.12-3.27.12-7,0-3,0-4.39,0-5.16,0-1.21-.32-1.53-1.09-1.69a9.09,9.09,0,0,0-1.81-.28A2,2,0,0,1,107.89,35.23Z" transform="translate(-4.13 -21.08)"/><path class="cls-1" d="M126.42,35.23c.6,0,2.94.12,4,.12,1.7,0,3.22-.08,6-.08a10.33,10.33,0,0,1,6.45,2,8.37,8.37,0,0,1,2.78,6.52A8.56,8.56,0,0,1,142,51.22a11.39,11.39,0,0,1-7.09,2.06c-2.17,0-5.35-.17-7.49-.17h-1.33a1.91,1.91,0,0,1,0-1.16,17,17,0,0,0,2.3-.28c.56-.12.93-.37,1-1.37.08-1.78.08-3.83.08-6.41,0-1.69,0-4.75-.08-5.84-.08-.88-.37-1.21-1.09-1.37-.44-.08-1.17-.2-1.94-.28A1.49,1.49,0,0,1,126.42,35.23ZM133.18,51a4.13,4.13,0,0,0,2.78.85,5.71,5.71,0,0,0,3.91-1.33,8,8,0,0,0,2.34-6.21c0-2.9-.89-5-3.23-6.52a7.92,7.92,0,0,0-4.59-1.13,4.83,4.83,0,0,0-1.45.16.62.62,0,0,0-.28.49c0,.64,0,4.23,0,6.64s0,5.44.12,6A1.64,1.64,0,0,0,133.18,51Z" transform="translate(-4.13 -21.08)"/><path class="cls-1" d="M148.05,35.23c.77,0,2.78.12,4.43.12h6.36a26.36,26.36,0,0,0,3.51-.16s.16.16.16.2A28.16,28.16,0,0,0,162,39.7a1.43,1.43,0,0,1-1.17.08,10.59,10.59,0,0,0-.4-1.69,1.48,1.48,0,0,0-1.58-1.2,35.7,35.7,0,0,0-4.39,0c-.24,0-.4.4-.4.56,0,1.89,0,4.27,0,5.6,0,.08.08.2.16.2,1.49,0,3.19,0,4.19,0a1.18,1.18,0,0,0,1.13-1,8.67,8.67,0,0,0,.28-1.21,2.58,2.58,0,0,1,1.25.12,28.55,28.55,0,0,0-.2,2.94c0,.81,0,2.14.08,2.95a2.22,2.22,0,0,1-1.25,0c-.12-.64-.2-.88-.28-1.25a1.12,1.12,0,0,0-1-.88c-.92-.08-2.9-.08-4.19-.08-.08,0-.16.16-.16.24,0,1.33,0,3.59,0,5a1.41,1.41,0,0,0,.73,1.25,32.11,32.11,0,0,0,4.63.16,2.31,2.31,0,0,0,2.17-1.13A11.81,11.81,0,0,0,163,47.84c.16,0,1.09.2,1.13.44A22,22,0,0,1,163,52.51c-.24.49-.44.6-1.73.6-2.42,0-3.83-.07-8.82-.07-2.46,0-4.15.12-5.2.12a2.32,2.32,0,0,1,0-1.17c.93-.08,2.1-.2,2.66-.32.73-.21.89-.53,1-1.57,0-.69,0-3.43,0-6.65,0-2.62,0-4.79,0-5.32-.08-.92-.2-1.21-.89-1.41a16.92,16.92,0,0,0-2-.32C147.85,36.28,147.89,35.31,148.05,35.23Z" transform="translate(-4.13 -21.08)"/><path class="cls-1" d="M167.06,35.23c.92,0,2.54.12,4.19.12h1.93a6.17,6.17,0,0,0,1.09,1.57c3,3.71,8.3,10.11,9.7,11.72,0,0,.08,0,.12,0,0-3.94,0-8.29-.12-10.31-.08-.88-.32-1.37-1.2-1.57-.49-.12-1.29-.2-2.14-.32a1.68,1.68,0,0,1,0-1.17c.73,0,2.46.12,4.27.12s3.26-.12,3.67-.12a1.68,1.68,0,0,1,0,1.17,8.33,8.33,0,0,0-1.7.28c-.76.28-.92.73-1,1.49-.12,2.18-.16,7.21-.2,11.08,0,1.29,0,3.06.08,4a12,12,0,0,0-2.54,0c-1.41-2-9.23-11.77-11-14,0,0-.12,0-.12,0,0,3,0,9.1.08,10.75a1.48,1.48,0,0,0,1.21,1.65,14.31,14.31,0,0,0,1.89.33c.17.12.13,1,0,1.16-.69,0-2.5-.12-4.11-.12-2,0-3.15.12-3.87.12-.2-.12-.2-1,0-1.16a9.83,9.83,0,0,0,1.89-.33c.69-.24.93-.72,1-1.57.12-1.49.2-5.55.2-11.68A1.56,1.56,0,0,0,169.6,37a7.14,7.14,0,0,0-2.58-.6A1.49,1.49,0,0,1,167.06,35.23Z" transform="translate(-4.13 -21.08)"/><path class="cls-1" d="M199.72,28.14c1,0,3,.12,5.16.12,2.7,0,3.91-.12,5-.12.13.2.13,1,0,1.13-.72.12-1.49.24-1.93.36-.81.25-1.09.57-1.13,1.86-.08,1.49,0,3.54,0,7.49,0,.16.08.36.2.4.29,0,1,.08,6.85.08,4.43,0,6,0,6.33-.08a.3.3,0,0,0,.24-.24c0-2.09,0-6.65-.08-8.1a1.31,1.31,0,0,0-.81-1.33,12,12,0,0,0-2.37-.44,1.17,1.17,0,0,1,0-1.17c.92,0,2.9.16,5,.16s4.35-.12,5-.12a1.57,1.57,0,0,1,0,1.13,13.84,13.84,0,0,0-2.1.4c-.88.29-1,.73-1.13,2.18s-.08,3.78-.08,8.57c0,3.51,0,7.94.08,9.31.13,1.13.37,1.57,1.13,1.81a11.31,11.31,0,0,0,2.58.45c.12.16.08,1-.16,1.16-1.21,0-3.34-.12-5.4-.12s-4.07.08-5.11.12A1.46,1.46,0,0,1,217,52a11.94,11.94,0,0,0,2.29-.41c.73-.2,1-.6,1-1.85s0-5.56,0-8.09c0-.13-.12-.29-.24-.29-.76,0-4.19,0-6.41,0-3.14,0-6.44,0-6.84,0-.08,0-.12.2-.12.24,0,2.22,0,6.85,0,7.7.08,1.37.24,1.93,1.25,2.21a17.46,17.46,0,0,0,2.41.49,1.45,1.45,0,0,1-.16,1.17c-.77,0-2.66-.13-5.24-.13-2.37,0-4.55.13-5.35.13a1.58,1.58,0,0,1,0-1.17,20.59,20.59,0,0,0,2.17-.37c1.17-.36,1.29-1.08,1.41-2.94,0-1.36,0-4.79,0-8.29,0-3.91,0-8.18-.08-8.91-.08-1.12-.32-1.57-1.13-1.77a15.63,15.63,0,0,0-2.41-.44A1.35,1.35,0,0,1,199.72,28.14Z" transform="translate(-4.13 -21.08)"/><path class="cls-1" d="M230.25,35.23c.61,0,2.74.12,4.31.12s3.71-.12,4.51-.12a1.49,1.49,0,0,1,0,1.21,12,12,0,0,0-1.73.24c-.68.16-.88.53-.92,1.41-.09,1.21-.09,3.26-.09,5.8,0,2.82,0,5.24.09,6.21s.24,1.32,1.08,1.57a13.38,13.38,0,0,0,2,.32,2,2,0,0,1,0,1.17c-.73,0-3.23-.12-4.72-.12s-3.66.12-4.59.12c-.12-.16-.16-1,0-1.17.68-.08,1.49-.2,1.9-.28.84-.21,1-.61,1-1.29.08-.85.08-3.38.08-7.13,0-2.34,0-3.91-.08-5.28,0-.76-.2-1.09-.8-1.29a15.33,15.33,0,0,0-2-.28A2.08,2.08,0,0,1,230.25,35.23Z" transform="translate(-4.13 -21.08)"/><path class="cls-1" d="M242.26,35.23c.81,0,2.54.12,4.51.12,1.61,0,3.75-.12,4.35-.12.16.12.12,1,0,1.17-.81.08-1.41.2-1.81.24a1.18,1.18,0,0,0-.89,1.25c0,1,0,2.82,0,5.8,0,2.58,0,5.64.08,6.81a1.14,1.14,0,0,0,.61.88,37.93,37.93,0,0,0,4.35.2,2.32,2.32,0,0,0,1.89-1A23.79,23.79,0,0,0,257.37,47a1.66,1.66,0,0,1,1.08.41,24.48,24.48,0,0,1-1.69,5.23c-.2.36-.56.52-1.21.52-1.85,0-7.41-.16-8.94-.16-1.37,0-4.15.12-4.79.12a1.54,1.54,0,0,1,0-1.12,20.21,20.21,0,0,0,2.33-.32,1.08,1.08,0,0,0,.93-1.17c.08-.81.12-3.27.12-7,0-3,0-4.39,0-5.16,0-1.21-.32-1.53-1.09-1.69a9,9,0,0,0-1.81-.28A2,2,0,0,1,242.26,35.23Z" transform="translate(-4.13 -21.08)"/><path class="cls-1" d="M259.66,35.23c.8,0,2.54.12,4.51.12,1.61,0,3.75-.12,4.35-.12.16.12.12,1,0,1.17-.81.08-1.41.2-1.81.24a1.17,1.17,0,0,0-.89,1.25c0,1,0,2.82,0,5.8,0,2.58,0,5.64.08,6.81a1.12,1.12,0,0,0,.61.88,37.93,37.93,0,0,0,4.35.2,2.32,2.32,0,0,0,1.89-1A22.19,22.19,0,0,0,274.76,47a1.67,1.67,0,0,1,1.09.41,24.48,24.48,0,0,1-1.69,5.23c-.2.36-.56.52-1.21.52-1.85,0-7.41-.16-8.94-.16-1.37,0-4.15.12-4.79.12a1.54,1.54,0,0,1,0-1.12,19.89,19.89,0,0,0,2.33-.32,1.08,1.08,0,0,0,.93-1.17c.08-.81.12-3.27.12-7,0-3,0-4.39,0-5.16,0-1.21-.32-1.53-1.09-1.69a9,9,0,0,0-1.81-.28A2,2,0,0,1,259.66,35.23Z" transform="translate(-4.13 -21.08)"/><path class="cls-1" d="M281.09,51.38a4.91,4.91,0,0,0,2.94.85c1.57,0,3.22-.73,3.22-2.74,0-1.65-1-2.58-4.11-4.07s-4.67-3-4.67-5.59c0-3.15,2.94-5,6.32-5a21.12,21.12,0,0,1,2.94.2c.85.12,1.65.25,2.06.25-.17.92-.41,3.14-.49,4.59a1.46,1.46,0,0,1-1.16,0c-.21-1.82-.57-2.66-1.25-3.15a4.41,4.41,0,0,0-2.54-.72,2.73,2.73,0,0,0-3,2.74,3.27,3.27,0,0,0,2.05,3.06c1.49.76,2.74,1.29,4,1.93,1.61.85,3,2.1,3,4.39,0,3-2.66,5.48-7.09,5.48a14.27,14.27,0,0,1-4.79-.93,28,28,0,0,1-.85-4.83,2,2,0,0,1,1.17-.24A6.61,6.61,0,0,0,281.09,51.38Z" transform="translate(-4.13 -21.08)"/><path class="cls-1" d="M66,64.74a3.6,3.6,0,0,0-1.67-.35c-1.71,0-2.74,1.3-2.74,3.78,0,1.75.9,4,3.41,4a2,2,0,0,0,1.32-.4,6.6,6.6,0,0,0,1.22-1.51,1.06,1.06,0,0,1,.57.4,5.33,5.33,0,0,1-1.27,2.08,6.54,6.54,0,0,1-2.24.38c-3.33,0-5.31-1.67-5.31-4.81a4.4,4.4,0,0,1,2.45-4,6.47,6.47,0,0,1,3-.63c1.41,0,2.5.26,3.1.28a19.51,19.51,0,0,0-.2,2.51c-.08.1-.68.16-.69.06C66.75,65.47,66.63,65.06,66,64.74Z" transform="translate(-4.13 -21.08)"/><path class="cls-1" d="M75,71.8a4.86,4.86,0,0,1-1.27-3.43,4.37,4.37,0,0,1,1.56-3.49,5.33,5.33,0,0,1,3.51-1.24,4.39,4.39,0,0,1,4.67,4.58,4.86,4.86,0,0,1-.91,3,4.94,4.94,0,0,1-4,1.88A4.7,4.7,0,0,1,75,71.8Zm5.24,0a4.08,4.08,0,0,0,1-3.1A4.79,4.79,0,0,0,79.83,65a2.26,2.26,0,0,0-1.48-.52,2.05,2.05,0,0,0-1.1.3C76.35,65.31,76,66.56,76,68a4.94,4.94,0,0,0,1.51,3.81,2.45,2.45,0,0,0,1.53.51A1.81,1.81,0,0,0,80.26,71.85Z" transform="translate(-4.13 -21.08)"/><path class="cls-1" d="M89,63.86c1,0,2.32,0,3.55,0a3.73,3.73,0,0,0,.31,1c.62,1.37,1.84,3.91,2.22,4.64a.07.07,0,0,0,.1,0c.35-.66,1.76-3.57,2.25-4.73a3.82,3.82,0,0,0,.26-.88c2,0,2.62,0,3.34,0a1,1,0,0,1,0,.67c-.44.08-.8.12-1,.19a.6.6,0,0,0-.38.66c0,1.05.11,4.88.19,5.88,0,.39.14.69.53.79.21.06.55.12.94.19a.89.89,0,0,1,0,.66c-.5,0-1.21,0-2.51,0-.83,0-1.52,0-2.21,0a1.23,1.23,0,0,1,0-.66,7.37,7.37,0,0,0,.86-.19c.26-.09.32-.23.33-.7,0-1.14,0-3.47,0-5.1,0,0-.06,0-.07,0-.58,1.32-2.43,5.27-2.88,6.51a2.48,2.48,0,0,1-.72,0c-.38-1.22-1.81-4.46-2.66-6.43a.08.08,0,0,0-.1,0c-.11,1.48-.21,3.7-.22,4.86,0,.42,0,.66.5.81a8,8,0,0,0,1,.2.84.84,0,0,1,0,.66c-.32,0-1.13,0-2.23,0-.66,0-1.37,0-1.84,0a1.14,1.14,0,0,1,0-.66,8.2,8.2,0,0,0,.85-.16c.43-.12.56-.34.63-.9.15-1.17.45-4.56.5-5.75a.6.6,0,0,0-.38-.65A8.28,8.28,0,0,0,89,64.53,1.35,1.35,0,0,1,89,63.86Z" transform="translate(-4.13 -21.08)"/><path class="cls-1" d="M107.13,63.86c1,0,2.32,0,3.56,0a3.11,3.11,0,0,0,.31,1c.61,1.37,1.83,3.91,2.21,4.64a.08.08,0,0,0,.11,0c.35-.66,1.76-3.57,2.24-4.73a3.45,3.45,0,0,0,.27-.88c2,0,2.61,0,3.33,0a1,1,0,0,1,0,.67c-.44.08-.79.12-1,.19s-.38.33-.38.66c0,1.05.1,4.88.19,5.88,0,.39.13.69.53.79.2.06.54.12.94.19a.94.94,0,0,1-.05.66c-.5,0-1.2,0-2.51,0-.82,0-1.51,0-2.2,0a1.14,1.14,0,0,1,0-.66,7.61,7.61,0,0,0,.85-.19c.26-.09.32-.23.34-.7,0-1.14,0-3.47,0-5.1,0,0-.06,0-.07,0-.57,1.32-2.42,5.27-2.88,6.51a2.48,2.48,0,0,1-.72,0c-.38-1.22-1.81-4.46-2.66-6.43a.08.08,0,0,0-.1,0c-.1,1.48-.21,3.7-.22,4.86,0,.42,0,.66.5.81a7.86,7.86,0,0,0,1,.2.89.89,0,0,1,0,.66c-.32,0-1.13,0-2.23,0-.66,0-1.36,0-1.83,0a1.06,1.06,0,0,1,0-.66c.3-.06.64-.09.85-.16.42-.12.55-.34.63-.9.14-1.17.44-4.56.5-5.75a.62.62,0,0,0-.39-.65,8.28,8.28,0,0,0-1.14-.25A1.48,1.48,0,0,1,107.13,63.86Z" transform="translate(-4.13 -21.08)"/><path class="cls-1" d="M124.77,63.87l2.34,0c.75,0,1.61,0,2.29,0a1.09,1.09,0,0,1,0,.67l-.77.15c-.39.1-.48.35-.48.81,0,1.25,0,2.13,0,2.92,0,.37,0,1.26.09,1.73.11,1,.85,1.76,2.4,1.76,1,0,2.18-.23,2.31-2.43a37.86,37.86,0,0,0,0-3.85c0-.5-.1-.81-.62-.91a6.57,6.57,0,0,0-1-.18,1.31,1.31,0,0,1,0-.68c.59,0,1.29,0,2,0,1.16,0,1.63,0,1.92,0a.94.94,0,0,1,0,.68c-.23.06-.47.07-.7.15s-.5.35-.53,1c-.06,1.14-.07,2.79-.21,3.82-.23,2.76-1.88,3.57-4,3.57-2.68,0-3.58-1.32-3.73-2.8-.08-1.06-.08-4.09-.1-4.89a.66.66,0,0,0-.47-.72,3.88,3.88,0,0,0-.86-.18A1.14,1.14,0,0,1,124.77,63.87Z" transform="translate(-4.13 -21.08)"/><path class="cls-1" d="M140.74,63.86c.48,0,1.11,0,2.2,0,.41,0,.89,0,1.13,0a3.23,3.23,0,0,0,.57.86c1.28,1.61,3.47,4.33,4.35,5.33a.11.11,0,0,0,.07,0c0-1.93,0-3.38-.07-4.51,0-.48-.16-.72-.65-.84-.32-.07-.63-.11-1-.16a1.38,1.38,0,0,1,0-.67c.34,0,1,0,2.13,0,.91,0,1.59,0,1.9,0a1.27,1.27,0,0,1,0,.67c-.21,0-.4.08-.63.13-.4.14-.58.25-.64.9-.08,1.15-.11,2.94-.13,5.33,0,.68,0,1.53,0,2.07a12.18,12.18,0,0,0-1.48,0c-1-1.35-4-5.22-5.23-6.74a.05.05,0,0,0-.09,0c0,1.6,0,4.17.05,4.88s.25.83.66.94c.23.06.51.1.94.17a1.07,1.07,0,0,1,0,.66c-.6,0-1.29,0-2,0s-1.53,0-2.07,0a1.14,1.14,0,0,1,0-.66,6.08,6.08,0,0,0,.91-.2.84.84,0,0,0,.51-.83c.09-.82.12-3.53.14-5.56a.86.86,0,0,0-.49-.85,3.36,3.36,0,0,0-1.06-.25A1.24,1.24,0,0,1,140.74,63.86Z" transform="translate(-4.13 -21.08)"/><path class="cls-1" d="M156.93,63.86c.44,0,1.23,0,2.22,0,1.35,0,1.95,0,2.35,0a1.17,1.17,0,0,1,0,.67,6.15,6.15,0,0,0-.87.15c-.35.1-.37.35-.38.68,0,.52,0,1.36,0,2.64s0,2.79,0,3.35c0,.32.06.58.47.7.19.06.62.13,1,.19a1,1,0,0,1-.1.66c-.41,0-1.17,0-2.32,0s-1.91,0-2.38,0a.8.8,0,0,1,0-.66l.75-.13c.44-.09.51-.23.56-.71s0-2.17,0-3.39c0-1.48,0-2.08,0-2.7,0-.34-.12-.53-.38-.6a5.28,5.28,0,0,0-.93-.18A1.18,1.18,0,0,1,156.93,63.86Z" transform="translate(-4.13 -21.08)"/><path class="cls-1" d="M174,72.9c-.56,0-1.47,0-2.61,0s-2.15,0-2.6,0a.7.7,0,0,1,0-.66l1-.16c.45-.1.55-.31.58-.91.08-1.56.06-3.81.06-6.2,0,0,0-.13-.08-.13-.27,0-1,0-1.44,0-.24,0-.46.09-.68.53a12.77,12.77,0,0,0-.53,1.31c-.07.06-.69-.07-.73-.19.11-.63.28-1.89.34-2.66,0,0,.14-.12.19-.1a4.11,4.11,0,0,0,1.36.19h5.23a5.22,5.22,0,0,0,1.76-.18c.06,0,.12.11.13.14a20.81,20.81,0,0,0-.38,2.71,1.15,1.15,0,0,1-.73,0,7.27,7.27,0,0,0-.27-1.35.54.54,0,0,0-.54-.44c-.53,0-1.26,0-1.57,0a.19.19,0,0,0-.07.12c0,2.16-.05,5.69,0,6.48a.71.71,0,0,0,.38.63,7.71,7.71,0,0,0,1.21.22A.9.9,0,0,1,174,72.9Z" transform="translate(-4.13 -21.08)"/><path class="cls-1" d="M181.21,63.86c.47,0,1.28,0,2,0s2,0,2.26,0a1,1,0,0,1,0,.67,3.56,3.56,0,0,0-.45.09c-.24.06-.17.25-.09.43.26.61,1.25,2.58,1.51,3a.11.11,0,0,0,.12,0,23.12,23.12,0,0,0,1.51-2.92c0-.22.06-.38-.31-.45l-.82-.14a1.32,1.32,0,0,1,.06-.67c.54,0,1.09,0,1.91,0s1.29,0,1.82,0a1.09,1.09,0,0,1,0,.67,7,7,0,0,0-.73.15c-.44.15-.63.28-1.09,1-.6.92-1.5,2.53-1.85,3.2a1.27,1.27,0,0,0-.16.68c0,.63,0,.91,0,1.66,0,.51.06.82.49.91.23.06.6.1.95.16.08.07,0,.59-.06.66-.42,0-1.58-.06-2.49-.06-1.19,0-1.69.06-2.38.06a1.06,1.06,0,0,1,0-.66c.44-.06.82-.12,1.06-.18s.45-.35.45-.77c0-.71,0-.94,0-1.59a2.07,2.07,0,0,0-.19-.76c-.28-.64-1.11-2.19-1.67-3.21-.44-.79-.68-1-1.1-1.1a4.4,4.4,0,0,0-.82-.13A1,1,0,0,1,181.21,63.86Z" transform="translate(-4.13 -21.08)"/><path class="cls-1" d="M209.86,64.74a3.6,3.6,0,0,0-1.67-.35c-1.71,0-2.73,1.3-2.73,3.78,0,1.75.89,4,3.4,4a2.08,2.08,0,0,0,1.33-.4,6.6,6.6,0,0,0,1.21-1.51,1.08,1.08,0,0,1,.58.4,5.34,5.34,0,0,1-1.28,2.08,6.52,6.52,0,0,1-2.23.38c-3.34,0-5.32-1.67-5.32-4.81a4.4,4.4,0,0,1,2.45-4,6.49,6.49,0,0,1,3-.63c1.41,0,2.49.26,3.09.28a21.48,21.48,0,0,0-.2,2.51c-.07.1-.68.16-.69.06C210.57,65.47,210.45,65.06,209.86,64.74Z" transform="translate(-4.13 -21.08)"/><path class="cls-1" d="M217.51,63.86c.36,0,.89,0,2.16,0s1.9,0,2.25,0a1.09,1.09,0,0,1,0,.67,3.71,3.71,0,0,0-.78.15c-.3.1-.35.31-.35.68,0,.58,0,1.24,0,2.27a.37.37,0,0,0,.07.13,17.77,17.77,0,0,0,2,0c1.31,0,1.68,0,1.81,0a.12.12,0,0,0,.1-.1c0-.73,0-1.69,0-2.44,0-.19-.06-.42-.27-.5a3.45,3.45,0,0,0-1-.19.87.87,0,0,1,0-.67c.63,0,1.15,0,2.24,0s1.73,0,2.17,0a.79.79,0,0,1,0,.67,3.39,3.39,0,0,0-.81.16c-.31.12-.34.31-.37.78,0,.83,0,1.53,0,2.88,0,1.1,0,2.4,0,3,0,.31.09.56.36.66a4.61,4.61,0,0,0,1,.22c.05.09,0,.61-.09.66-.33,0-1.17,0-2.33,0s-1.88,0-2.22,0a.8.8,0,0,1,0-.66,7.06,7.06,0,0,0,.87-.17c.22-.08.32-.27.34-.6,0-.64,0-1.59,0-2.55a.1.1,0,0,0-.09-.08c-.28,0-1.14,0-1.86,0a14.86,14.86,0,0,0-2,.05s0,0,0,.07c0,.91,0,1.89,0,2.35s.08.63.43.75a8.07,8.07,0,0,0,.94.2.92.92,0,0,1-.09.66c-.22,0-1,0-2.41,0-1.17,0-1.92,0-2.18,0a1,1,0,0,1,0-.66,7.4,7.4,0,0,0,.76-.16c.41-.1.5-.35.53-.91,0-.31,0-1.59,0-2.91s0-2.46,0-2.85-.06-.63-.38-.72a5.06,5.06,0,0,0-.88-.16A1,1,0,0,1,217.51,63.86Z" transform="translate(-4.13 -21.08)"/><path class="cls-1" d="M233.56,63.87l2.34,0c.75,0,1.61,0,2.29,0a1.09,1.09,0,0,1,0,.67l-.76.15c-.4.1-.49.35-.49.81,0,1.25,0,2.13,0,2.92,0,.37,0,1.26.09,1.73.12,1,.85,1.76,2.41,1.76,1,0,2.17-.23,2.3-2.43a35.16,35.16,0,0,0,0-3.85c0-.5-.1-.81-.62-.91a6.65,6.65,0,0,0-1-.18,1.31,1.31,0,0,1,0-.68c.59,0,1.29,0,2,0,1.16,0,1.63,0,1.93,0a1.06,1.06,0,0,1,0,.68c-.24.06-.47.07-.71.15s-.5.35-.53,1c-.06,1.14-.07,2.79-.2,3.82-.24,2.76-1.88,3.57-3.95,3.57-2.69,0-3.59-1.32-3.73-2.8-.09-1.06-.09-4.09-.11-4.89,0-.36-.11-.61-.47-.72a3.88,3.88,0,0,0-.86-.18A1.14,1.14,0,0,1,233.56,63.87Z" transform="translate(-4.13 -21.08)"/><path class="cls-1" d="M249.65,63.86c.35,0,1.54,0,2.1,0,1.42,0,2.29,0,2.79,0,1.85,0,2.89,1.06,2.89,2.34a2.42,2.42,0,0,1-1.7,2.27.16.16,0,0,0,0,.12A20.88,20.88,0,0,0,258,71.54a2,2,0,0,0,1.55.7s-.06.65-.15.68a8.25,8.25,0,0,1-2.92-.32,2.33,2.33,0,0,1-.78-.67c-.59-.73-1.21-1.74-1.72-2.52a.44.44,0,0,0-.4-.22c-.16,0-.54,0-.63,0s-.07.08-.07.11c0,.86,0,1.71,0,2.15s.12.56.42.64a7.46,7.46,0,0,0,.89.17c.08,0,.05.65-.05.66-.26,0-1,0-2.25,0s-1.86,0-2.26,0c-.08-.07-.13-.58,0-.66l.76-.13c.34-.07.46-.26.47-.72s.05-2.13.05-3c0-1.6,0-2.62,0-3.09s-.14-.52-.44-.6a5.91,5.91,0,0,0-.85-.16C249.5,64.4,249.54,63.92,249.65,63.86Zm3.33.85a.54.54,0,0,0-.1.23c0,.47,0,2.21,0,3.26a.11.11,0,0,0,.1.12,4.45,4.45,0,0,0,1.69-.18,1.49,1.49,0,0,0,.76-1.49,1.8,1.8,0,0,0-1.92-2A1.59,1.59,0,0,0,253,64.71Z" transform="translate(-4.13 -21.08)"/><path class="cls-1" d="M270.69,64.74a3.6,3.6,0,0,0-1.67-.35c-1.71,0-2.73,1.3-2.73,3.78,0,1.75.89,4,3.4,4a2,2,0,0,0,1.32-.4,6.35,6.35,0,0,0,1.22-1.51,1.12,1.12,0,0,1,.58.4,5.34,5.34,0,0,1-1.28,2.08,6.52,6.52,0,0,1-2.23.38c-3.34,0-5.32-1.67-5.32-4.81a4.4,4.4,0,0,1,2.45-4,6.47,6.47,0,0,1,2.95-.63c1.41,0,2.5.26,3.1.28a21.48,21.48,0,0,0-.2,2.51c-.08.1-.68.16-.69.06C271.4,65.47,271.28,65.06,270.69,64.74Z" transform="translate(-4.13 -21.08)"/><path class="cls-1" d="M278.34,63.86c.35,0,.88,0,2.16,0s1.9,0,2.25,0a1,1,0,0,1,0,.67,3.74,3.74,0,0,0-.77.15c-.3.1-.36.31-.36.68,0,.58,0,1.24,0,2.27a.2.2,0,0,0,.07.13,17.77,17.77,0,0,0,2,0c1.31,0,1.67,0,1.81,0a.13.13,0,0,0,.1-.1c0-.73,0-1.69,0-2.44,0-.19,0-.42-.26-.5a3.54,3.54,0,0,0-1-.19.83.83,0,0,1,0-.67c.63,0,1.15,0,2.23,0s1.74,0,2.18,0a.79.79,0,0,1,0,.67,3.19,3.19,0,0,0-.81.16c-.31.12-.34.31-.37.78,0,.83,0,1.53,0,2.88,0,1.1,0,2.4,0,3,0,.31.09.56.37.66a4.61,4.61,0,0,0,1,.22c0,.09,0,.61-.09.66-.34,0-1.17,0-2.33,0s-1.88,0-2.22,0a.8.8,0,0,1,0-.66,7.06,7.06,0,0,0,.87-.17c.22-.08.32-.27.33-.6,0-.64,0-1.59,0-2.55a.1.1,0,0,0-.09-.08c-.28,0-1.15,0-1.87,0a14.62,14.62,0,0,0-2,.05s0,0,0,.07c0,.91,0,1.89,0,2.35s.08.63.43.75a8.07,8.07,0,0,0,.94.2.92.92,0,0,1-.09.66c-.22,0-1,0-2.41,0-1.17,0-1.92,0-2.19,0a1,1,0,0,1,0-.66,7.69,7.69,0,0,0,.77-.16c.41-.1.5-.35.53-.91,0-.31,0-1.59,0-2.91s0-2.46,0-2.85-.06-.63-.39-.72a4.9,4.9,0,0,0-.88-.16A1.1,1.1,0,0,1,278.34,63.86Z" transform="translate(-4.13 -21.08)"/></svg>